<mxfile host="app.diagrams.net" modified="2022-08-01T17:16:58.355Z" agent="5.0 (Windows NT 10.0; Win64; x64) AppleWebKit/537.36 (KHTML, like Gecko) Chrome/103.0.0.0 Safari/537.36" etag="iHORInnKV80JNlC1tE_X" version="20.0.3" type="github">
  <diagram id="fPJuS2PRNT2HL8Cro8eo" name="Page-1">
    <mxGraphModel dx="1220" dy="1939" grid="1" gridSize="10" guides="1" tooltips="1" connect="1" arrows="1" fold="1" page="1" pageScale="1" pageWidth="1169" pageHeight="827" math="0" shadow="0">
      <root>
        <mxCell id="0" />
        <mxCell id="1" parent="0" />
        <mxCell id="SI2dGwVQrveodY6pXAPa-8" value="AWS Cloud" style="sketch=0;outlineConnect=0;gradientColor=none;html=1;whiteSpace=wrap;fontSize=12;fontStyle=0;shape=mxgraph.aws4.group;grIcon=mxgraph.aws4.group_aws_cloud;strokeColor=#858B94;fillColor=none;verticalAlign=top;align=left;spacingLeft=30;fontColor=#858B94;dashed=0;" parent="1" vertex="1">
          <mxGeometry x="75" y="40" width="1020" height="490" as="geometry" />
        </mxCell>
        <mxCell id="SI2dGwVQrveodY6pXAPa-20" style="edgeStyle=orthogonalEdgeStyle;rounded=0;orthogonalLoop=1;jettySize=auto;html=1;entryX=0;entryY=0.5;entryDx=0;entryDy=0;entryPerimeter=0;" parent="1" source="SI2dGwVQrveodY6pXAPa-9" target="SI2dGwVQrveodY6pXAPa-11" edge="1">
          <mxGeometry relative="1" as="geometry">
            <Array as="points">
              <mxPoint x="250" y="270" />
              <mxPoint x="250" y="165" />
            </Array>
          </mxGeometry>
        </mxCell>
        <mxCell id="mlNtqiJOjDmDWpQiY5dI-39" value="Preguntas" style="edgeLabel;html=1;align=center;verticalAlign=middle;resizable=0;points=[];fontSize=12;" vertex="1" connectable="0" parent="SI2dGwVQrveodY6pXAPa-20">
          <mxGeometry x="0.145" y="-2" relative="1" as="geometry">
            <mxPoint as="offset" />
          </mxGeometry>
        </mxCell>
        <mxCell id="SI2dGwVQrveodY6pXAPa-21" style="edgeStyle=orthogonalEdgeStyle;rounded=0;orthogonalLoop=1;jettySize=auto;html=1;" parent="1" source="SI2dGwVQrveodY6pXAPa-9" target="SI2dGwVQrveodY6pXAPa-10" edge="1">
          <mxGeometry relative="1" as="geometry">
            <Array as="points">
              <mxPoint x="250" y="270" />
              <mxPoint x="250" y="370" />
            </Array>
          </mxGeometry>
        </mxCell>
        <mxCell id="mlNtqiJOjDmDWpQiY5dI-38" value="Respuestas Incorrectas" style="edgeLabel;html=1;align=center;verticalAlign=middle;resizable=0;points=[];fontSize=12;" vertex="1" connectable="0" parent="SI2dGwVQrveodY6pXAPa-21">
          <mxGeometry x="0.291" y="-1" relative="1" as="geometry">
            <mxPoint as="offset" />
          </mxGeometry>
        </mxCell>
        <mxCell id="mlNtqiJOjDmDWpQiY5dI-9" value="Obtener Respuestas" style="edgeStyle=orthogonalEdgeStyle;rounded=0;orthogonalLoop=1;jettySize=auto;html=1;entryX=0.5;entryY=0;entryDx=0;entryDy=0;" edge="1" parent="1" source="SI2dGwVQrveodY6pXAPa-9" target="mlNtqiJOjDmDWpQiY5dI-4">
          <mxGeometry relative="1" as="geometry" />
        </mxCell>
        <mxCell id="mlNtqiJOjDmDWpQiY5dI-21" style="edgeStyle=orthogonalEdgeStyle;rounded=0;orthogonalLoop=1;jettySize=auto;html=1;entryX=0;entryY=0.5;entryDx=0;entryDy=0;entryPerimeter=0;fontSize=10;" edge="1" parent="1" source="SI2dGwVQrveodY6pXAPa-9" target="mlNtqiJOjDmDWpQiY5dI-20">
          <mxGeometry relative="1" as="geometry" />
        </mxCell>
        <mxCell id="SI2dGwVQrveodY6pXAPa-9" value="&lt;font style=&quot;font-size: 10px;&quot;&gt;ORQUESTA-VALIDACION&lt;br&gt;ROBUSTA&lt;/font&gt;" style="sketch=0;points=[[0,0,0],[0.25,0,0],[0.5,0,0],[0.75,0,0],[1,0,0],[0,1,0],[0.25,1,0],[0.5,1,0],[0.75,1,0],[1,1,0],[0,0.25,0],[0,0.5,0],[0,0.75,0],[1,0.25,0],[1,0.5,0],[1,0.75,0]];outlineConnect=0;fontColor=#232F3E;gradientColor=#F78E04;gradientDirection=north;fillColor=#D05C17;strokeColor=#ffffff;dashed=0;verticalLabelPosition=bottom;verticalAlign=top;align=center;html=1;fontSize=12;fontStyle=0;aspect=fixed;shape=mxgraph.aws4.resourceIcon;resIcon=mxgraph.aws4.lambda;" parent="1" vertex="1">
          <mxGeometry x="162" y="250" width="40" height="40" as="geometry" />
        </mxCell>
        <mxCell id="SI2dGwVQrveodY6pXAPa-14" value="AWS Account" style="points=[[0,0],[0.25,0],[0.5,0],[0.75,0],[1,0],[1,0.25],[1,0.5],[1,0.75],[1,1],[0.75,1],[0.5,1],[0.25,1],[0,1],[0,0.75],[0,0.5],[0,0.25]];outlineConnect=0;gradientColor=none;html=1;whiteSpace=wrap;fontSize=12;fontStyle=0;container=1;pointerEvents=0;collapsible=0;recursiveResize=0;shape=mxgraph.aws4.group;grIcon=mxgraph.aws4.group_account;strokeColor=#CD2264;fillColor=none;verticalAlign=top;align=left;spacingLeft=30;fontColor=#CD2264;dashed=0;" parent="1" vertex="1">
          <mxGeometry x="110" y="100" width="520" height="390" as="geometry" />
        </mxCell>
        <mxCell id="SI2dGwVQrveodY6pXAPa-11" value="DynamoDB&lt;br&gt;Base de Preguntas" style="outlineConnect=0;dashed=0;verticalLabelPosition=bottom;verticalAlign=top;align=center;html=1;shape=mxgraph.aws3.dynamo_db;fillColor=#2E73B8;gradientColor=none;" parent="SI2dGwVQrveodY6pXAPa-14" vertex="1">
          <mxGeometry x="259.5" y="40" width="40" height="50" as="geometry" />
        </mxCell>
        <mxCell id="SI2dGwVQrveodY6pXAPa-10" value="S3&lt;br&gt;Base Preguntas Incorrectas" style="sketch=0;pointerEvents=1;shadow=0;dashed=0;html=1;strokeColor=none;fillColor=#DF8C42;labelPosition=center;verticalLabelPosition=bottom;verticalAlign=top;align=center;outlineConnect=0;shape=mxgraph.veeam2.aws_s3;" parent="SI2dGwVQrveodY6pXAPa-14" vertex="1">
          <mxGeometry x="260" y="250" width="40" height="40" as="geometry" />
        </mxCell>
        <mxCell id="mlNtqiJOjDmDWpQiY5dI-20" value="READ-BUCKET-&lt;br style=&quot;font-size: 10px;&quot;&gt;PYTHON&lt;br style=&quot;font-size: 10px;&quot;&gt;" style="sketch=0;points=[[0,0,0],[0.25,0,0],[0.5,0,0],[0.75,0,0],[1,0,0],[0,1,0],[0.25,1,0],[0.5,1,0],[0.75,1,0],[1,1,0],[0,0.25,0],[0,0.5,0],[0,0.75,0],[1,0.25,0],[1,0.5,0],[1,0.75,0]];outlineConnect=0;fontColor=#232F3E;gradientColor=#F78E04;gradientDirection=north;fillColor=#D05C17;strokeColor=#ffffff;dashed=0;verticalLabelPosition=bottom;verticalAlign=top;align=center;html=1;fontSize=10;fontStyle=0;aspect=fixed;shape=mxgraph.aws4.resourceIcon;resIcon=mxgraph.aws4.lambda;" vertex="1" parent="SI2dGwVQrveodY6pXAPa-14">
          <mxGeometry x="215" y="150" width="40" height="40" as="geometry" />
        </mxCell>
        <mxCell id="mlNtqiJOjDmDWpQiY5dI-26" value="ROLE IAM" style="outlineConnect=0;dashed=0;verticalLabelPosition=bottom;verticalAlign=top;align=center;html=1;shape=mxgraph.aws3.iam;fillColor=#759C3E;gradientColor=none;fontSize=10;" vertex="1" parent="SI2dGwVQrveodY6pXAPa-14">
          <mxGeometry x="430" y="145" width="30" height="50" as="geometry" />
        </mxCell>
        <mxCell id="mlNtqiJOjDmDWpQiY5dI-28" style="edgeStyle=orthogonalEdgeStyle;rounded=0;orthogonalLoop=1;jettySize=auto;html=1;fontSize=10;" edge="1" parent="SI2dGwVQrveodY6pXAPa-14" source="mlNtqiJOjDmDWpQiY5dI-23" target="mlNtqiJOjDmDWpQiY5dI-26">
          <mxGeometry relative="1" as="geometry" />
        </mxCell>
        <mxCell id="mlNtqiJOjDmDWpQiY5dI-23" value="ATHENA" style="sketch=0;points=[[0,0,0],[0.25,0,0],[0.5,0,0],[0.75,0,0],[1,0,0],[0,1,0],[0.25,1,0],[0.5,1,0],[0.75,1,0],[1,1,0],[0,0.25,0],[0,0.5,0],[0,0.75,0],[1,0.25,0],[1,0.5,0],[1,0.75,0]];outlineConnect=0;fontColor=#232F3E;gradientColor=#945DF2;gradientDirection=north;fillColor=#5A30B5;strokeColor=#ffffff;dashed=0;verticalLabelPosition=bottom;verticalAlign=top;align=center;html=1;fontSize=10;fontStyle=0;aspect=fixed;shape=mxgraph.aws4.resourceIcon;resIcon=mxgraph.aws4.athena;" vertex="1" parent="SI2dGwVQrveodY6pXAPa-14">
          <mxGeometry x="320" y="147.5" width="45" height="45" as="geometry" />
        </mxCell>
        <mxCell id="mlNtqiJOjDmDWpQiY5dI-24" style="edgeStyle=orthogonalEdgeStyle;rounded=0;orthogonalLoop=1;jettySize=auto;html=1;fontSize=10;" edge="1" parent="SI2dGwVQrveodY6pXAPa-14" source="mlNtqiJOjDmDWpQiY5dI-20" target="mlNtqiJOjDmDWpQiY5dI-23">
          <mxGeometry relative="1" as="geometry" />
        </mxCell>
        <mxCell id="SI2dGwVQrveodY6pXAPa-16" value="AWS Account" style="points=[[0,0],[0.25,0],[0.5,0],[0.75,0],[1,0],[1,0.25],[1,0.5],[1,0.75],[1,1],[0.75,1],[0.5,1],[0.25,1],[0,1],[0,0.75],[0,0.5],[0,0.25]];outlineConnect=0;gradientColor=none;html=1;whiteSpace=wrap;fontSize=12;fontStyle=0;container=1;pointerEvents=0;collapsible=0;recursiveResize=0;shape=mxgraph.aws4.group;grIcon=mxgraph.aws4.group_account;strokeColor=#CD2264;fillColor=none;verticalAlign=top;align=left;spacingLeft=30;fontColor=#CD2264;dashed=0;" parent="1" vertex="1">
          <mxGeometry x="680" y="100" width="390" height="390" as="geometry" />
        </mxCell>
        <mxCell id="mlNtqiJOjDmDWpQiY5dI-17" value="" style="shape=image;html=1;verticalAlign=top;verticalLabelPosition=bottom;labelBackgroundColor=#ffffff;imageAspect=0;aspect=fixed;image=https://cdn1.iconfinder.com/data/icons/bootstrap-vol-3/16/filetype-csv-128.png;fontSize=10;" vertex="1" parent="SI2dGwVQrveodY6pXAPa-16">
          <mxGeometry x="300" y="230" width="40" height="40" as="geometry" />
        </mxCell>
        <mxCell id="SI2dGwVQrveodY6pXAPa-18" value="" style="swimlane;startSize=0;" parent="1" vertex="1">
          <mxGeometry x="75" y="550" width="1025" height="140" as="geometry">
            <mxRectangle x="75" y="560" width="50" height="40" as="alternateBounds" />
          </mxGeometry>
        </mxCell>
        <mxCell id="mlNtqiJOjDmDWpQiY5dI-2" value="" style="shape=image;verticalLabelPosition=bottom;labelBackgroundColor=default;verticalAlign=top;aspect=fixed;imageAspect=0;image=data:image/png,iVBORw0KGgoAAAANSUhEUgAAAkYAAAGcCAYAAAA8kG+4AAAgAElEQVR4nOzdeZRcd3nn//ddaq/q6l37vlrewPKCbTAYMHsIgRCI2QcGEjLDhGQmM0kgTDLJTJJJ8gsEMoSwJBCWsNhmM7axDV6wLVuWZFn72mp1t9Tqrfaqu35/f9xusI0l3e6u7qrqfl7n6KBzaEtX3VV1P/f7fb7PoymlFEIIIYQQArPRFyCan+srJmyfs1WPczWPMUuRsz2KjqLiKcquj+0pLF/h+KAAxwcfhQZEdA2AqA4xXQt+mRppUyNt6mQiOl0xnd64Tk/coDumkzT1hv6bhRBCLE4SjAQQhJmS49NXcjlSdDlRdDhd9hiqeAzXPAqOjz0ZfBxf4frgKYWvwFPgA0op1OSf9cx1SC3IReiTv9fR0DUwNNA1DVMDU9eI6kGIihsa3TGdlUmTlSmD9ZkI69Mm6zMGPXEDc+oPFEIIIepMgtEiVXZ9Dhdc9ozb7M/ZHMm7DFRcSq6iNrn6Y3uTQWgyANXPhf8wjSA0RQ2N6NQKk6ERN6A3brAlG2FbNsIVHVEua4/QFTPQJSsJIYSoA01qjBa+qdWgXeM2O0dtnhy3OZCzmbB9al4QhGw/2DJr9heDoUHM+EVYypga69ImV3VFeVFPnKu7ovTGJSgJIYSYGQlGC5RSMFhx+clwjfvO1NgxapGzfSyPn68GLYQfvAaYU7VLRlCzdEl7hBf3xLh5aZwrOqMkDElJQgghwpFgtMAczjvc3l/hR0NVDucdLB8sT+G0wGpQvZg6P9+CW5UyuXlpnNeuSHB9T5SUFHULIYS4AAlGC8CJksttp8p851SVQwVnski63nVBrUnXwNQ0IjosTRi8bkWCN61OckNP7Oen5YQQQogpEoxaVMnx+d5Alc8fLfLkmN0yNUKNNFXUbegamzIRfn1NgneuT7M2LWcQhBBCBCQYtRClFHsnHP71eIlv9FUYszw8+enNmKaBqcGrlif44KY0r1mRwJBWAEIIsahJMGpyCqi6Pj8arPKZwyV2jFpYkobmxKaMyYe2ZHj3hjTtEV1OtgkhxCIkwagJKX7Rbfp7pyt89kiJ/TkHR4qG5pwGdMR03rU+zYc2p1mXNjF1DclIQgixOEgwaiIKsH3FYNnlm6cqfOlYiZMlV4qoG6QtonHr+jT/cVOazW0RYromq0hCCLHASTBqAorgSP1QxeP202U+f7TM8aIjgahJZCM6b12b5IObMmzJRkgYEpCagWJyHM1kZ3ZfBfP5fBX08VLP+Dr4xZiaqTIybeqXFvyvrgU/Vx0mR9bIz1mIxUiCUQP9IhC5/GCgyheOljhYkEDUrHriOreuS/HuDWk2ZExSho7Uas89TwWd2Z3JWX2uCmb1FV2foYrHuarHiOWTs3zGLI9x2yfv+D/v3+X4QVNTV/2iIaipBU1Bk6ZO2tTIRHQ6YjrdMZ3umEFvwmB5wqAzphPVg3YPQduH4PcR2V4VYsGSYNQgtq8YrXnce6bGZ4+U2DVm4cpPoulpwKqUyfs3pviNtSlWJE2Sptwi68VTwcNC1VNYnqLmBeHnUMHlcMHhZCkYbny67DJm+XN+KjNlaixPGKxJm2zIRNiQMdnSZrI2bZKN6sQmhx7HDU1q0YRYICQYzTNXQc7y2Dlm8YVjJe4ZqlGWRNRyIjpc3h7lg5vTvGZ5gt6EQVT2XabNU8Gpy7KrKLs+Z6seT+ccdo/bHMg5HCk4jNt+062iJidn9F2ajXBlZ5QXdEZZlTLJRnRSpkbK1KSBqBAtSoLRPFEEE+0P5By+0Vfhm31lzla9Rl+WmKWMqfGKZXE+sDnD1V0xOqI6Mprt/BTBlljRUeRtn6Gqy55xmyfGbHaN2ZwsudRasB2FBixJGLygM8qLumNc0x1ldcqkParTFtFJmrKaJESrkGA0DxxfMVjxuOdMlX8+UmL3uN3oSxJ1tippcuv6JG9dk2JTmykz2Z7D9hXjls9IzaOv5PLYqMWDwxb7cg5Fx2/05dWdrsGGjMmLeuLc2BPjBZ1ReuI6XTGDtGy9CtHUJBjNIV9BwfHZNW7zbydK3NZfoeTIt3uhiuoaL+qO8v5NaV6+NNheW8yrR66vGLd9hqsex4suPx2u8ZOzNY7kHRbb22BJ3OCmJTFuXpbghR1RliR0euMG8cX8AhGiSUkwmiOOr+grefxwoMIXj5U4kHcafUlinixNGLxtbZK3r02xrT1KahGtECig4voMlD2OFx0ePmfxk7M19uZsLNk5BmB5wuSVy2O8clmcrdkoK5MG3TFDWgMI0SQkGNXZVC3RzlGbL58o851TZSmuXoQiOry4N8b7NmZ4+dI4vfGFfePzFYzUPE6Vg5qhHw1WefCcRd5eeNtk9aJrcEVHhNetSHJTb5z1GZMVSYOYrCIJ0VASjOrIU3Cm6nLPUI3PHy3x+KjV6EsSDbYmZfKO9SneujbJ5kxkwd30fAX9ZZdDeYcHhmvcd6bGngm76U6RNTMN6I0bvHJZnFctj3N5R5T1aZN0ROrUhGgECUZ14vjB5Puvnyzz1ZMlRmrypCwCSUPjtSsTvGdDmht7YmSjrX/Dc5XiRNFlX87mnqEadw5WGarIXtlspUyNF/fGed2KBNd0R9nUFqFjAbxehGglEozqoOz6PDBs8c9HStw5WJnzpnOi9WjA9q4o/2FjmjesSrA0brbk1pqnFEcLLk+OWdw9VOOuoSrjljwE1FvC0Li6K8rrVia5qTfGlmyEdglIQswLCUazoIBxy+e2/jKfPVziqQk5hi8ubFXK4NZ1Kd65PsXGTKRlmgAq4GTJZceIxQ8GqvxosEphAR6zbzYpU+OqziivW5ngpiVxtmUjZGSLTYg5JcFohhRwvOjwbyfKfP5oSZo1itDSpsavrU7y/k1pru6KNf2R7YGyy44xi3uGavxwoMpw1UM+NOZXOqJxbVeMN6xMcPPSOJuzEWItEqqFaDUSjGZo15jNZw4X+Pe+Skt26hWNZWrw8mVxPrg5wy3L4k3ZELLo+Dw2YvHDgSp3DlY5VXZlm7jBumI6L10S5/WTK0hrUq25JStEM5NgNE0K+MnZGp86WOCHA1V5chazcnVXMG/tzatTZKN6U4yNcFVwkODuwSrfPV1h74SDLcfMmoauBZ3WX70izq+sTPKinpgUaAtRRxKMpsFVitv7K/zDwSKPjMhRfFEfm9pM3r8xw3s3pOiKGw0NR4MVl7uHanzvdIWHhi3yUkfUtOKGxqXtEd64KsmvrEywNRuRQcZC1IEEo5AsT/Evx0v8w6Eih6SLtaizZQmD921M89tbMixNzH84sn3FjlGL75yq8P2BKgOybdYyumM6L+mN85Y1SV6xLE5P3Gj0JQnR0iQYhVBxfT53tMSnDhbpL7uNvhyxQHXGdN6xLsXvbWtjZcqct3A0WAlG13z7VIXHRy1K0qm95ZgabGmL8MbVSd66Jskl2dY58ShEs5FgdBFFx+czh4v8v8NFhipyGkfMrYyp8bZ1Kf7o8iyr5jgcuUqxc9Tm631l7hyo0i+rRC2vK6ZzY2+Md61P8/Kl8QXRTFSI+SbB6AJyts8/HCzwucnj+PKNEvMhZWq8eXWSP72yndVpc07+jrztc9dQla8cL/PIiCU9iRaQiA7bslF+fU2SW9elWJ0y0WTxSIjQJBidR97x+Zt9Bb50vCR9W8S8ixsab1qV5K+2t7MiWd9wdKLo8vW+Mt/sK3O04MqJswVqecLgluUJPrgpzQu7olKYLURIEoyeR9Hx+dsDBT5/VEKRaJyYEawc/fX2DpYlZl9Q6ynFjlGbLx4tcfdQVVZBF4GUqXFtd4wPb8lwy/IEaVPCkRAXMzfr9C2s4vp88mCBLx0rca4mNw7ROJYXtIfQgL+7poPu2MzDUdVT3DtU5TOHi+wYtSnK1tmiUHYVDw3XOFfz6Cu5vGt9im45tSbEBcmK0TNYnuKThwr80+ESpysussMgmkHS1PiNtSn+ZnvHjAaJjls+t/dX+KcjRfbnHCx5YS9KK5MGb16T5KOXzO+pRyFajQSjSa6v+McjJT59qMCpkpzOEc0lE9F41/o0f7W9g8Q0ZqsNlF3+5XiZfz1eklNngo6oziuWxfmTK7JsyUZp8jF9QjSEBCNAKcXX+sr81b4Ch/OO3DxEU+qM6fzW5gyfuDKLEeKY0Ymiy2cOF/n6yTIjsi0sJiUMjet6YvzFC9vZ3hnFlKJsIZ5FmlwA95yp8Y+HSxwtyBO1aF4Tls+XjpX4zKHSBb9OAQfyDv9nX54vH5daOfFsVU/xs3M1/vOOcR4ctnBla1WIZ1n0wWjnmMXfHyiwe8zGkQ8I0cQUcLbq8elDBW47VXner/EV7Bm3+MSeHN8+VWHCliJr8cscH/ZM2PzOjnHuGqriysaBED+3qIPRiaLL3+wv8PA5S3q5iJaggFNllz9/OseO0WcPMvYV7Bq3+KNdOe4arMrJM3FBvoJjRYePPD7OHf1VWS0XYtKiDUZ5x+cfDhX48ZkaVflEEC3EU3Aw7/Cx3Tn6yx7wi5WiP9yV44FhS17TIhQF9Jc9/ssT43z7VFm2XIVgkQYj11d84WiJ2/orFGSrQbQgx4fHRy3+ZPcERcdn74TNH+zKyeqnmJHhqsdHHh/n233lRl+KEA23KE+l3dZf4c/35tmXs6VXkWhZGsHQ0FcsS3Cm6vHISA1Xcr6Yhfaozude1Mmb16QafSlCNMyiC0Y7xyw+tjvH/WdrEopEy9MAUw+20mT3TNRDNqLx1Zt6eM3yRKMvRYiGWFRbaaOWxxeOlnho2JJQJBYERbCtJqFI1EveUbz34TEeGq41+lKEaIhFE4w8pfi3E2W+e7oqIxGEEOICxiyPdzw0yr6c3ehLEWLeLYpgpIAfD9X495NlztW8Rl+OEEI0NQWcrXnc+uAop8tuoy9HiHm1KILRiaLLV06U2DkmTz9CCBGGr+BIweG9Pxtj1JKqfrF4LPhgVHEV3+grcedgVXp0CCHENLgKdoxa/N4T41Q8CUdicVjQwchXcP/ZGrf3Vyk6EouEEGK6ap7ihwNV/mZ/EUuq/MUisKCDUV/J4TunyuwZly00IYSYqbzj87kjRb7TX5ahs2LBW7DBqOIqfjBQ5c7BaqMvRQghWt5w1eMvny7w5Lg0xhUL24IMRr6Cx0YsvnWqwpgUDQohxKwp4FjR5c+eyi24k2qK4L7hKoXjK+zJX9Yzfu/4ClcpCYWLgNnoC5gLwzWPOwerPP6c6eNCCCFmzvYVj43afPJgkT99QZZMpHmfrYPmp5PBxgt+7yiF6we/9ya7xXtK4fhQ83yqnsL2g5CkUHg+GLoWdJjXIGpA3NCI6xqmrmFoGoYGpq5hahDRNUwdoro2+Sv4/7RGfzPEtCy4YGT7ioeHa3x/oCLdgIUQos7yts8dpytc2RnhN9eliOqNve37CixPUfEUFTcINzVPUXIVIzWPs9Xg17max5jlM2b5TNgeeVtRdH1KjsLy1LRPLSdMjbSp0RYxaItodMZ0OqM6XXGDpXGD3oTOsrhBb8IgaWjEDY2EqZM0NBKmRkzXaPC3TpzHggtGfSWX7w9UOV5cWEu9QgjRLAYqLv90pMi2bISru2PzuiJS9RQFx6fk+BQdRc726C97nCy5nCi6nCq7nK54DFc9anP4dFx1FVVXMVK7cLlG3NBYnjBYmTJZmzZZlzZYlzZZlTJpj+qkTZ1MRCMT0YkbsrrUDBbUENmyq/jayRIf252T2iIhhJhDKVPjzauT/OX2DpbEjTn7e0quz4TlM2H75GyfkyWXg3mHIwWHw3mXUyWXWgsW/iRNjbUpk41tEba2mWzNRlidMumK6XTEdNqjwUqTrCrNvwUTjBSwa8zmY3ty/HhITqIJIcRcW5Uy+f1tbXxgU5q4UZ87uO0rxiyfkZrHSM3jaNHlqXGbp3M2h/IuOXthPvRqGnRGdbZmI1zeHuWyjggbMiZL4wY9cYOOmE5MUtK8WDDBqOD4fPFYiY/vzlGV4iIhhJhzGnBtd4y/3t7Bjb2xGf85ZVcxXPUYqnr0lVz2TtjsGrfZO24zYfuLcmqBBvTGDS5tj/DCziiXd0RYlzZZljBZmjBImLLtNlcWRI2RUnAo7/C901UJRUIIMU8UsD9n8+XjJTZmTJYkwm+plV3FYMWlv+xxOO+wa9ziiVGbY0UXuwW3xupNEZywHj7rcf/ZGglDY2ObyVWdMbZ3RtmcNVmTirAyZUhtUp0tiBWjnB2sFv3JntycFtsJIYT4ZRsyJn9waZZ3b0gRucB2j+0rhioex4suB/I2O8dsdozYnCq7OBKGQjM12NgW4equGNd0RdiajbIhY7IiaVzw+y/Caflg5CvYOWbx+zsneHRE+hYJIcR8MzR45bIE/+eqdq7oiD7r/1MKRq2gVuhALghDj45YHCu6MnutDqI6bM1GuLY7xrXdMbZlI2zJRmiP6rKKNEMtv5VWcHx+ds7iyTGZhyaEEI3gKXhyzOa2/grr0iaZiI7lK06XPZ6esHlyzOaREYu9E/aCLZ5uFNuHvRMOeyccvtlX4aquKDd0R3lhV4wrO6OsTZlysm2aWjoYKYK+RXecrsietBBCNNCo5XH3UJUrO6KsShk8OWbz2IjFo6MWp0qebJXNg4Lj89OzNX56tsaGjMmNvTFe1B1je1eMy9ojxOp0cnCha+mttJKr+MbJMh99YlyKroUQosFSpsaVHVHaohq7xmzOXaT5oZh77VGdG3pi3Ngb47qeoHC7mUe5NIOWDkZHCw6/v3OCOwelb5EQQghxPnFDY3tXlBf3xrlpSYzrumO0RyUgPZ+WDUZVT/GD0xV+67Fx8o48lQghhBAXE9U1ruiI8OLeGC9fmuCGXglIz9WyNUajNY8fDlYlFAkhhBAh2b5i55jN3gmHB4ctXrIkxquWJ7ihJyZbbJNaMhh5CvrKLvedqTX6UoQQQoiWY/uKXeM2B/MOj4zY3NQb4/UrE1zXE1v0o0daMhgVHZ+HhmucrXqNvhQhhBCiZVU9xc5Ri0N5hx2jFq9cluCNqxJc1h5dtMf8WzIYjdQ8vne6uijn5wghhBD1pAgWHB4ZCQLS46MWb1iZ4A0rEyxPtmRMmJWW+xfXPMXucZt9OafRlyKEEEIsGL6CUcvnx2dqHMg7PDpi8ba1KW5aEiNpLp76o5YLRnnb587BqsxEE0IIIeaA4yv6Si7nah77cg5vWJng7WtTbM5GFsWYkZYKRgoYsTwpuhZCCCHmWMVVPDVhM1DxeGrC5h3r0rxqeXzBn15rqWBU8xSPj9oM16ToWgghhJhrvgrqeu8ZqnG44PL4WIL3bEhxSTa6YFePWioYlRyfu4eqyMgdIYQQYv7UPMWRvMMXqx57x20+sCnDq5fHSS/A1aOWCUbBNprPA2dlG00IIYSYbwqYsH0eGLY4WXLZO5HifRvTrE23TJQIpWWiXs1T/OycxZglna6FEEKIRrF9xfGiyz8eLvL7Oyd4+JyFs4C2clomGFVdxf1npHeREEII0WhTq0d3D1X5TzvG+OqJMnl7YSxctEwwKns+D52zGn0ZQgghhJhU8xQH8g5/tDvH/91fYLDS+oejWiIYub5i34TDOTmNJoQQQjQVX8G5msenDxX4rzsn2J9zWvqQVEsEI8uHnw7XWvobLYQQQixkJVfx3dMVPvDIKA8M17Bb9KbdIsFI8VM5jSaEEEI0NdtXPDlu896fjfKtvjJlt/XCUdMHIwWM1Tz2jNuNvhQhhBBCXISvYKji8eEd4/zz0SIFp7WKsps+GLm+YueYjYxGE0IIIVqDAsqu4g92TvDnT+XJtdCJtaYPRp6CJ8ZktUgIIYRoNT7wdwcLfHjHWMuM82r6YOT6ih0jUl8khBBCtKpv9lW49cFR+krNf2Kt6YNR2VXsnXAafRlCCCGEmIUHhmv85kNjnGzycNTUwchXsGfCpioFRkIIIUTLe2LU4m0PjnKs0LzhqMmDkWLvhNQXCSGEEAvFnnGbtz44wsF8cx6sau5gBOzPyTaaEEIIsZDszzn8+gMj7B1vvnDU3MFIwT4JRkIIIcSCc7Tg8vYHR9jTZOGoqYNRzfM5WpRgJIQQQixEx0su739kjKcmrKapOWraYKSAkyWPstMk3ykhhBBC1N2BvM2HH5vg6ZzdFOGoaYMRwMG8rBYJIYQQC5mvYPe4xe8/McHhQuPv+80bjBT0ldxGX4UQQggh5pin4JERi4/tnuBkqbHhqGmDkQJOlSUYCSGEEIuB7St+PFTj/+4rcLbauPEhTRuMAPqKEoyEEEKIxaLiKb7RV+GfjhQZtxozeLZpg5EC+mTFSAghhFhUCo7P544U+cbJMiV3/sNR0wYjx1ecaeBSmhBCCCEaY6Tm88lDBX44UMWe56NqTRuMJiyPitsE5/aEEEIIMa984FTJ5e/2F3h42ELNYxxo2mB0tiarRUIIIcRi5SrYn3f45KEC+3PzNze1aYPRuVpjiq6EEEII0RxqnuLhcxafPVKat/Kapg1GjapGF0IIIUTzyNs+3xuo8PWTZcrzUGLTtMEob0swEkIIIQScrXp85XiJe4aqcz42pHmDkSPBSAghhBDB2JAjRZcvHivx1MTc1hs1bTAqSjASQgghxCTLUzw2YvHl46U57YzdtMFIjuoLIYQQ4pkmbJ8fDFT57unKnPU3atpgVPMkGAkhhBDi2U6XXf69r8xjI9ac/PlNG4wcyUVCCCGEeA5Xwa5xm6+fLHN6DkaHNW0w8uazzaUQQgghWkbJUdw9VON7p6vYdd5hatpgNM+jUYQQQgjRQgYrLrefrrBjtL5bak0bjLRGX4AQQgghmpanYOeoxW39lbqeUmvaYKRrEo2EEEIIcX4lV3HnYJV7hqrUa0etaYNRpGmvTAghhBDN4lTJ5bunqzxdp8aPTRs/4oasGAkhhBDiwlwFDw7XuHuwWpdZak0bjJKmBCMhhBBCXFzO9vn+YLUuvY2aNhilJRgJIYQQIgQF7B63uWuoynBtdoXYTRuM2qXISAghhBAhWZ7izoEqj5yb3apR06aPbKxpL00IIYQQTehY0eHuoSp9pZl3xG7a9NEVMxp9CUIIIYRoIZ6COwerPDpizbhRdNMGoyVxCUZCCCGEmJ4zFY+7hqocKzoz+u+bNxglJBgJIYQQYnoU8KPBKjtGrRnNXW3aYNQd05GDaUIIIYSYrnHL5+7BGscK0681atpgZGgay5Nmoy9DCCGEEC3o7qEqu8ftaY8KadpgpAErU7KdJoQQQojpm7B97hqqcqI0vVqjpg1GAGtTsmIkhBBCiJm5eyiYoTadWqOmDUYasDETafRlCCGEEKJFjdR87j1TY7ASvht20wYjNNiYkRUjIYQQQszcXYNVDuWd0H2NmjcYAVuzEeRgmhBCCCFmqr/s8dA5i1Er3KpR0wYjDdiQMUmaTXuJQgghhGgBdw5WOV50CbNo1NSpI2ZobG6T7TQhhBBCzNzTEza7xy3Kjn/Rr23qYKRrcHl7tNGXIYQQQogW5iu4a7DGQIgi7OYORsBlHXIyTQghhBCz8/A5iyMFB+ciVdjNHYw0jSskGAkhhBBilgqOz0+Ha4xaF95Oa+pgpGnBybSkIWfThBBCCDE7952pMVTxLliE3dzBCGiP6GzJyqqREEIIIWbnYN7h6ZxNxT1/NGrqYARg6BrXdccafRlCCCGEaHG+gh8P1Ri7QE+jpg9GpgbX90gwEkIIIcTsPXwuGBFyvhrsFghGGld1RqXOSAghhBCzNljx2DVuU3afvwi76bsnahosTRhszUbYNW43+nKEEIuYrkFbRKczqtMW1UmaGlFdQ9dAKXAVVF2foqPI2T5jlscFShmEEA1y/5kqb1yZIBP55fWhpg9GAFFD46YlMQlGYtqSpsbmtghpU7/g3D1PKZ7OORRDdEUVi0vM0FiZNNjcFmFNymRVymBZwqAzZtAW0YgZGoYW1C44PpRdn3HbZ6TmM1B2OV1xOVZ0eWrcxpOQJERT2DFqc7bqsSJpoj/n5tAawUiHlyyJ88mDxVBzToSYcnVXlA9uzrA8YcAFopGrFP94uMgd/ZX5uzjR1FKmxiXZCNf3xNjeFeWy9ijrMyaZyIVD9jM5vmKw4nEg7/ChR8c4W73wMWEhxPw4W/XYPW6zrT1Kynz2O7olgpGpa1zWHmF50mAwRDtvIaZc0RHlZUviLE0YF/w6RTBLR4KRMDRYmzZ53YoEr16e4OruKF0xI3QYeqaIrrE2bdIW0TE1qZMUopk8MGzxxlVJUuaz7w8tEYw0oCNqcGNvjG/2yY1LhGdoWugbmtT3i7ihcXVXlPduTHPLsgTLkzMLRM/14HCNMVtWi4RoJo+OWEzYPksSz36fN/2ptCkJU+MVy+KNvgwhxAKVMjVevjTOH1+e5e1rU6yoUyhSwLdPVbAvMp9JCDG/Bisuh/LOL703WyYYxXSNa7pi9MZb5pKFEC0iZmhc3xPjv12a5ealceJ1XD48VXJ5dMTCk7p+IZqKp+CREYuq26LBSJ88ti/NHoUQ9aRrcGk2wu9ua+P6nijmc4+ozNJdQ1XGLNlGE6IZPTpi/dJ4kJYJRgBpU+c1KxKNvgwhxAKyImnyvo1pXrYkXvdQ5PiK7/ZXqck5fSGa0r6czUjt2V2wWyoYxQ2Na7pjrExd+ISREEKEkTI1XrokxlvWJGe0feYqRdHxOVfzGLd8nOfUKuydsDmQt6XJoxBNquQo9k7Yz6ozaolTaVN0DZbFDW5eEucrJ8qNvhwhRItblTJ574Y0vfHwD1t52+eJMYvHRmyOFh1ydhCIdE0jaWisSBpcko2wMRPhW6fKTNhSXCREM9sxFhzbn3o4aqlgBJCN6rx+ZYKvnyzLU5gQYsYykaCj/nXd4esW94zb/OvxEg8M1zhT9cjZ6lmrRDpBt/XOmE571GCw4so2mhBNbueojdWqK0YQnB65rD3KFR1RGREihJixpQmDt61NkTDDbaHtGLX45MECdw/VyLlY/W0AACAASURBVJ9nFcgHSq6i5Hr0l6UZrRCt4GDeIW/79MSDFh0tVWMEQbPH3rjB61dKEbYQYmamHrCu6Qq3WnS44PD5oyXuHKieNxQJIVpT2VUczDu4k6tGLReMALLRoBHbkmnUBQghxJT2qM4ty+MkQ6wWVVzFD05X+P7pCiXZvxdiQdo1bjM1Q7wlg5GhBfOHXrVcOmELIaavM6pzS8hO+vtyNvedrTFmyUqREAvV0xMOjmrhFSMAUw8KsYUQYjpihsa29girUuFKLPdO2Owet6VBoxAL2P6cjTv57NNyxdeWp3j4nMXfHsizY1SKr4UQ05MyNa7pjoaadj9m+RzKu7JaJMQC11dyydk+nTG9dYKRAoarLn97oMBXT5SZeM4xWSGECCNlaqGLrvtKLocLDvJRI8TC5io4UnBYmzZbIxg5vuLeMzU+sSfHgbwjfUGEEDOWNHSu6IiG+trTZZcTRXeOr0gI0QyOFFxesUw1fzAq2D7/++k8nz1apOIqeXITQsxYRIfVaYP2EPWJChisePSXJRgJsRgcLth4qolrjBSwZ9ziQ4+Ns3dcZg0JIWYvqmtc0hYhTEvHvO0zWHGpygq1EIvC0clt86YNRv96vMTvPj6+aPqGpEyN9WmTjW0RliYMMqZG3NDQNQ3b96m6ijHb50w16Kh7sug+a+hdoxla0HizN27QFdfpihnE9eBG5BEUzRed4PoHKx7DVU9O+UzKRHRWJA26YjppUyNl6mgalB2fvKM4XnI5V23eLso6sDkbYUPGZGXSIBvViesapq5heYqqp8hNvnZPlV36S27D3tcxQ2NzNhLqa0ctn6FqY4uuo7rG0oTB8oRBJqKRNIPva9VTlByfMctnsOKRt315P9VBNqqzOmnSG9dpiwbvxZiuYfvB67jmKUqOYswOPscmrMZ93zWgO6azPGXQHjFImRopU8NRwWfHqOVzrOBQXCT30Ho4WfLwVBNupRUdn488Pr6gh8RqgKFrbG4zecPKBK9ZnuAFnVHaIuHbD1Q9n8N5l0dHLB4crnH/2RoTto9SzMkbdeoJW9OgJ2ZwdVeU63piXN4eZWvWZFXKIGbooZ7EFZCzfZ6esHn4nMVPztZ4bMSi5qkF/eGuEQxC3pKN8PKlcV7SG2N7V4yVSQNTv/B3Lmf77Bq3ue9MlfvP1Ng1buPP0c/6QjSC18DShMFbVid53coEN3THSE3rtas4UXR4fMzmweEaDw9b9Jfduvx7UobGjUtixM7z/WyP6lzXHa6+SEOxMWPwKyG67HsKDuQdBiruz4/8TpeuQdrUeMmSOLcsS/Cinihbs1HSF2lC6SoYqrjsGrP5yXCNe4eqnCx5OP7cvZ9iusaqlMHS5IWb7I5UfU6Vn39enAZEdI1L2yO8pDfG5R1RlicNkqaGDlQ8xVjNp7/scrTosHfCYX/OwfZnX1Ix9V5cmza5eWmcly2Nc01XjFUpg+hF3ovPlLN9DuYdnpqweeScxUPnLAYrwdZrPT+LNQ2ShsYLO6O8fGmCG3qDsVhdMQPjAperlOJM1eOREZv7zla5d6jGqbI7Z/eJVjdQdrE9haaUaorvj6/gRMnhHQ+N8eSY1ejLmRO6FqwM3dgT48NbM7x0SZyUWZ9eTLaneOhcjW+dqnB7f4WCo3Bn+cGoEawExQ2NS7JRXr0izquXx7m8I0q6TtcNwc9+qOryzb4KXz5e4nDBnfW1T/kvl7TxB5e2sSRx4Q9wBXzmUIHffWKiDn/rs5ka9MQNfmVVgvdsSHNlR/TnU5xnwlWKQ3mHfztR5hsny5yteTO+GYc1dRN7QWeEj25r440rk8Rm8W94poqr2DNh851TFX44UKG/7OGqmd38vnBDF+9cn77gzWKu3Humxn95fJzDBSf0f6MxtYpl8lubMvza6iQ9s+zob/mKx0dtvnisxN2DVcYsj3rvBl7fE+MHL++9aC+5/rLLx3fn+OrJ4EE3eCiEtSmT31ib4p3rU6zPmKFaJwBUPJ/bTlV5789GZ3TdhgadMYOXL43xvo1pru+Jkwo5Ky8MXwVzt+4crPKdU+WfP8DMhAaYusbGjMnb1iZ5+7oU69ImRsjv1fNxfMUDwzW+cqLMd09Xqbp+3V8bre6JNyxrjmDk+Ir7z9b40KNjDFYW5hZLRNe4oj24qbxpdXJWN8aLydk+XztZ5rNHipwsutNeidGAqKGxOmnwhlVJfnNtiss6ItN6kpqpCcvjG30VPnWoSF/JnXVLhkYGo+BDWOdNq5L8ztY2LslG6nrD9hUMVlw+fajIF46VKDj+nBxOMDRYmTT548uz3LouSbyOofi5xiyfOweqfOFYkT0T9rQOXGjAgV9dzsaQNUT19q2+Mn+0O8fJUrhi7ZiusTZt8HuXZnnn+iQxvb7fV6UUT47bfOpgkXvOVBm36vP60ICbl8a555YlF/3aMcvj47tzfO5oCVOD5UmT925I876NKVamzBn9nAYrLutvG5zWDd3QoCtm8KrlcT68JcPVXTHm+uNsuOry+vtG2DMx/X57EV1jXdrgPRvSvGt9muUXWZmbLk8p9k7Y/MXTBe4arGIt8NX66bj95p7Gb6VVXMXXT5b5H7smmFiAwxk1ghqSN65M8EdXZNncFq6+YTbaozof3pLhPetTfPVkmU8eLHIiZMgwNVidMrl1fYr3bUyzJmR34HrpiBl8aHOGly2J85f78tx+ukKlxfbINYJVtht6Y/y3S7O8dEmMyBx8CusarEqZ/OkL2rl5WZyP786xL+fUtb9XzNC4eUmMv72mk02ZyJzfTLpiOu/akOJNqxN873SF/3e4yJ6JcC06uuM6SxJGQ0IRwMmSSznE0p1GUMvy7vUpPnFllmx0bmY+aprG1V0xvnRjlO+frvLX+wrszdkNuQnGDY1XLIvzB5e2cV1PLPQK0XMp4PbT1dChSAMSRtDQ8/e2tfHq5YmLblvXgyLYCjxTm15toK4Fn99vXJngo9vauLQ93LbvdBmaxgs7Y3zxhi6+fLzMX+7Lca42Nw9WrWaw7DU2GE3YHn9/oMinDhUoOgvvJ6IBHVGdd6xP8bEr2umKze8Ik1RE5z9uznDL8jgfemyc+8/ULvrfXNIe4eNXtPOmVck5vwmej64F1/GX2ztYkzb59KEChRZ5fegadEUN3rUhxe9sybAmPfdvsbih8aplCZbGDT6+J8f9Z2tYdVgfjxsav7E2xV+8MMuyxPx+VGQiOu9Yn+bmpQl+f+c43z1d4WLPTZe2R2e1zTBbQTC68PfdmHzw+OS1HbxuRXJersvQNN60OslVXVE+vifHnQNVcvNUrK0B6YjO+zam+d1L2tiQmd3ryPUV3+4LV3+qT9ZDvm1tkv96abbuqy4XYnuKB4cthqdxaMLUYEMmwoe3ZnjX+tS0ak5nqi2i84FNadalDf77rgmOFtxFv7U2WPUaMyst6GLt8bHdOf7+4MIMRRB8uP/62iR/cuX8h6IpwdOpwdaQJ3F6YgarU2bDQtEzLUsY/PaWDB/e2lbXOoC5omuwKmny3y5t4w8vy85LKHrm331lZ5S/2t7O61cmZr1VG9U13rw6yZ+9YP5D0TP1JgyWJw2iIf4927Jzv6J1PravOFXyLri6aWjwws4od9zcO2+h6JlWp0w+fW0n79+Upic+PytrhqYFwWTb7EMRwPGiyyMjF69BNTRYnw7ei39+Vce8hiIIDhjcdir8AaKgfi/Kn74gywc3peclFE2JGxqvWp7g09d1cWl7fbf7W9FIrQHByFdBm/0/2DXBv50oX/QJq1VFdY2XLInx3y/L0tHAYbcKyFk+9w1dfLUIgg+ePeMWja88CyxLGLxzXYpfXZWck+2oepkKRR/d1sZvbcnQ0YAgrAGXZKN8/Iosr16emHFNmAZc1x3lf1yWZUWysbvt/SWXAzmHUoiHp211ruGajoGyR945/yqMocFVXVG+dlMPl7bP/Xb6+WQiOv/rBe28f2Oa7nkIR9mozvauWN0eEv69r3zR7R5Dg42ZCL+3rY2PXJIhOc8vCqXgTNXlJ8PhDhFFdI3tXVH++Iosb1mTasjnXETXuKEnxl9v7+CSbGNq9JrFufkORr6C40WHP9w1we39lQUbijRgQ8bkQ5sz067R8dUvev4UHJ+S61P1FK6aWV2A7St2j1uhT8oMVFx2jzvknOap99qSjXDr+hSb2xpeEndeSxMGH9qS5t0bUiRnuLrlqeDnZXlqxketNeDSbJSPXpJhe1d0Riso3XGDj25rY0Pb9IpjFcFrt+Q+57U7ixOGD4/UQhczb2uPNGwr7UTJpXiB+qJt2Qife1EX6+a5Zu/5RHSNP74iy9vWJsnM48rEbNU8xbdPVS74NVN1dx/emub9m9LoDXg9OEpx50AtVG2kocEl2Qgf2Zrh9SuTMw4krgo+N6zJe8VMRHWNG3ri/I/Lsiyb5xW2ZjJa8+evxshXcLjg8Ik9Oe4aqrZcQe10pEyNG3tj3LIsHvq/KTo+IzWf4ZrHQNllxPJxfEXU0MiaOt1xnY6oTsrUSUU0MqZOJqJd9Omi7Chu66+Gvg5PwdM5mz3jNjcvvfj1276i4v6i+ZnlKRwFnq/wCZr/GTqYmkbC0MhEdLIRbVoFkBpwTVeUN61KcqxYqEv9TD1lIjpvXp3k3euntwSuCLorj1tBkBizPIqOj6MgYeh0xXTaIhrtUYOeuB56BUjX4OruGL+1Oc2psstQJXydgwb82uok27vO3wvouSwv6JUyYvn0l1xGLI+qp4jrGqmIRm/MoDM2+do1NdIRnYypXfS4f8X1eXTEZiDE9esarEgaDdlK8yeHTxbOUwS1JG7wf67q4JL2KNO5Tyug6gbNMYuuT81TP2/LoGvBjSxpamQjwetkOu+puKHx8Suy9BVd7j5Ta4mB3E+O2RzMn/8BTwM6ozpvW5vkA5syMwrJngped0Un+ExzfPXzmhtNCz7PTF0jOtm8NmVqJE39WSuVFVdxW/+FA9zU9S5PGrx7Q4pfW52c1iqF6ysmbJ9x26c42egzWFVVpCM6nTGdtohOZzRothv2pZE0NW5eFuc/bEzzd/sLVJrss3Y+jNvzFIwWUyiC4Ejq29aGWxL1VNBU6t4zVW7rr7Bj1CZ3ng/YbERnTdpgc1uEyzuCBl+rkgbdcZ2euPFLNzJ/ckn33hBF1890OO+wa9zmxb2/fJrKU5B3gpt5zvIYqHgcLwWDNocqLmdrHjlbUXQ8HD849p8yNNoiOqvTBpdlo1zbHWVjW4RVKZNEyGXurpjB9b0xNg9EeHoGx1/nSkSHF/fGeNf6NEsv0hLgmXK2z7Giy0/PVvnJWYs9EzYjNe9Z2wRRXWNDxuBFPTF+ZWWSKzujrEqGq/+KGxo3LYnzltVJ/ulIKXSX9I6ozq+sTLAkEe5j+lzN46HhGl/vK/PTs9bzvnY1gg/c1SmTzW0ml7VHubwjwrq0SU/coCsWNPV77j9rf87hUM4OdSJNQ+OhcxZnq/7zfn90LejMvi7Elo7tK4YqHmdCFs5WvWDI9Zj1y//2mK7xO1szvHRpnLALiQooOT4nSi5Pjdv8bMRif875RYdrpYibGt0xg40Zk+2TzVYvyUZYEjdCb8V0xQz+5wvaOVwc5VjBadhxbV9BaTKMVFwfxwcfhaFpxCbDn6EF0xAuJG5o3Lw0zu9e0hY61E+peYrhqkdf2WVfzmH/hM2pssuoFax6KiAyGUbbozrdseAzd0MmwsaMSW/coCOmk43oPJ2z2Tl28c+odETjtSsSvHN9OvTPzFcwXPM4kLO590yNh85ZHMg5FJ+zjZuJBI0zb1oS57XLE2xrj4auc10SN/jVVQkeOWdx/9np3TsWgsJ8BCM1GYr+Ym+ee4bCLS+2soiusT5j8qKe2EW/Vk0+aX7yYIFvn6qcNxBNyTs+eyd89k44fPtUBUPT2NpmckNvjJctjbM1G2FV0qRz8g1g+4r7ztYYs6Z3ZHTM8tkzbjNU8ViTNlHw83Ee/SWXnWM2O0YtnppwOFP1cEPedHeNwx1Uielw09I471mf5mVL46EDxaXZCC/qjrJvwm6anhurUiZvnjzxE4YimNh+R3+Vzx8tcqTgnHcOoO0rDuZdDuZdvnaywlvXJPntLWmu6gx3/H9lyuS1KxL8dLjG0xPhtlKv742xPh2u4d6Y5fMPB4v8/cHCBeeJKaDsKg7mHQ7mHb57ukpEhzUpk+t7YrxkSYwrOqKsTgWvXVPT8BU8MmJxPOQ2mqcU//GRsecNWAAJU+NDmzP8zyvbL/pnna16fPJggS8du/CNeIrtc96tz2u7o7xnQyp0Mbw32cX6R4NV/vV4mZ1j1vOeEiq6ipFa0HX5+wNVliaCDt1vX5die2eUdMiVyxd0RvnApjR/9lRu3ksbrMkAerLosi9ncyjvMlBxGbd9XF8RNzR64sFhkKSh8a0LbKMZGmxsC050TadBpqfgTNXjsZEa3ztd5b4zVc7VpndiTyPooH11d5Qr2qM8NFzDu8h2lqHBFR1R3rkuTXfIwBJ8Hjh8dbKx65kLjFUqOorHRmweG7H5wtESv7MlwzvWp0MXwG9pi/L2dSl2j9sLso3OheSdOQ5GCjhecvib/QV+OFilNNfteZtA2tS4tjsaaiVkzPL48vES3+grhyoufS5PKfbnHfbnHb5wrMQ1XTHesDLBS5fE2NQWwfIVt11kT/589k3YPDFmkY5o9Jc9HhuxuGeoyqMjFmOznA9k+fDjoRo7R21+e0uG/7Q1Q2+ID7NlSYNt7VFSpt4Ur6WEofGS3hivW5EIXRtwoujwqUNFvn6yzPjzrDCcj+UpvnayzIGcw/++qp2XLY1fNLxowJUdUV6zPMGRvIsVIsBe2x2jO+SN5SsnSvzl/vyMCvUdH44VXY4VXf69r8IlWZPXrUjy0qVxLslG8JTiidHpHXeeCmDPR9O0UKtFAOOWz/Hi7Oe5ZSIaH7mkLfQJME8FR/4/e7jI548Wp/X3n616fP5oiadzDh+5JMNrlidCb+v+h40pbjtV5omxmXdpnq5zNY8doxa3napwz1AtWC2dxZ+Xiej86qoEN4Z4IJ1i+4oDOYd/OV7i26cqnJ3hPEJF8HM7WXL5FuE+b7tiBq9enuC6kNfr+IqdozZ/vT/PfWdq0xpsPGb5/K+9eY4UHD5xZTubQvTSS5oa13XHeOmSOHecntk9pFVV3DmeldZfDrry/mCgQrGJinnnUsrUuDxkU64nx23uP1ubUSh6Ll/BjlGLHaMWW7Imb1mdImbA46Mz23Y6VnT59qkKB3MO95+t8eSYXff95gnb5x8PF2mLaPzutraL3ujNyZvb2rTBvlzjX0/rMiavX5m8aFftKcNVj88cnn4omuIreGrC5o925fjMdZ1c033xD9XehMGNvTG+P1Dl0AXqMyBY7dzSFiEbufhtPGd7/H8HinU5vWj7iqcmHJ7O5flOf4XXrIijo/HEmF23nirmZJFrGBN2MJh1tm7qjXNDbyxUbZgiCAufPVzk04cLMxrxooDHRixsTxHVg95WYQ4CdESDpqpP7RgPtW05W6dKLl8/WeYLx0r0ldxZr/4Gp9BM3r0+fLG14yt2j9v87f4CPxqsTitozJahBQcF3rw6GeoUpSLYVv6b/Xl+fGZmPcoU8K1TFXRN46+3d4RapV+XNnnFsjg/PlNdsAelno+CuTuVdqbq8YWjQRJ/vr33hSpuaKFPovVN1ubU2+G8y/9+Os8n9uRD15Y8V3XyBMif7s3z0Dlrzorw8rbPv50o01cKdyNaljBY1QQne2K6xpUdUV7SG67A3vaDgsw7+qszCkVTPAX7cg5/tb/AuRBddTVgazbK1SG2+tqjQdFmmCLeg3mXM9X6vnanipg/Nbk9d7yO7424EcycCmPCmn0wihsat65PkQ25alPzFD8cqPDPR4uznnu3azzYPjmYd0KvAP3qqiQb5qHv1mDF5Z+OFvmHQ0VO1iEUAaRNndevTLA+5M9XEdRRfvpQkR/OcyiC4H324t4Ym0MG9dFasLPwwLA1q4MnnoLv9Ff44rFSqPKHpBnUKYXtgbeQzEkwmrB9vtlX5msnyzNenmxVEV2jOx7u22pNnuRazBQwXPO5dyjcybmeuD6tIue50pswuKE3Rk/In/XBvMPt/RUGKrO/2du+4sHhGneEOPkCwWmtbdnIRQtSO6I68ZBFoPkWqjvQteD0T5h+YravGLE8JuzZfW5tzUa4pivcsGB/cgvt04eKdXsy/8nZGncNVUPXh2SjOm9ZM/Pj4mGUXZ9vn6rwjZNlhqc5KuN8NKA3rvPWtanQ/825ajCP8c7JGWHzbVXS5LXLE6Fuvr6C+87W+PGZGvk67LrYnuLzR0scuMjq8ZSVKZMrOuZmLEkzq3swqriKOweqfGlymXSx0TVCTx3viOk/L5RezMquz67xcFt+2ckjqI22JmVwY0+41SLHV/xwoMq+XPgn+IspOD7f7KuE+rBMGBpr0uZFA2VUJ/Sx3hVJY16GCteDocGl7RG0ENssBUcxWJn9NPpXL0/QHgsX4C1f8YOBCvty4W5WYdQ8xR39FQ7mw9cN/dqauR1uvXPM5junKpwu1+9hOWpoXNUVY3PI1SLHVzx0rsZ3T1caEu5jhsamNpPLQ4aNczWPe4dqHKvT6qki6Oz8lRPhunIviRtsaTMXXTfsut5hXAU/O1fjc0eKoRPpQqMUoT9Ur2iPcm333AwYbSW2pzhVDvfGT5pBL6RGfsfihsaGjBm64eTpssuOUYvRaZ4OvBDXh+Mll90hA+XKpMnai2yVeIrQWxubs5Fp9elqJEPT2BZyOyBn+7O+ccf0oCg/E/J8fs72+frJ8OMjwtqXs3lyzA59UGFbNjJnQ66Ljs+PBoOHg3qu0SQNjdevTISuLRqoePx4qBa64W29dUR1ruuJhW4C++SYzVMTdl37TFm+4t6hcCtQU202ukKG/IWibsFIEZxk+uejJXbO4+mGZuMqLnrsfsrWbIR3rU9xfU+4U2wLlTf5PQvTsTWiB40iGzkstDOqc3l7uG0SCJ6Ujxfdur8nyo7PjhBzoyDozL0qdeEPt4Ljh65Ji012T75lWfj+PI0SFLuGe0LP2R6nQ4b081mdMlibNkP3MXt6wuZAHVeLpjg+PHzO4kzIeilD00I1dZ2J/TmHJ0ZtCnU8hKMRDEF9cW+4k12+gt3jNg8M1xp2f+qI6lwTsrWHMzm1oJ61dhB8H87WPA6GeM1pMNkyQYLRjJwuu3zlRImfnK2FOha8UFm+YjDkB2vM0HjlsgR/eFmWt61NsTq1+JYsIQjVzmQvmDBMPfjVKF0xnctCLoV7SrEv50yr+3RYFU+F3n7piukXbYkwbvkUbD/0TePqrhh/9sJ2PrApHbrwtREMTQt9Ii1n+5yeZR3YC7uioUdtOL7ivjO1OZto/uSYfcF+N8/10qXhj7tPx+5xm6PF+oY/Q4NNbSYrQ87zm7B9do/ZoUfM1JuuQXdcD/1aPFfzOFp06xomp9i+Ym/IRrkd0eao65xPdfk0y9s+3z0dnLhZbM2gnqvs+OzLOdyyPBHq65OmxiuWJVifiXB9T4wHh2vsGLXoL3szPlE239oiOr3xYGxJNmKQjmjEDQ1TC544fAU+wdOx5SksX1FwfAp20NY+Z/toTI47CPH+0zWtoQGyPaqzJeQ2Ws72OVly56Rdhe0rTpZcHF9ddHUiEwm69UZ07bwBtOopTpRcSq4fugfONV0x1qZMru+t8sDZoF3EkYJDs3TnmBoTsSLE7CdfBeFwtgdGtmWjobdK3MlGlnNlqOLSX3axPBVqhXN7ZwwdZtVT6LnKjs/RgsNIrb4vioiucdU05gGeKrnsmahfC4jpiunBieWOkNtSJ0teXeuxnsnxVejtxGz04g9VC82sg9FUMdtXT5Tpn+US9EJQdBWPjVrUQn4QQfAksSFjsiaV4qVLY+wes9k97vDUhM3eCZtztdkXg9ZTzNBYmzLZmg3a4a9KmSxJTM32MkhPzsEytODf5qvg19SQ1JqnKDk+BUeRd4JgFDeC4t8wtMlfjWBoQXO2JSE/KAYqHiO18E/s0+GroHYjZ/sX7fZraNAWDWaV5ezzX82OUZs3rAwfjCBYar91bZqXLUmwc8xi97jNU+MOT+ds+sv130KcDm1yVSFMoXhlcubbbE+GbcyEH3VTcf05rcd0VdCTrOj4xI2Lv2aXJAx64kbdTo1BMMJiqOrVfR6bqWtcFnKLFOB0xZ2TLcuwkqbGhkz4yfWDFbeuP4dncn1Ct6RIm9qiOyQ062A01aJ870TjZu00E9sLuqk+OWZxY8geN1NMXWNjJsKGTIRXLPM5XnI4lHfYNzEVkhxGLa9hN5ruuM72zhjX90S5tD3KhozJ6pRJW0Sf9fDOqYGzzS5haCxPGkRDz3jTefeGNC+fRqFyECTDTaTvjoWfjZU0tMlgdP6v+dm5GseKDmtSxvQG/U4OcV2eTPLKZQmOFRwOFhwO5ILX7tMTDgOV+Q9JOnBZR7iti4Lt0z/LJ/SIroU+sacUDE3OP5tL/eWgi3dPiK81NNjcZtY5GPlz0svO1GBLyGJxZ5rz7+ZC0tRYlw6/8rI1G+E/b8lQmEZjq7CfHYYWPNyGkTCDoeWLyayC0XDV4/b+CvedrbXMts9cU8BAxeVrJ8tc2RF+ZtEzaUBnTKczFuPqrhhjtWBQ67GCy8G8w5PjNrvGbMatuVmJeK5sVOeGnhivWZHguu4YW9pM0nU+GdYqb7uEqYfudA2wImnytrXTe5v5SoUOEJoGkZCF6HFDu+gq5lDF447+Cpe2R0LXbjzregi6v1/ZGeWKzigFx+dE0eVoIZiTNrUSOjhPIUnXNC4NuapQcPxZF163R3XSIR8UfKBvHlbZz1Q9qtNYBVudNuFc/bb3Jmx/TsKfoRG6KLjg+AxVG1ueENM1liXCv6cub49Oa0UMgppGBaGOl4Z9jqVveAAAIABJREFU7onpGtO47AVhxv9cy1M8MFzjW32VWXXyXYhKTjBt+47TVW5dn5rVTV8DuuMG3XGDa7tjjFvB1O1jBYedYxYPnbN4esKek5oOTQuO8L51TYrXroizNRsl1exHkOZYTIeuafRR0mDa9VBzdeLO1LWLrgIp4Hunq1zdHeM31iRDFxE/H42g79QLO6Nc2RGEpL6Sy7Giw1MTDg8N19g74cxJcekUXQuGD4eRd/xZlwN0x/TQ/Z0UzEsD3HHLn9aBmOV1LrQtOn7dR0poQNLUQzXtDK5BMTJH21JhRafR/BfCB5dnmovPDkNjUbWU0ZhFMDqYd/hGX7nuJw0WgmCCusc/Hy3SG9e5ZXn4IaMXohFszXTFolzdGeVlS+K8cZXD3gmb/5+9+w6T7L4KvP/93Vyxq6tzmJzzSJpR9khWspKNLTkbMGBsjAN4YfGLlwewn+XlXYINLDZes8DCLjY2LA44GyfJsoyiFUczGk3Q5E7TsfIN7x+3WxpJM9O3pqu6urrP53nmsZ9RT9ft6lv3nnt+53fOt04U+OHpUs12BNqaYk+XzS+tS3J9l0N7xEGYi52lKzJNut6uiJaZGyh6fGrfJF2Oxo09sZq0ktBUmE3ZmbXY3mpxfbfH7X0xHp+eF/ijwVJdblyWpiKPXhgvzz0wSlta9B2TQcBIjQuSz6WaNgxAzXvW5N06dPhX0GLNHujPKHhBw7u1Gxpk5vCg0ShKqSV17Y8Z6uICo8Gix1ePF7hnoLSgioIXkrIf8OhImY/vnaDiw619sZrupFIqnDbfE9fZ3Wbzqk6Hh4ZLfP5InnsHinNaYrN1xWt6Y/z6phS726I3I1sKDKWI6c13cYMXC+CjeGq0zB8+OYEbhF2ca9lnS1NhbVR7h86OVpNXdTk8NFLiy0fz3DtQqmkGaWVCj1RIXvEDhkseZ+Z483S06MvCAZDz6n+zLnhBVdfpWn/ey35ApRbThs8SLtlG/xyW/aBu8x6j0pVqymupH1R3/jS7FlOrPjByA3houMwXjuQaHoEvdAUv4MeDJaYq45zMu7xxZSJy6rcacUOxM2uxscXksjabb5zI81f7Jxm8iKdRXcH1XTa/sTnF5e3RJoMvJZqCJnzoA8KbQ9TMgQ88PFLio4+NcWjS5Z1rEmTt2mcN44bGlozGqqTBZW0W3zpR4B8P5dg7XmGu91JFWHgd5ZhzbsCxnDfnAa6WriJ3YYbovbvmouJHr1kDqHXLGq+KgDwqBbPO/nvJMVTRJ61eNEVTXk8rPg2ZKdco6YsJjA5PVvjXozmea1BL9WZT9AIePRNuuX/0TJl3rE7ULeBw9LCvx4qkzpaMxR8+OR55ZMSMHVmL96wPM0W1OkY3CDAa2Km6lhQXt/a/EBS8gHwVtR5+AE+NVfiLZyZ4ZKTEL65NsqfTibwjrxpxI9x63Rsz2NBi8un9k9w716VhReRGnBMVn+enarCUV+Xhzs8iRXWvEdT4mIKAOQe5i0UzXjuKXlDzGrGFrNWuMjDKuQH3Dpb4+vECS+h9mrOKH3BkyuXzR/I8MlJmT5fDXSviXJKtzyiQNlvnjv4YbbbG7z42xo8j7jDpcnRevyzODd1O5EG4Myp+wN7xCk+Oljkw4XKy4DFS8il6Pm4QLi+Euxs0kiZkTJ2srdFha3TFdVYmTLZkjIaO+ojCD5hzVqERAsLt6BfTaPJE3uMrxwo8OVrh6s6wKPtVXU7NCzJnauhu6YnRaev8iT7Bt08WLro+RUHkXT2Tlejz+i6k4odLD1HNxy5oQ1V3Q651PVA9bhUBVBU0a6p+mxqiCgKa8r6Zc4PIY64Wg45qA6NnJyr80+FcXXpSLHYB4e6Mx0bLHJxy+e6pAjtaLW7udbiuy6EvbtT0acLSFFd12PzBJRk++MCZWUdHKAW7223eWOVOpJGSzzdP5Pnq8QLPTbiMlX0mXZ+iG3a49s8aTDpzcTKmU8qWHv6voyu2ZSz+/po2kubsb4JS4Z9G8KkuJX8s5/LsROWcmRql1Lwty50p+fxwoHjRN72iFwa+z+dcfjRQYlOLyWv6Ytzc48w6nLZajq64rM3iw1vT5FyfH5y+uJEZCtiWidjDaHrH3FyV/SBy12gFJOchMnL06jrF17xQuk6qaUEwM2OxkXyqW5LaN17hwHlWZnRt/rr/75+o1LU7+0LT4VQRGJ0p+3z3VCHy0Epxbn4Q7n6ZKPscnHS5d6BIb1xnZ9bium6Hq9pteuN6TZ5uTE2xu83m93e08K77R5ionP9D2RvTeXW3zeoqbnL3DRb55L5JHhwuM1DwZn2Cm2k+ViFc1uGsz3xcVzR2M200rh9EnlYO4YyoT+2b5NB5brpKzU8X74oPZ8pz73uVc8NRAoenXB4cLvHp/TqXZC32dNlc2+mwOqmjanTuXpK1eM+6FKcLXuSZcGdrd8LNCbMJCD+Tx+c4Iw3CLf+RTw+lyNSh5vDlUqaqKrs33OBt7VEE04OngyCIdL7FdFVVN/d68F64dkQr4vr3U0X+x/7Jc9YFKubn4TAAim7AyBLKGHU6erTAKAD2j4UdrgtN8jSx0AWEwcGxvMeJgsfTYxW+drwQDijNWOzptnl1l8OKhFFVB+KXc3TFtZ0O71id5NP7J8/7devSJtd3O5Ff6xvHC/zp3nEeHC43zRNmLZT8gNEqMqZ+AIMlr2GDK+ul7AecLISjHp6brPCdkwVaLY21aZNXdzu8uttmU4s5pwDf0hS39DrcP+Rw7CI6RG9uMSPVthXcgBN5t6r6q/MZLvmRM4oK5mU4Z5utV1WoPB+9leZq5vo5Vg5otWf/2ZKmoq2KHkL1UPZhpOizNhXt60vTI2rq2edLvFJvzIgWGA0VPb55ssC+icV1cV8o/ACm3IAp1+Nk3uPAhMt3TxVpMSfY1mrx6m7nhSWLiwmSsrbO21Ym+Pzh3DmH/JqaYk3SiNxe/5nxCv/j2Un+Y6i85Dqel7ygqqXkVlubl+WSRsq7AXk3HLfw3KTL/YNFPrVPY3XK4MZuhxt7HbZlrIsKkpKmxs8si3PvQIlHq9xIsC3iKJCc6/N8rjZd5M+UPApe2H14tp9WASsijmWYiy5Hr2oZ6XjEGVqN5gYBp4ourfbsdWQtllbzxpXVKvsBQ1VcO1osRcpUyD6n+dWfiJAxCgJ4dsLlnw7ncJfYTbARZp6ECp7HYBGO5jx+eLrIx5/WuLLD5q2r4tzQHauqH4auYGXS4Pouhy8dy7/iv7fbGhtazMhDb794NM9DI6UlFxRBuJRUzY2jw9Zoadb9/Reh7AcMlwKGSz7P51weHC7z6Wen2JIJO6jf3h8jW+Xy0a52m/UtBk+OVdfhfUfEHWmTlaBmGb2KH44EKnvWrBsYNAXLEmHQUs9M/MqkEal2b8YzdRxqW0ueDwcnPDa3zP61lqbojul0OBpD89BU81yKXsDxKgr8222dVkuLPOxV1EZ/3Ji9F9lgyePrJ/I12bEhqlfyA86UfY7kXL50LM+77h/h7h8Ocs/pYlVFwClTcU2Xfc7/lrE0lkd8ch0sejw6Ul6yBfgz6e2ou7uWJYyqxgAsJhU/rAN5fsrlOyeL/MbDZ7jrB0N84XCuqiLUmK7Y0WqRrbIj89aIhddTbm0Kr2ccmnQjBzoxXbEpYmfui7UmZUTeUDFU9Oo20b3WKkHA0+PRsogK6I/rkbPi9ZB3Aw5NRj/PeuN6VXMZxdwZmqI/rl84MAqA56dcvnA437CJ7uJFM8s4Pzhd5C33DvGX+yYiX4CdC1yAk4aiI+LN+8iUy1DRW7Lnw0yhbtTREUlTY23KrEtjz2YREO7kO1Py+clQkd98ZJT/8tNRBqqoZVmTMqvKvBmaYlNL9IxRLQOjZ8bPvQvxXMzp3aP10hPTWZE0ImeDf3qm3DSfbdeHJ0ajL6+uTBrsyFY3lLWW8p7PgckKQcR2DmuSBssibB4QtdMb03AMdeHAaKTk8Y0ThTlPnBa15QZhkefvPTbO/z2Si5Q5MjVFp6Ofc4unpavI7fVHy37DW+s32kgp+i4pRdg0c9k81JI0Ay+AgYLHPxzM8efPRA/s222tqjqZdSkj0nKzF8Bo2asqSJvNIyPlyDsXDU1xU69Ts9d+uUuyFt1VzDm8d6B5dh1X/IBHRirkIr7XPTGdS7NWzWfBRVXx4WTB40gu2rnW5uhsaDHJNulsxma0KhluGLngO34i7/G5w7m6NOgSc1f0Av7wyYnIu8IMFW6LfzldKaImNFyfpnmirJfhks/jVRQCX9NhsSFtLKlBjBcSEC6x3TNQ4r6IzUfjRhXDWYHtEeuLcq7PkSkvcu+hKJ6dqHC64EXqvWQouLzNor9OmYE9XQ59VXzv758u1uU46iEAJioeDwxH+yxqSrGrzeb685QUzIfRks9PR6Iv/13Z4bC5zkut4kVr02E/wfNeaiYq4ZJNNWuiYv4dmKxwsuBGCl4DwD/H7dkLgshFrTF9/poSLlTjZZ+nxiqcKUd78svaOrf2xVmdkqzR2U7m3cijhaIuP8yIWl+Ud2tXeD3DC+DegWLkOrSUqfOzq5M1PQYIs2a72y1aIj71HJmq8OhI82SMIPz9fedkIfLXb2oxub0/Rk+DandGSn5VzRKvaLe4utMm0YTDZ5vR+rSJfqHAaLDo84XDufk8pkXD1MLRBkljfiYhlSKuAnh+QOEc07wrPuf8+3PpjmlVdcZejALgyHQH6KjuXhHjui6n4d13o2i1NBy9/ueuG0TvIp73gqpGsUTNGE25AYcma78L65snCpH7LsUMxc+tSdBewyUTBbxheZyNVRQb/8uRfFM0WT1b3g34xvFC5KVLTcHtfTHeujJR85E2UYxXfB4aLnEyYjNRS1O8dWWCazobl+VaSjakTbTzLaUVvYCfninzUMSUn3iRIrwoP3xHDz+8tZs3LI9j1/EmY+vhNtTZvn/FDxgs+edcBsu5fuQtrGvSJsviOo18gFkIocXRKZd7ThfxImYykobGb25Js6fLWdADdbdlTL55Uyc/vbOHt61KkLG0ug2+TJuKdifak/tw0Y9cjxR+BqP3MDpfV/K5eGikzL6JSqTAL9wxZfCbm9M1ea8VcGmbxe398ci7msp+wGcP55tu2GtAuHP6q8eiZ406HJ13r0/yphXxhmS/TxQ8/v1U9CXL7a0Wv7IuxY5Wa0Fc+xYrDdiYNs6fMRot+/zr85ItuhhJU+OaTodlCYOdrRb/8+o2/uqKLFtaTWyt9gHSzT1OpMLpks95lwwmKn7kbre2prijP8b6tNnQD2mjLxBTbsCDw2UejFjfAOHTyP93aYabemxidQyWNRXWrlzM97+lL0Z/3GBd2uR/XdPGZ65sY0erRbzGx6sICx23RRzyeiLvRs4KtDkavfFoy5ZTlYDn6xAY+QH8w3NT52yoei6J6azRbX2xOc3AUkBnTOcDG1Psbou+A+urxwo826SdBMfKPn//3FRVvaDWp01+Z3sLb1uVnLfM/ozjOZevHIueUQR43bIYH9nWwo6sVdeHUn362rEUrUgatNphkuEVd1Q/CBuUfetE9AhcvKjN1rit78VdJi2mxs+vSfLl6zv5z1vSrE0bJIzaDABstTR+Y3M60lbcvOvz2HkKhoeLPs9OuJGLqn9mWZy7V8Tpjul1yyY0g73jFb50NF9VT57trRZ/fVU7v7wuSV9cx6pRsKypsCVD1tbY2WpxZ3+s6uGuSUNxTYdNx3QWR1eKu1fE+c7NXfzejhbWpUxSpprz71wBfXGdW3odtmRmP0Y/gH3jLmMRe2dty0R7si55AScLLlN1Gnn+b8cLPDNeidwYt8sx+NPLWrmuy4m8vf5sugpHjHxka5qfWRaftcHkjKLr88n9E7jNli6a5vrw9HiFLz5f3UahDWmTP7o0w29va2FtKmxpMJdz21DhZyhtahc8/9wAnhor82/Ho7fBUUrxxhVxPn1Fljv747TZWs0CGF1B3AhXHq7ptLmjP7akmtLO2JwxX3hP9Y9+9KMfPfs/Tro+/+dQju9WkeoTIV2Fb+5HtmVesn6tCJsoXt/tcOeyOB22xnglCG+oipdMoI/C1BQdtsaf7GrlNX2xWdfKA+BU3uMTeyfOuWTmBmGH5mu77EiFmrpSXNVpY2qKozmPvBfg+dX9DDMU4Tp6f1zn59YkI13MHxop8/3TRaLcJ6/ssLmm0yYZ4YP+0HCJb52Mft6X/ICCF7AyabAmZUYe6pgyNW7pdbis3absBy8Z7usz+/uoCM8BR1fEDY2MqbEqZXLX8jgf2Zbh97Zn+JllcXSl+P7pYuTfy6s6Hd68MvGKwtSYrri60+HtqxN0x3QGiy8OSq323DUU9CV03rkmwfs2pnH02X8vx/Mu/3BwimcjbgR5bX+M1/TGZv19TLoB/36qWLedWG4Qzsa6oSdGcpabJYRDQbO2zqu7HSYrPkfz4cPKbHG3ocJM9Y5Wk9/fmeEtK5ORzncIf3//eHiKvz2Qi7wBI8z2GfzcmmgF4w8Ol/nRYIlcnQJQCMs/Boo+r+mLVVUDmTDCDP81nTa6UoxXAnxmBrSq8y4t6ir8DNrTrU4ylsYV7Ta/ujHNW1cluG+wdMGAe6Lik3fhmk67qh5nfXGDO/vDjRzjZZ+iHw6fUYRTKmZ7hzX14rUjaWhkbY0tGYtfWJPgozsy/NaWNFd0OAwUfR6vokfUYvDG5Qmu63YwNfXKkSBjZZ+vV7FeK16UNjVu7nHOuSUewgvKyoTBf97SwrvXp8Ib8YkCPxkqc6rgUvTCtf6KH+AFL950FOEH0dYVcUOxLWPy4a0tXN1hRyogLPsBT46V2XuB3jvPTbrcN1jibauibSu3NcWvb0yxp8vmc4fyfP9UgaGST8kLKJ91/DPfTFczaVqFrilMFQZESUOxLm1yVadd1aDLheKpsTL/eGiKLS0my5PRt+RrSrGn02FPp8PBSZd7Boo8MFTiybEKIyWPig9+8OLMLaVAQ6Fr4cV8eUJnddJgc8bkkqzNloz5ssJuxZaMydqUyf4ISySagj3dDn0XWIJqtTTeuz7Fu9cmeWC4zDdOFLhnsMiJnEdx+vd+vnPX0sJzd0OLyS+vTfL65fFIWZEAuHewVFXn/W2tVqQgtdpOxBfjGycKfP14nnesTkYqvFeE3dI/vjvLm1Ym+D8Hp/iP4RKTlfC9nXlfNRU+oDi6YnXS4M7+GG9YHmdFlVnCozmXP316sukHQbsBPD1W4ZP7Jvjd7ZmqNjko4JKszSVZm5MFj58MlXhgqMTe8Qonci55L3ghs6Oml5o6bJ3u6eaZ21otrumwX9h1WvQC/mMozl88c/6h3V4AD4+U+NsDk3xkW0vkPnIQZnfeujLB3cvjPD5a5oenizxypsyz4y4TFR83eHEXZ3jtUNPnC2RtjRUJkzUpnW0Zi0vbLNamDLSzPjA9MZ1XdVp8/rBaUmOfdmbNF2rOXvIpqvgB+8Yr/HSJRYq10mpr3NYXi/S1LabGTT0xbuqJUfLDzrt7xyo8N1nhWM5jpOSTdwMqQYClKdqscJ7ZNZ02l2StyKn2gPCp9bOH8hd8mjg85fL900Vu6XVoj9gATSnFpVmbS7M2E5UWHjtT5umxCoenKgyXfKYqAdp0rUuLpdHhaLTZOl2OzrKEwbKETm9Mb8jukFpxffjeqSL/MznFb2xOX1QztjUpgzWpJL+0NnwCnymGL7g+5SDAVApLV8R1jYwVZomiWJ0yuKLDihQYdTo6u7JWpOPXNcXVnTZXT++UOTLl8sRohYOTFY7mXIaLPlOeT8UPbyJZW2dNyuCKdpsr2q2qnujHyh7/frLAsSrmRW3NRKt/y9ep8PpsAfCxx8fZ3GJxRUf0QboxXfHqbofruhxGyx57x8PrwljZxwsC4rpGV0xnfdpgRcKIvGx2trGyz+8+NsbhqWjtPha6sbLPF47k2dlq8Ybl8Yu6rvTGdO5eHufu5XEgfDgp+WGwo6sAW9OwZqm3MzXFG5Yn+PT+qQsGFiMlny8dLbChJZwjWO3yqamFfZl2tYWfwyAIGC37nCn7FL3wAcVSYOsaSVORsTSsCO+Joys2tlhsbjF5bInEAram2NpqvTCk/SWBUd4L+NrxQtPtTFgITC3sG7LzIlrO25piQ9qsyxyfshfw46HirDVjZT/g/sES3zhe4K2rEpE+QGdLmxp7uhz2dNWvi+9CNVLy+fyRHN0xnZ9fkyA9x/X5hKGRSM59jX9Z3GBXm82/HMnPWph6VYddVcbrbCuTxnQ9U7SHgqjcAL51osjDI+XIdVy2plgbsV9U3g04OA992k4VPD7y01H++so21rdUt2lBU9Bm67yqs7Z9dyYqPn/97BRfP15YVFmBYzmXP356gr64zhXt9gs3uoulKUVMp6oMlK5gS4vJ9laTh2fZ2b1/osKn90/R7Rjs6bIvKsCdoZQia+tVzxQ8l2UJg2u7HB4fLS+KoHk2G1sMMmctd79w9Z2ZAVVNsyzxIkfXprdTLpzsR1i0WuaPnhqnFOHi99xkhc8fyfPEaDlS117xoiNTLp95dpJ/PpKPvBOp3uzp+XibIzQ7XJc2FtTogSCAfeMVPnc4x4EqdkutSxuRMmpeAGfKPifnaXL5jwdLfOTRUQ5ONj47M1Hx+afDef5s7zgTUQuLmoQ/vaT20cfH+emZcsOCPsdQ3DWddZrNIyMl/vjpcX48VIo8Y6/euhyNy9utyLVqzW53+0uD0hd+atcP2DtWmZcnqMWo7AU8MVrh4ZHSgrjY+EG4PPYneyd57Ey0G4sfwH0DRT69f4oDExUJjqr0zHiFj+8d538fnOJkPtpIiHpbkzLY3WbPGq4/fqbCIyNlRsvn7nU1nwLC2pdP7Z/gvsFSVe/j1owZaWdRyQuXr6P2oaqFfzte4HceHeXp0cYNah0senzuUI4/eGKMoYi7/JpNxQ/48WCJ3/npGD8Zqm/R9/nYmuKW3hgpc/aT0QvgnoEiH3t8jG+fLCyIBytzOvO6M7s0xpFc0W6/ZCnzhcCo5MO3ThYa/jTTrEp+wHdPFXjPT0b47KEc+ycqDSto9IMw+/OJvRNVdy/PewFfOprnE3sneHqsHCnTNN+i7L5olAMTLn/81ASf2DvOY2dKkQdc1ktvXGdrxiQ2y97eb58s8OFHRvmbA5M8OVom5wYNeY+9AA5PVvjLfZN8+Wgh8liNGZsz1oUHQE4reAHPNeAh8F+P5nn/g2eqGhlSCxU/4MCEy6f2TfLRx8c4VcOhuQtR2Q+4d6DI//PIKF85ludUwZvXYFRT4XLUqyKWFvhBmFX8vcfG+IeDUxyadBu+xNmfMLisbfF33I7pih2t5kvKR17Yrj9e9vmvT4wzGLEDsngln3CUyo8Gijw36YbDWaeLZuerwLjgBTwyXOLjeyf5h4NTF3VzK00X4Z8ouLRa+vSICC3ydvR6CAgLIE8XPL5/usRPhkpEeRCs53b988m5AT8drfDcpIupFAlTTQ9Bnd830A3CHlUPDJd4aKQ8a53RcMnn3oEiByZdFGBoYcdusw6NSc8l5wY8PlrmU/sn+cKRHMMXkdH44MYU61usWbNGZ8phXdgz4/Pf1PBYzuOHAyUS0wWxaVOLXJRdrQAYKnr8x1CJjz89wWcP5xmbY0C2ELfrn4tPOM3+oeFw63yLpZE0tLpOIni50bLPd6q4pgyXfB4eKXOi4BE3NBKGRkxXL9k1Nh9KXsCpvMsDw4t/Asb2Vot3rUu9pFWNAWG0+nzOZd+4LKPVwpQbFrHfN1ji+m6HO/pibG+1WJE0yNZpxELZDwtJ7x8Kl8LO18wxqoIX8JWjBQ6Mu7xxZZwbuh3Wp02ytl6T5pSz8YKAyUq4y2K07DNS9Dia83hstMz3TxUjZ+OqWSmp5apKyQv47qkij4+Wuaknxm29DtuzFisSRqSeNhcrAApuwIm8x3OTFe4dKPJvxwqciRhkVHz47qki9w+V2NPl8Nr+8NxdnTLosLW6XKCLXsDxvMuPB0t89lCO+4dKF5Vt1RVsbIm2lFZw/YaWDRzNufzWw6O8tr/Em1bG2Zm1WJ4wqt70cD5+ACMlj/0TFb53qsjnj+Q4NOnWbHk34MV2DFG/tlGO5z0+uW+SHw2UuHt5nKs7w631bXZ9Rhv5AQyXPA5PuReVmTtT8vncoRwPDJW4sz/G9d0Om1sseuP6RTX+jMoPwvqzYzmXZ8YrfOtkgW+dWPz9DK/utIm/7EQwANwg4J7TpabtfLpQjZV9vnw0z3dPFbgka3Fdl/PCBbAnppO1tDntQpj5AB6ZCk/krx0v8I0Thao6MV9IQNhR9sCTE3zjeIGbex0ua7NZkTDojulk7WjbP2d7jcp0k8PRssdYKQyEhqcDoYNTLgcnXQ5OVhgoeJGyRGc7mnN5dtJl0vUveBH3Atg/Ufsb5VDR558O5/j2yQJXd9i8utthc8akL27Q5ehkLDWnbEFAWN82Mv2enS6EAdF/DJX5yVCJIxe5FTvvBnzrRIHvnSqws9Xihh6HS1otVqTCc7fT0ef0u/eC8PNxNOfy1FiZ754s8r3Txcijac6l0wlbQcx2VAHhw8uROm/Vn03Zhy8ezfO900Xu6I9x4/TDx7KEQbujVd3Xyw/CIaWn8h5Hpio8OFLma8cLPDNWqemSeED4u3t0pERmluaEZR+en3IpNHhJueQFPDhc4snRMlsyJjf0OFyaDR9We2I6bZaOc5GjQfzpc3mk5DFY9DmRd3litMxPhso8NBx90PTZAsLecn/xzCRfOlrgum6Haztt1qUNemMGnU6YTZrL5TcgzNKOFD2GSuFx7xuvcN9giYeGSxeVsW02mgqbbL6896AKgiDIuQFvv3eIr8sYkLrSphuDbW812dZqsS5l0BM3aLU00pYiZWjEDIWtKUwtHBuiCG8ibhBQ9ALybjD9IfQ5VfDYO1bmJ8MlHhou172mSRHWrGzLWGzJmKxOhTf3FksjzAaFAAAgAElEQVQjZYZLhrausLRwm+vMh9YLwPMDKkF4Ey94AXnXJ+cGTFR8zpR8ThY8jubc6T/hDb4WP0/W1rimY7q77AUuIn4A3z1Z4HSdl5INBatS4VbezS0mK5MG7bZOygw76CaNcPlVn27gp6kX3z+P8AJfnH4PJys+42WfoaLH4akwIHpmvMLzU27VAWQULVY4bmTr9LF3Twf3LVZ4kU4YYSfgmXNXU+D74blb8gJyXsB4Ofx9nyqE2YwHhss8OlJipAYX4Zt6HP71+k4Ss6QByn7Ad04Wef0PBuf8mrWUMBQ7Wi0ua7PZ2GLQGws/W2lTI24oLE1hTC9rekFAZbq/zmTFZ7LiM1zyOThZ4YnRsJD+RL4+5wGE7TmuaLfpiV84MCq44UDyRtRzXYgivDZszVhsazVZkzTojRtkrLDnT8LQsDUwZq7D0xMKKn74GSx4PlNuwMR0RvtozuPgZIV94+FnsB7LhglDY33aYHurxcYWg/54uJM0aWjhcr0eniO6CnuNQdiHyfOhErx47ci7PhOVIAyiC+FxH5hw2TsePnwuJb1xnW/e2Mnml40RUkEQBAMFj0u+dorB4tJ6UxrN1hUdjkb/dPag3dFoMcMbTGz6BqNUuGOw5IXjWkang4hjOZdDky4FrzFFshAuXbTbOl0xjQ5HJ2NqJKYv4oYKgyNFmBFyfSh4YdPKiYrP2HQjssGix2Rl6WYqbU3RFQt/9222RpulE5u+CZpaGBxVgoCKB5UgIFcJmHSnA6KSx2DBb8guSE2FGZplcZ3uePjE3WprJHRFzAhv4IYKG2CW/IApN2C05HO66HJsyuX5nFfz3Te/uTnNx3ZmZl1umOnh89uPjtb09WvJ0ML3dyY7l7XDWhNbUyilqPjBC0HRcMljoBDe5CYr/oLdmLCQaQqyVtg0s80O3+/E9EOqpYU9grwgDPTy3vT1q+QzUAw/g41YbUmZGt2ORtv0+dFqajh6+GA1U9M6c+0t+WHD3Zlr72AxfKCqZvDuYnTX8jh/cXn2FWOQDD8Im0xJUDT/Sl7A8ZzH8VxzvvdeAANFj4GiBzTnZO5GK/nBdJas0UdSHT+A04Uws8dIo48mdFlbtMnjBS/gmfGFXVDq+nAy781bn6WlLixL8KeXj5rjWjaTKTywwLJxzWRPl0PqHBcNzQ8CfnKR66BCCLEQxPRwhmCUeq2CG/DkaHPc/IQQ9dFua+xqs4idoyGs5gEPDS/spychhLiQ9WmTrpg+a0uJmcyAPGULsbTtbrfpjZ97l7Xm+gGPLvI+BUKIxW1Pl42lz96rqjTd4X8+mysKIRaeG7ud8+6q1AYKHifz8vQkhGhOGnBDj0OUUW8FN+CB4cXfm0UIcX7dMZ1d7RaJ88xV1J4eq9RtS6cQQtTb6rTBtowVqbP4lOtz36DUVAqxlF3VYdMfN87brFh7QooQhRBN7M6+OFl79m7ibhBwaMrluTo08hRCNAddwc09Du0XSDFrTzdgVpAQQtRCi6nxuv7YKzrXnkvBDfjBqeKCHIwshJgfa1ImO7MW8fMsowFoz0pgJIRoUnf2x9iUMSMuowV8Q7r7C7Gk3dDt0Bc3LjhORTs8JYGREKL5rEgYvHNtctZ5XRB2AH7sTIln5EFQiCUrZSqu77Zpdy58zdAmlvA4BiFEc0qbGr++KcVlbdYL4w8upOgF/PORfN3nCQohFq7L2202tZizDmg25DIhhGgmfXGd929I8eaVCdIXqBOY4QdwcNKVZTQhljANuLXXoT9uzPq1s3+FEELU2c5Wi7esjBOgeGC4xLMTFQaKHnk3QFPQammsShrsarO5scdhd7tN1tJm7XQNYVPHv3tuipGSNHUUYqnalDHZ1W6TMmd/mJLASAjRUIaCqzttfmFtEkNT3L0izlTFpzg9GVwpsDRFwlC0WhptthZp+QzCbNHjZ8p84UiTTekVQtTUrb0x1qbMCxZdz5DASAjRUMsSBpe2WbQ7OoowO1QrOdfno4+PSbZIiCWsN67zqi6bDkeP9PW1uwIJIcRF2JwxuSxrzdqgsVoB8PG9E/xoQDpdC7GU3dLjsLnFwoh4kZHASAjRMDFdsTVjsi5t1vx7f/bQFJ/cNykNHYVYwtpsjZt6YixLRMsWgQRGQogGWp0yuLTNxonQuboaX3w+z289PMpYWZbQhFjKbuh22JGN1tZjhgRGQoiG2Zg22ZW1avb9giDgrw9M8v4HRhiSuiIhlrQWS+PWvhhrUtWVU0vxtRCiITKWxrZWk2WJ2lyGBgoev//4GP/yfJ5xyRQJseTd2OOwq83GqiJbBBIYCSEaxNSYXkILYA6l12fKPv90eIr//swkx3IeZakpEmLJy1gat/bGWJ+uPsyRwEgI0RDDRZ8/eXqS+4fK3NEf4/ouhxVJY9adI0EQcLLg8cBwmW+fLPCtEwWGij4VP0BCIiEEwC09Ma5st6uqLZohgZEQoiECYKTk8dVjeb52PI+uFD0xnQ0tBv1xnbSpYWkKP4CCFzBS8jiZ9zg46TJc8nGDgCBAgiEhxEu0Oxqv6XPY2HJxu10lMBJCNFQABAH4QcDRnMvRnNvoQxJCNLHbeuNc0+lE6nJ9LrIrTQghhBCLwsqkwW19Dmur3Il2NgmMhBBCCNH0dAV39Md4VZczp+8jgZEQQgghmt7OrMXtfTF6YtG7XJ+LBEZCCCGEaGoJQ3FHX4xrO+05fy8JjIQQQgjRtHQF13U53NEfI2HMPayRwEgIIYQQTas/bvD65XEuyc49WwQSGAkhhBCiScV0xe39Me7oi1309vyXk8BICCGEEE1HU7CrzeLu5XG65lhw/ZLvW7PvJIQQQggxT7ocndcui3N1DQquzyaBkRBCCCGaSsxQ3NTrcNfyOFat1tCmSWAkhBBCiKahK9jeavHWlQlWJms/2UwCIyGEEEI0jZ6YzptWxLm+e24drs9HAiMhhBBCNIW0qXFrX4w3rUhg13gJbYZW67U5IYQQQohaszTF7jaLX1iTpC9eu11oL6d1xSRpJIQQQoiFS1OwJmXw82uSXN5e211or3itjWmzri8ghBBCCDEXHY7OW1cleN2y2jVyPB9ta6tV31cQQgghhLhIaVPjtX0xfn51gpRZ/1UubWtGAiMhhBBCLDy2rriqw+a9G1IsS9R+a/65aFsz8/NCQgghhBBR6Qo2pE3etyHJjuz8JXG0lUmD9DykpoQQQggholBAf9zgfRtS3NwTYz73z2tJQ2NzRgqwhRBCCLEwtNka71mf5M0r41j6/LYV0jQFV7ZLnZEQQgghGi9lavzs6iS/sCbZkBUtTVOKK+vcE0AIIYQQYjaOrviZZTHevzFFV6x+TRwvRNMUXJK1aj6dVgghhBAiKlODPV02v7Ulzao6DIeNSlNAR0xngzR6FEIIIUQD6Ap2t9n83vYMmxvcRkiDcP7Idd2ynCaEEEKI+aUUbG21+H8vzXB5uz2vO9DORQMwNMUN3U6DD0UIIYQQS836lMmfXtbK1R123cd9RKFBmMLambXocBpT6CSEEEKIpWdl0uC/X97KqzptdLUAoiKmAyMFtJgal8u2fSGEEELMg9Upg89c2caeLgdjIaSKpr3QIMDWFa/pjTXyWIQQQgixBKxPG/ztVW3s6bIxF1BQBGcHRpri+i6blLmwDlAIIYQQi8eWjMnfXdPOVR0LLyiCswIjpaAzpnNtpxRhCyGEEKL2dmYt/vbqNna1WQtq+exsL+m1nTA0bu+T5TQhhBBC1NY1nQ5/c3WWnVkLY4EUWp/LSwIjR1Ps6bLJWPM/m0QIIYQQi9Prl8X566uybMss7KAIXhYYKQWdjs6tUoQthBBCiDlSwK+sT/Jnu1tZlzIXzJb8C3lFaqjF0rh7RbwRxyKEEEKIRcLSFB/bkeH3d2ToTxgLonljFK8IjCxNsaPVYnurzE4TQgghRPUylsZfXJ7l/RtTdDh6w8d8VOOcxURZW+MNyxPzfSxCCCGEaHIb0yb/eG07P7c6QYulNVVQBOcJjNKmxm29jhRhCyGEECISBdzaF+Of9rRzS28MR2+2kCh0zshHU9CfMLh7udQaCSGEEOL8FBDXFR/clOLTV2TZ1mo1TT3RuZw3JdRma9y1Ik6sSSM+IYQQQtSXrmB5wuCPd7Xye9szLEsYjT6kOTtvYGRqig1pU+anCSGEEOIlFODoij1dDn9zdRvvWptcNOU3F/wpumM6b1oZb9p1QiGEEELUljHd8/BX1if5zJVtvLrbWZAzzy7WBXNejq64tM3i1d0O3zxRmK9jEkIIIcQCFDcUWzIm71uf4vXL46TMxZElOtusi4H9cYO3rUpw70CRnBvMxzEJIYQQYgExNOiwdW7ri/G+jSm2t1oXXnJqYrMGRjFdsavN4qaeGF85lp+PYxJCCCHEAqCAlKmxNWPyzjVJ7loRp3WR1BKdT6Ty8WUJg7tXxLlnoMhY2a/3MQkhhBCiwWxd0R8P56e+a12Sba1W0zVrvBiRAqOYrri83eb2vhifP5LDlxU1IYQQYlHSFbTbOrvaLX5udYLb+uIkjKUQEoUiNxxYkdB504o49w0WOZrz6nlMQgghhJhnCkhbGltbTF67LMabVyZYvgj6ElUr8k9sauEOtbuWJ/ir/ZOUJW0khBBCND1FuNtsbdrkui6bt69Kcmm2ubtXz0VVoWBPzODO/hj3DhR59Ey5XsckhBBCiHlg64q1KYMr223euDLOnk4He4n3LqwqMNIU7MhavHVVgiM5lzMlKcQWQgghmo2lKdakDHa1WfzM8jg3djuLsifRxah68bDV0nhNb4yHhkt88WgeT1bUhBBCiKZgamGGaFebxW19MW7qccjaeqMPa0G5qKqqdWmDN69M8ORYhX3jlVofkxBCCCFqyNEVG1tMLsla3NzjSEB0ASoIgovK+ZwueHx6/ySf3D/JuPQ2EkIIIRactKmxvdVkV5vN9d0O13bai2bYa71c9D687pjO65fHeWqszNePF5BpIUIIIcTCsCyhs7PVYle7zXVdNrvb7CVfVB3VnBoUbMmYvGN1kiNTHo+Pyi41IYQQolGShsbmjMH2VotdbRZXddhsajHRlARE1ZhTYGRpiuu6HJ5dWeF0wWOgKI0fhRBCiPliarA6abK91WRn1uLSrMUlWYs2R18S4zvqYc4tLdtsjTcsj/PsRIV/OZKnINvUhBBCiLoxFCxPGGxttdjearItY7I1Y7E6ZWAu1a6MNVSTXt9rU+HU3eM5j3sGirKFXwghhKghW1esSOhsyVhszZhsajHZ0GKyNmUQNzTJDtVQTQIjXcHl7Ta/uDbJUNHjyTHZwi+EEEJcLEW4IrMubbI5Y7IxbbImZbA6ZbAiYZA0JRiql5pNh4vpitf0xjiaczmzf5ITeak3EkIIIaLQgBZLY03KYEPaZF3aYHXSZFlCZ1nCoDum48iusnlR07G5WVvjrSsTnMx7fO5wjlHpbySEEKLGFOH9JmNpnMh7FJusfkMBMUPRH9dZnjBYlTRYkzJZntDpjoV/uhydlKkt2UGujVTTwAhgedLg3euTDJd8vno8T14aHAkhhKghW1d8aFOa3e0WIyWfk3mPY3mP4zmXE3mPUwWPoaLX8M1AavpYu5ww2OmL6/QndJbFDXrjOu22TqulkbU12myNhCGB0EJQ88BIAZtaLD64McVo2ecHp4tUfAmOhBBCzJ2mYFebxS+vS9Lh6PgB5FyfiUrAZMVnouIzVQmYdH3OlHwGix7DJZ/hosdo2We87DNW8Zmc/vq8G1DyA6q5Tc1kfBKGRtJQJA1Fi6XRYmm0WjodtkaHo9Hu6LTbGilTI2Eo0mb4/9OmkiBoAat5YARhMfalbRa/vinFeNnnoZFSVSedEEIIcS4xXfHhrS10OOGcL01BytRImQAvzv4KgLIXkPcCil5AwQ0o+gFlLwyEyn5AxYeKH1DxA8o+lLzw770g/PdBEKCUQgGGpjAV2DrYmoapTf+dprAUWLrC1hWOpojpipihcKb/TuKf5nLRs9KiKHgB3z5R4L8+Mc4To2UkNhJCCHGxFPDL61J8YncrsRoWIgeAH4AfvBgUzfz9zKtohEGYpkCXTtKLWl0yRjNiuuLm3hglP+C/PjHO/vGKBEdCCCEuyoqkwW9tSdc0KIIw+NGnAx6zpt9ZNKO6j9hNGIo7+uN8eGua1am6xmFCCCEWKU3BH1ySYVVS7iOivuoeGAEkDcVdy+L8P1vSLE/os/8DIYQQ4iw/uzrB6/rjyCqWqLe61hi93JTr88Xn83zs8TGez0kDSCGEELNbnTL495u6WCHZIjEP5iVjNCNpaLxxRYL/dlkrK5KGVOoLIYS4IEtT/PnuVpYlJCgS82NeAyOAuKF4XX+cT+xqZZUER0IIIS7gt7akub4rJj1/xLyZ98AIwk6gt/XF+Ltr2ticMeWEF0II8Qo39jh8YGOKuCE3CTF/5rXG6OW8AA5OVHjX/SM8OFKiycbdCCGEqJOVSZ2v3dDFhrQpBddiXjUkYzRDV7CuxeSfr+/glt4YMjhYCCFEwlB88vI21qQMCYrEvGtoYARhY62emM7/va6DD21OYzT8iIQQQjSKAv7bpa3s6XIwpc5CNMCCCUNsXfFHl7byd1e3k5DUkRBCLDkK+NCmFG9dlZC6ItEwDa0xOp/HzpR4+49GODhZkbojIYRYAjQFdy+P84ndWXpi0ghYNM6CDIwAxis+//mhUT5/JEfRC2TGmhBCLFK6gj1dDp++IsuatCltXERDLdjACMJda/94aIrff2yMgaJHxW/0EQkhhKglXcGuNpu/uiLLtlZL2reIhlvQgRGAH8DTY2X+y0/HuH+oxETZl+yREEIsArqCnVmL/747y652W3YmiwVhwQdGMyYrPn9/MMdf7ZvgWN6jKMVHQgjRtAwFWzMmf7oryzWdtuxAEwtG0wRGEC6t7R0r88dPj/P90yVGSh6uLK8JIURTMTXYnrH4w0tb2dMlQZFYWJoqMJoxUfb5yvE8f3dgiqfHK4yWZHlNCCGaga0pLslafGxni/QqEgtSUwZGENYenci7/MPBKb74fJ7DOY9Jqc4WQogFK6Yrruqw+S/bWmT5TCxYTRsYzSj7AU+Mlvn753L8cKDIibzLZKWpfyQhhFh0UqbG9V0OH96a5vJ2C11mfYgFqukDoxl5N+DB4RJfOJLjvsESR3MuOXdR/GhCCNHU2myNO/ri/NqmFDtaLZl/Jha0RRMYzZis+Px4sMQXj+Z5aKTE0SmPiYrUIAkhxHxTQF9c500rErxnfZJ1abPRhyTErBZdYDRjsuLz8EiZrx3P88BQmecmK5wp+/iL8qcVQoiFxdQUa1MG71yT4O2rk/TKmA/RJBZtYDSj6AU8OVrmmycKPDRS5tmJCiekD5IQQtRNwlBcmrV417okr+2P02ItmHnlQsxq0QdGM7wg4MiUx32DRX48WOKpsTKHJl1Gy74MqhVCiBpQQIejc2OPwy+uSXBtl4MlO89Ek1kygdHZxso+j42W+Y+hEk+PVjgwWeHgpMt4RZbahBDiYswsnd29Is7bViZY3yLDYEVzWpKB0YwAGCh4PDFa5uGRMk+PVTgy5fJ8zmWo6EkmSQghImgxNa7ssHnbqji398XJ2rJ0JprXkg6MzhY2jPR4dqLCvvEK+ycqHJoMg6TjeY8p2dkmhBAvYWiwKmFy57IYb1we57I2C0OWzkSTk8DoPCYrPgcnXZ6brHB4yuNYzuVYzuNo3mWw4DFU9FhIbZLihqLT0clVfIZK0gFcCFFfLabGtZ02d62Ic2tvjC7ZdSYWCQmMIhov+xzLeRzJuZwuuJwueAwVfU4XPQYKHmdKPqNln7GyT6FOa3AakDQ1MpZGq62RtTQ6HZ3umEZPzKA7pvHYmTJ//sxkXV5fCCEsTbGhxeR1/TFe2x9jZ1ayRGJxkcDoIvlBwFjZZ6DoM1QMA6PxyovB0VjZJ+cG5NyAvOuTdwMKXkDFD/AC8AJw/QA/AF0DQyl0FaamLU0R0xUJQyNuKOKGImVqZCxFq6WTMTVabI1WS6PD1uiK6aRMDQUcmKhw1TdPM1aWrJEQonY0BT0xndv7YtzWF+PaTkdqicSiJIFRjQVAyQuYrPjkvYDCdEBUnP7jBmFg5Afg+QE+YSZI1xSGAl2FuzscPQyOHF0jZigShiJlKoxZeul7QcBb7hnmy8fy8/HjCiEWOQW0WBo39jjc3hfjui6HFUlDdpyJRUsCo0UmAL52PM/dPxhCckZCiLlIGIo9XQ539IcZoo0txqwPZ0I0O6PRByBqSwFXd9hsb7V4bLTc6MMRomEub7d5crRct5q/xSymK67vDjNEV7TbbGk1saWOSCwREhgtQi2mzjvXJHns4TONPhQhGmJ5wuCPLsuwf9zl2ycLfP90kXGpu5tVi6VxQ7fDrb0Ol7bZbGoxcXQJiMTSIktpi1AAHJlyufE7AxzNuY0+HCHm3W9vbeEPLslQ9gIOTFZ4aqzC908X+d6pIkem5DPxcquSBjf2ONzY7bA5Y7EubcgoD7FkSWC0SBW9gI8+PsafPj3R6EMRYl5lLY2f3N7NmpT5wt+5QcDxnMeBiQoPDpf57qkCj4yUyS/hZbaYrri83eLm3hi722zWpAyWJQwkQSSWOgmMFik/gKfGytz2vUEGCl6jD0eIefOedUn+8oos+jmKhP0gnJX4fM7lwESF+wZL3DNQZP94ZUE1bK0XQ8GmjMk1nQ7XddmsS5msSBpkLE12mQkxTQKjRWyq4vO7j43xl/uk4aNYGtKm4oev6WZbqzXrjb7sBwwVfU7kXZ6dqPDjwRL3D5U4MFFhMZUjWRpsaLG4usPmmg6bdS0GPTGDTkeT5TIhzkECo0XMC+CxMyXu+N4QwyXJGonF793rUvzZ7taqCoZneo8Nl8JmrYenXB4eKfHAUJmnxsqMNOGInXZHY1vG4vJ2i91tNiuTBh2OTputYetKskNCXIAERovcWNnnY4+P85f7pNZILG4tpuJ7t3SzIzt7tuh8AsJM0sR09/rhks+BiQo/HS3zxJkKz4xXGC55+Avoqqkp6HR0NmdMtrda7Gi1WJcyaHc0WkyNFksyQ0JUQwKjRc4L4PEzZV7/g0FOSq2RWMQ+uDHFH1zSSsKoXRDgB+FGhpzrM+WGHe1P5MMi7v0TFQ5OuhyecjmR9yjOQyF3TFf0J3RWJQ3WJE02tJisTxv0TI8FShiKpKlhawqJhYS4OBIYLQHjZZ+P753gD58cb/ShCFEX3TGd79zUxcYWs64BQUA443BmxE/JDyh5kHN9BooeJ3IepwsegyWf4aL3wuzEqbNmJlb8gACo+GH9j1IKWwNnej5iwlRkTI2srdFm63Q5Gj1xnd6YToejkzA0bB3s6dFBjq4wNFkeE6JWpMHjEpAyNd60Is6/PJ/jwIT0cBGLz3vWpViRNOqeJVGEswxNTXFWNwACYLMfUJkeDu1Oz0KcGRjtA0EQDo0Ozvo3M4erVDgzUakw06MTzk/UVbiTzJyZpSgBkBB1J4HREqCpsIHbBzak+dBDZ5AUoVhMNqZN3rE6TryGS2jVUoChqfCCKo2AhGhqWqMPQMyPhKlxS6/DdV1Oow9FiJpRwIe3pemLy7R3IURtSGC0RCjC+VHv25CU2Udi0bi1L8ZN3TE5p4UQNSOB0RJi64orOhzesSrR6EMRYs6ShsZvbk7TGdMbfShCiEVEAqMlpjeu8671SdakpLxMNLcPbEyyvdWigaVFQohFSAKjJUYBm9MmH9qclj4nomntyFr8/JokWVsuYUKI2pKryhKUNDVu7nF4w7K4FKyKphM3FL+ztYUVCcl6CiFqTwKjJWp10uC9G5KskiU10UR0Fc5Du6bTxpaCayFEHUhgtERpSnFZm82vbUwRlxuMaAIK2N1u84trE1JwLYSoGwmMlrC0qfGa3hh3rYhjyJkgFrh2J9yFti5lyhKwEKJu5Ha4xK1NmbxrbZJLspYUY4sFK6Yr3rchzbWyhCaEqDMJjJY4pcLlifdvSNEjyxNiATI1uLM/xltWxulw5BwVQtSXBEYCR1fc3BvjF9YmSZnyNC4WDk3BtozFezekWHP21FYhhKgTCYwEAF2OzltWJHhdf5yYLFWIBWJZXOdDm1PsbrNlNqsQYl5IYCResClj8svrklzRYUsxtmi4rK3x7vUpbu6JEZf21kKIeSK3P/ECBVzZYfPe9Sk2pk0pxhYNkzI13rwiwZtWJKSuSAgxryQwEi9haorX9Dq8d32KFQlDtkWLeefoipt6HH5pbYLV0oBUCDHPJDASr5AyNe5eEecX1ybplp1qYh6ZmuKq6V2SO7KWBOZCiHkngZE4pw5H5+2rErxlZYI2GdQp5oGh4JKsxQc2pbi600ZXEhYJIeaf3PHEea1MGvzS2iSvXx6n1ZJTRdSPpmBLxuIDG1Pc1BPDkgI3IUSDyN1OXNDmjMmvrk9xe1+MFlNOF1F7CtiQNvnVDUnu6I+RkB1oQogGkjudmNWOrMX7NqS4udchJcGRqCEFrEub/Mr6FG9YnpDgWwjRcHIVErNSwOXtNr+2Mc0tPRIcidqYCYreuz7JW1bGpZZNCLEgyF5YEYlScFWHjSJNAPz7qQKTlaDRhyWalALWpk1+ZX2St62SXkVCiIVDAiMRmVJhA8j/pNIYGnzrRJGJit/owxJNRlOwPh3Wrr1ZBsMKIRYYCYxEVWaCI0tLE9M1vnIsz1hZgiMRja5gc4vJ+zemuGt5gqwsnwkhFhgVBIGsh4iL8tRYmU/vn+Kfj+QYleBIzMLUFNszJh/clOa1/TFapAWEEGIBksBIzMmzExX+98Ecf//cFANFDzmZxLnYuuLyNosPbUpzY2+MpGzJF0IsUBIYiTk7kff45yM5PrlvkmN5F1/OKHGWuKG4odvh1zamuKbTwdYlKBJCLFwSGImaOFP2+dqxPH/+zAR7xyq4clYJoMXSuJ4via8AAAUtSURBVHt5nF9Zn2Rn1pIxH0KIBU8CI1EzOTfgx4NF/uyZCe45XaIsqaMlSwFdMZ33rE/ytpUJ1qZNGQgrhGgKEhiJmvKCgCdGK3zm2Uk+eyhHwZPTa6nRFWxMm/ynLWlu64vRJdvxhRBNRAIjUXMBcGTK5ctH8/zZMxOcyktR9lJhaYobexx+Y3Oa3e22FFkLIZqOBEaibsbKPvcPlvjDp8Z5YKgkwdEilzY13r0uyS+sTbA+bSE11kKIZiSBkairih+wf7zCXx+Y4m8OTEnd0SKkgI0tJr+7vYU9XQ7dMVk6E0I0LwmMxLw4XfC4Z6DIRx8b48Ck2+jDETWiKfjZVQk+uCnNxhaTmKSJhBBNTgIjMW8KXsCzExU+uW+SfzyYoyKnXlNbnTT46M4WXt0do9vRkZ34QojFQAIjMa/8AAaLHj8eKvIHT4zz5Gil0YckqmRqineuSfBrG9OsShmSJRJCLCoSGImGKHkBz0+5/P2hKT6zf5LxipyGzeDKDpvf3trClR02bbYmvYmEEIuOBEaiYfwAJis+T46V+fO9E3z1eAFpe7Qwdcd0PrQpzVtXJeh0NCxNQiIhxOIkgZFoOC+AMyWPHw4U+ZOnJ3h0pNzoQxLTkobi59Yk+dUNSVYmTGKGkiyREGJRk8BILBhuEDBY8PnysRyf2j/F/nGpP2oUS1O8blmMD21Ks7XVJKFrUlwthFgSJDASC44bBJwueHzuUI7PPDvF8znZ3j9fTKW4tc/hQ5vTXNZmEdc1ZNVMCLGUSGAkFiw/gJN5ly88n+d/PTfFPskg1Y2tK27ucfjQpjRXdNg4uiyZCSGWJgmMRFM4XfD40tE8f/fcFE+OlvECZMTIHCkgZSru7I/xgY1pdmYtKaoWQix5EhiJpjJR8fneqSL/88AUDwyVyLm+BElV0BQYSrEiqXP38gTvWJ1gfdpAlwIiIYQAJDASTariBzwxWuELR3J87Xie43mPshdIkHQOmgprh5Km4pKsxdtXJbi1L0anIzPNhBDi5SQwEk1vqOjx/dNF/u/zeR4ZKXOm7FHyAlx/6QZJmgp3ljm6YlXS4I6+GG9YHmdzxsSU5TIhhDgvCYzEohEEAcfzHt8+VeDfjhZ4euz/b+deXpsKwjAO/2bmnJwkTW8x0NIiFBURVBBEcSPo1v/ZlRtdCFJcCBVEwWtr00vS5FxmxsXEy0oQL7Xt+8Cc2c7iLF6++b6p2a8DEx+pfDz1ISkz0HaGTmZY62bcW2nzYL3DrUGLhdwe9/FERE4EBSM5lWKMvB57Hn2c8vDDlKefK/aqwJGPTJpIFU7+b2+/BiFn6OWWjTnH3ZU291fb3Oy36CkMiYj8MgUjORP2qsCz3YonOyWPt0u2DhvGTeSoSRWlSfP/V5Rym0JQN0v7oHDc6OfcGRTcHhRcXlQTtYjI71IwkjPp09TzfK9mc1ixOax5sV9xUKeANPGRqY+UIVL7SPjHZ8sMtJz5Vg1qz8LQ+W7GtaWcq0s515dbXFnMNV4vIvKHKRiJAD5G3ow9Wwc1Lw8bXo1q3o497yaeURMpfbp+q0Jq6m5imoALkdmeKk5xNhUXSe8EGdLHABZwxmDN97H5zKZKUG4NhU1XY+cKx3rXsdFzXJjPuTifcWk+Z7mlqzERkb9NwUjkJ+oQ2S497488O2VgtwwMq8CoTv1K0x9WE1JIamIkxBSGnE1hyBkorKHj0ivT7Vlf0EJu6BeOfsux2rGsdRxzudWr0yIix0TBSERERGRGtXkRERGRmS8gllxNSpj4NQAAAABJRU5ErkJggg==;" vertex="1" parent="SI2dGwVQrveodY6pXAPa-18">
          <mxGeometry x="15" y="10" width="59.33" height="42" as="geometry" />
        </mxCell>
        <mxCell id="mlNtqiJOjDmDWpQiY5dI-10" value="SOQL" style="edgeStyle=orthogonalEdgeStyle;rounded=0;orthogonalLoop=1;jettySize=auto;html=1;entryX=0;entryY=0.5;entryDx=0;entryDy=0;fontSize=10;" edge="1" parent="SI2dGwVQrveodY6pXAPa-18" source="mlNtqiJOjDmDWpQiY5dI-4" target="mlNtqiJOjDmDWpQiY5dI-5">
          <mxGeometry relative="1" as="geometry" />
        </mxCell>
        <mxCell id="mlNtqiJOjDmDWpQiY5dI-4" value="Apex Rest" style="shape=image;verticalLabelPosition=bottom;labelBackgroundColor=default;verticalAlign=top;aspect=fixed;imageAspect=0;image=data:image/png,iVBORw0KGgoAAAANSUhEUgAAALQAAACyCAYAAADrlOUvAAAgAElEQVR4nO29eXRc1Zn2+9vnnJpLpXmyJkuyFMvGIzaDwQ5xSIyXCSGQONDJDZ0P0wunIekmdH9f/ul1b7LuojsrkG7gYlaALxd65UKcMDTBbZwQAnYwg42NbSwJjdZkzVOp5jrD/aMkIWOpqlQqqcrAw6qVLOvUObvqPLXPu9/9vM8r3G63weeYRigUIhAI4PV6CQQCuN1umpqaaGtro6GhgZ6eHhoaGnC73YtyfZfLRV1dHSUlJdTV1VFVVUVtbS0ulwur1YrD4cBqtWI2mxfl+pcyLluzHvFZJ7SmabjdbgYHBxkZGaGtrY3m5mZOnTpFc3MzHR0dqR4iABUVFdTU1LBu3TpqamqoqqoiJyeH/Px8XC4Xsiyneogpx2ea0J2dnXR3d9Pe3k5jYyOnT5+moaGBwcFBNE1L9fCiQpZl8vPzqaurY+3ataxcuZLKykpKS0spLy9P9fBShs8cobu7u2loaKC+vp6TJ0/S2tpKS0sLXq831UNbEOx2OzU1NVRXV7NhwwZWrVpFXV0dpaWlqR7akuIzQWifz8eJEyc4cuQIZ86cobW1lfb2dgKBQKqHtiiwWq1UVlZSXV3NmjVr2Lp1Kxs3bsRut6d6aIuOTy2hDcNgcHCQV155hddee42Wlha6u7vxer0Yxqfu484KIQQOh4PS0lJWrFjB9ddfz4033kh+fj5CiFQPb1HwqSR0X18f+/bt4/XXX6erq4vx8fG0j4kXG7Isk5mZSVlZGdu3b2fv3r0UFRWlelhJx6eK0PX19Tz88MMcOHAAn8+HqqpLPhvLJpmcwiycOY6ox3lGvIz0j6GFl/aHJoRAURTsdju7du3ihz/8IatWrVrSMSwmLmlCG4ZBOBymra2NJ598kv379zM2NpbUawhJIEkSkiwhSQLFopBXkkNJ7TJcuRkUVxeSl1tIQUk+sgt0Q533NdzDHoJDOhNjbto+asU9PEFP03mGekZQgyq6bqBrOrquY+jJvVVZWVns3r2bPXv2UFVVhclkuqTDkUuW0H6/n6amJp5//nn279/P+fPnk3JeSZawWM2Y7WZMFhO5JTlUXFZKcWUhRZWFZBdlopiUC95jlZ2YZQue8HhChJaEiQxzFqoewhsen/53Nawy2jdOX3s/nfU9nG/tZbhnlHAwTMgXIhgIoWv6gj8zQHFxMd/+9re59dZbqa2txWazJeW8S41LjtCqqtLQ0MDhw4d5/PHHk7LpoZhknNlOnNkOsguzKFtZQtmqUgor8nHlOmO+f7EIPRvcwx76Owbpqu+mq7GH0f4xPKNePKMe1CSELxUVFdx9991s27aNuro6FEWJ/aY0wiVF6La2No4cOcLTTz/N8ePHF3y+nOJs8kpyKakspbSuiMKqXPJKc1HM87uJS0nomVBDKkPdw/S09NPb2M9AxyB93f2M9I7OewyfxKZNm7jjjjvYunUrVVVVCz7fUuGSILTb7eaNN97g+eef59ChQ/h8voTPZcuwsay6kLKVpZTVLaOkuoTly6vRpDB+dSKhc6aK0DNhxs547wRNjY10NfTQ1djN+dZ+/BP+hM4Hkc2aHTt28M1vfpMvfvGLuFyuhM+1VEhrQquqSlNTE8899xwvv/wyHR0dCaffsgoyqb2imhVrqyiuLqJweT6y2YSMjNOcSUgL4NcS+6FYJCtm2Ypf9aAmQGhFmLCbnKh6CJ+a2I6lVbZilm1MhMZQQyH6zw3S29pHy+k2mt5rZWwgsR+KLMtUVFRw0003cdttt1FbW5vWYUjaEtrv93Pw4EGeeOIJTp8+zcTE/GdPSZYoLC/g8i9tYOXmleSX5ZGR5USSpeljhBDIQsEwdDQjsR+LJCQkIaEZWkJpQiEkZCEnYQwymq5iEBmDrulMjHkY6hqi4Vgj7//lJP2dAwktJDMyMli7di133XUXO3fuTNtFY1oSenR0lIceeohnn32W4eHhhGbl7OIsvvTtray7di2OTCdWmwUhXZyOEgjMshXNUFH1cELjVYSCJGRCejCh9wNYZCsAQS2x7XiTZI6MQfNz0c00DPy+IN5xD6f+epq//PYIo73zT2/Kskxubi6333479913H9nZ2QmNdTGRdoRubm7mzjvv5OzZs4TD8ydYRq6T7d/ZxhW7NqKYFGQluqRSEjIucw4hzY9P9SQ0ZpvswCRb8ITdCcXQslBwTsfQiWmsbbIDs2JjPDQMUZ4SmqqhhlXeO3CC139zmInh+X9mk8nE6tWreeqpp6ipqUlovIuFtCF0KBTiwIED3HPPPfMOLyRZwuq0cs0tV7LtW1djc1rjf69QcJlzCGr+S3pRaJUdWBQ748EhuHiOnhV+T4DDv3ubt154l4AnMO9QJCMjg0cffZRdu3alTbFBygmt6zqDg4M8+eST/PKXvyQUCsX9XkmWcGQ6WLm5hmt3X0lxVeEF8XFc5/gMExoicXZvax+Hf/c2H73Xgs/tnxexzWYz//iP/8iePXvIz89Hkub3/ScbKSV0MBikqamJX/ziFxw8eHBeck6b00r5qlKu/do1rL12DZoSRjfmH6J81gk9hXBA5aN3WnnvwPu0n+3A74k/3We1Wtm5cyf3338/tbW1WCyWeV8/WbhszXpSkoMJBoP89a9/5ZFHHuHo0aPzIvOyFUVctq2Oy7+ygZLyUhRJwacmtqD7HBFYbXau/srVVK+q5q2Db3H6zbOcb+mL672BQICDBw8yPj7Ovffey7XXXptSUi85oScmJjh06BD79u3jxIkTcWcxLHYLq65ZyeYb1lO1vgIlTeK2TxNyl+Ww/W+2Ur6qlGOvfkD9W40EfbGzN4FAgDfffJOJiQn27t3LDTfcgNMZWzawGFhSQvv9fl5++WUefPBBWlpa4n5fbkkOW76+mbXb15BdkP47VpcaDHQMIrGzZFao3VxNfkU+pTVFHP2vYwz3jMQ8h6ZpHDt2jNHRUYLBILfccktK8tVLRuhwOMyvf/1rHnvsMTo7O+N6j2ySqd1UzZZvXEHV2gos9tQ9yj7NMCb/m4nsAhdX3bSJguX5HH3xPZqOt8al325paeGBBx5gfHycu+66C5PJtFjDnhVLRuif/vSnPPPMM4yOxieesTmsbNyxji03X0FeaS6yktoV9GIhkYXkUsFit1C7aQU5Rdkcfek9Thw6hd8be73T2dnJv/3bv9Hb28vPfvazJRjpx1gSQv/kJz/hV7/6VdybJY4sO1/cfQ1bbt6MxWG5pEXnsZHybYCokBWJgoo8du75Mpl5Lt7c/xbesdi6l9HRUR577DFUVeWBBx5YgpFGsKiEDofD/PSnP50XmbMKM7nx7q+y/strFnNon2MeEEJgdVrZ/t2t5BRn8crjf2SsP3aKMRwO86tf/QpFUfiXf/mXJQk/Fo3Qfr+fX//61zzzzDNxkVlIgoLyfG7+0S5qLq9crGFdAAMDLY0f+emI9V9egyPLyUv/cYCBzsGYZWHhcJhnnnmG4uJivv/97y/6QnFRAtOJiQleeOEFHnvssbhiZkmWqFq3nP/xb99ZMjJfKtAMCc1Ir/VDzeWV/I9/+w5V65bHtTs7FX688MILeDyJaWbiRdK/qWAwyKFDh3jwwQfjymaYLCZWXlXLt/7pJnKL00PBpRkSoyE7H40vw6emLt8d1hWa3UV8MFJBpzcPj5o+WZ7c4my+9U83sfKqWkyW2KFEZ2cnDz74IK+++irBYOLKxFhIasgxtQO4b9++uPLMNoeVK27YzLW3Xk1BWR7MY+0nEMiSjCRkzJIZzZi/WaEkJAQRPbJJsqIZMud9Njq8WfT5sujy57Axp4ur83swS7PrTBTJhEBgkszoxsVfpyTimzNkoWCRP3Y30g1B80QObw2uYDToJM8yQaFtlGL7GKX2CYptISShT47BjACssv2i9Fs8EEhIQgFhYDVscZ+jpNzOrfd8g8O/+yvvHToWMwPS0tLCvn37yM7OXrQdxaQRWtd1mpqaeOSRRzhx4kTM420OK1ffeDU3/M1XyCrIhAQyGQKBEAJLwjcyIrD3azbaPTm0e7Lo8mYwELAT1iNfzQcj5WSYFK7K70MWF19jirAzyTjb32OORcjYlI9319o8Dt4fLmcs5MAABoMZDAYzaJkoosDqo8zhpcY1RpnDgywZMKntTjRrIpAQQiBkMa9zlC4vYecdX0U2Kbz9ytsxSX3ixAkeeeQRCgoKWL16ddIFTUkTJ/X39/PP//zPcQmNTBYTW268il3f24k9zzoprp/nMISEWTIjC4WgFph3PtdAENLN9PhL+GA4l8GgDXfIjPqJmV4AWRY/1+SfY1VWNzIXqtEsshVZMhNQvegJVpw4zJnouop/sgRrMOjicP8KWidy54yfFaGRZQ6SZ/VT7hhmfa4HyRgkEUILJKyKHTAIqL55Tw4GBp4hH3/+zzc5euAdwsHoSYApQdPPf/5zCgsL5z3euZA0cVIoFOLJJ5+Mi8ySLFGzqZprbrmSzAIXIT2AaoSY/42QUAwFSeioxvzUdp6wlTNj5TS7i/FoNvyqgm7M/oQwgLGgleNDy7DJ4yx3Dl7wd8UwI2NMjiHxjImOjmqE8KoWPhgppG0iJ+piUDVkhoJ2RkI22j0u3h9Wqc7IZKWrh0Lb/FR7QsiR7W/DQEUFY/5lWpl5Lr787e2MDo7x4dGzUWWoU4Km2tpa/umf/impeuqkEPrAgQNx6ZmFJKhcW8FNf7+D/LLcZFx6XhgKZHBydDkN4yWouhx39sBA0B9w8fZgDRY5TLEtuQ5NU1ANiZaJQk6OLI97bLohCGomgpqJ0VAlJ0cqKLSOszm3lRWu/kUZ52wQQlBYns9Nf78Tr8dD26lzUVN6gUCAX/7yl6xatYpvfOMbSRvHggOY5uZm7rnnnrjE+QXl+ez+XzeTV5rLvFaAC8RYyM6Bng38Z/tWPhhZTlAzzTsVZiDo9uVyYriS8VDyrWkNQ9Axkc9f+i5LOE2nGxJhXaHbl8vJkeVJHmFsCCHIK8ll9/+6mYLy/JjHh0Ih7rnnHpqbm5M2hgURenR0lDvvvDOusqmswkxu/tGulKTmwrrMRMiKqi+8bUP9eCknR5fjTXIKrT+YxZ/7LiOchDEKDBQpOTZhiSC3OJubf7SLrMLMmMdOTExw5513xq3xiYWECe33+3nooYc4e/ZszGMdWXZuvPurKds0MUkaJil5Tp8nR5ZzZqwsKeQDGAyYeamjjPFwcmZ+RdLJNqe2K0HN5ZXcePdXcWTF/kxnz57loYcewu9P3BhnCgkRWlVVDh48yLPPPhtzW9vmsPLF3dekVJthkdWkElrVZd4bWkHD+DIQC9MneMJWXukqoc+flaTRpQ/Wf3kNX9x9DTZH9MLlcDjMs88+y8GDB1HVhUkREiJ0U1MTTzzxBMPDw1GPk03ypAR0c0KDSxZscgiznFzNRlAzcWSgjvqxuWNFn2ZmPGxnLGRnInzxTQ1oJt4fqeScJ3a8OT8YSf+8iWLLzZvZuGMdsin602x4eJgnnniCpqamBV1v3lkOt9vNc889x+nTp2OWT9VuqmbLzVdgcaR+y9YsachCT6ouwqdaeL2vFJ8qEdKzCGoSPtVCeDKXHdKU6bBEEgY2JbJwljBwKEG8qoWmiaKkazVkoeNQ0qOHjMVhYcvNVzDSO0rD23OTVdM0Tp8+zXPPPcf999+fsJfevAn9xhtv8PLLL8dcCOaW5LDlGxFxfjrome1yEFnS0LTkkmcs6OCN/kgrNU2XUQ15zpz2FCKLNg3DEBdt5CQDQhiYROoWhTMhhCCvNJct37iCgc6hqOVcExMTvPzyy2zevJmvfe1rCV1vXne3ra2N559/PqYvs8VuYcvXN1O1tiJtKk1Msoq8CDfZAPyqBb9qIaTPvUFz4XsEYV1ZFDLD5A9GpE9fGVmRqFpbwZavb45ZRtfR0cHvf/972traErpW3GxTVZUjR45w6NChmKHGqmtWsnb7mrSqAXQpfixSesSViw1F0smypFfvRYvdwtrta1h1zcqox2maxqFDhzhy5EhCC8S4Cd3Q0MDTTz8d05952YoiNt+wPu2qsyVhLOFWTuoh0rC0K7vAxeYb1rNsRfQOXD6fj6effpqGhoZ5XyMuQvv9fg4fPhzTOd/mtHLZtjqq1lfMeyCLDZfJj/kzMkMLjGlpabqhan0Fl22ri+lBePz4cQ4fPjzv3HRMQhuGQVNTE48//nj0E8kS5atKufwrGzCZzQghR31JQgIRkYBKMY6d9f3IEbljRM0b83hZ0tNy1loMmIRBnjUwj+9SYlKMi8z870XkNXkvRPR7YTJb2PzVy6lYVRaz2uXxxx+nqalpXr7bMbMc4XA4roWgI9PBtV+7hpLyUiQhEDF0wBEayiiSGVlKTCMlEflhWJXYonTVkDGlx/p00SEhsCvzcy6ShQwCrMJBIhLUyAQjYZFtmIiunnNWuNh607X0tPQxMTJ3tqyjo4Pnn3+eurq6uBV5MW9xW1sb+/fvj34SWWLl5hrWXrsGRYoYgIs4/puaoS/6dwS6oUd9GYaBEAIDA90wYh7vVMKY5U//DC0AqxKO+X3MfEX4KzAMA2Me77vgfjD5XmIfqxoqdVtWsvKKmpiz9G9/+9t5ZTxiTo1PPvlkzD6AVqeVa3dfiaaE4zZOVISCRdgI60HCeugTc4IxbU01FwQSFmzIQiao+dGJHR9bJB+SyERPs6LTZMIAAqpEp0ehIE5dtISMTTjQDZ2A5ov53c8Gs2RFkm2EtCl9ewyY4NpvXsnZtxvxjc+daOjt7eXJJ5/kF7/4RVzjiHpn6+vrY87OANfcEvFn1ieF9vG8NEMD42MrgQv/rmIYetSXPilIB6Znh2ivtolchgIZGHHkiS91DIec/Ll3JR+NFaLqxPddTvVmIfqxc78m74UR+15MvYqrC7nmlitjfp79+/dTX18f12ePSuiHH344ZrvhjFwn27519bzNxpcKmiFxdrSUv/RdxlAog89C8k4zJHr8uRwZXMnZsdKkqQKTDUmW2Patq8mI0eB0bGyMhx9+OL5zzvWHvr4+Dhw4EPME27+zbV5tIJYSIV3hg9EK3hhYxXDQGdcu3qcFuiEYCTr5S/8qTo4uJ6SnZzs2m9PK9u9si3ncgQMH6OuL7Vk9K6ENw2Dfvn0xN1FylmVzxa6NMS+SCoR0hQ/HSjnSX4cvjfwslhohzcTRgS/w4Vhp2pL6il0byS6OLp/1+Xzs27cvZgpvVkIPDg7y+uuvR916lGSJHX/zFUzzbCW8FJgi8+H+VWn7uF1KhHWZw/2r0pbUiknhum9fEzVsVVWV119/ncHBwTmPgTkI/corr9DV1RX111BYXsDqLXVIcnoR5nMyz450JrWsSKy8upb8srw5jzEMg66uLl555ZWo57qI0D6fj9dee43x8egpn8u/tAFnZmraDswFzZA4M1aWcjIbahgj5J/9lcJ+MFOk/mC0gqC2tEbkseBw2bhsW13UY8bHx3nttdeihsIX/VRPnDhBS0tLVEVdVkEmKzevxGqz4FHTQ0gO0Di2jHcGa5aUzEbAC4aBoakY6mT+VQ1hzBGuCUUBxTz5/80IWQEhEFbHkow3rMu8PViDIjTWZXfOS1Ib1E0ENQVVl5CEQZY5sf7os8Fqt1K3+Qu8/+oHc/Ym1zSNlpYWTpw4wbXXXjvrMRcR+siRI3R3d0e9eO0V1eSX5aWFcH8K7Z583h2uWZIFoBH0YYSDGEE/RigQ6d6qqRh67M0dY4ZPoZAUmCK02Yqw2BAmC8KSfJuEmQhpJk6OVOKUg9Rm9gLgUxXGQzIBTTARtqIbArdqQ9VlApoZv2ZC1WVCuoKmS9hNQXaVnEzeoCSJZeXLWH1VHW+9/M6ch3V3d3PkyJH4CN3d3c2ZM2fweufW0toybFStXY4zK7kzSos7YrAys2LZqoRxygEkERGsZ1m800qyXOvHKqzhoJPjQ1WMhhZ3ljNCAXTPKEbAFzeBo55PV2HyHEbIj/BNgKwgrHYkZzbCvHjp0LGQg78OrqTRvYyQbkI3zAT1yPZ3SFcwgKCuoBsSmi5dVIygSBpX5raQZ02sv+NscOVkULu+lhN/OYV/YnaVndfr5cyZM3R3d1NaWnrR3y8gdENDA62trVEXg8uqCymqKkj6Rsqx4Wq6fbkXeEoIoU8aJBoX/jsGJmEgENiUMKoOg4uZZ1bDaO4hDJ8nQsIErLLiwRTBDTWE4fMg7E5kVx4oyY93p/LUoyFHQt+bqsucHF3OV4rPJG1MkixTXFXEsupCWj84N+sxhmHQ2tpKQ0NDbELX19fT3t4e9aJlK0sprEhulXJ/IJP+QMSUJFKeNDUbxI6FxeQjfFFkR4aBPtaPNjEaucI8ZIwLu66OoYUwPKPonjHkjGykrMKEHFqjXgYWJAVoGC/h6rxmnKbkraMKl+dTtrJ0TkIDtLe3U19fz1e+8pWL/jY9zXZ2dnLy5MmoZos5xdmU1S2Ly+A6XhgGNI6XJFz5bLAIZDYM0HW0gS4093BkRl4qMn9yHIaO5h5GG+gCPUXjmAOqLnNmrDwp55r6WZktZipWlZETxWErEAhw8uTJWQ31p2fo7u5uWltbo140rySXkuoSJKFMyj9FxCg7AUpN6W8nVJlmd0H6KOA0Fd0zijY+mFbk0QMT6N2NyJn5SM7syGIyxdAMiWZ3MZfndmNTZECgSAoigXs55fUtCZnS6jLySnIZ6Z3bHqy1tZXu7m7Kyy/8QSkQSYe0t7dHdd1XTDIllSVULK9CUeTJDIcgwxTbv2z2TxDRPjeOF+DT0mNr2lDD6OMD6F53WpF5GoaBNj6EoYaQMgsQixBbzxcezUavv4x86/C0wD8R83lguiikpLyEkuUltJ1qR52j2WdzczPt7e1ceeWVyDM29xSImMc0NjZGzW44s52UrCxCFUFUDcyyFQmJgJZYLlIWCiHdQYcnd9otP5UwwiF099AkmdOzHg8AQ4+MEYHkykOYUtvz3K8qnBzJotI5QIZZENT8qAlkfyI/BgsgCIsgy+oKcR52zpmT9vl8NDY24na7yc7+ODxRIKLdOH36dNQLOrMdFFXnEZwksCKZAYOg5iexkMNMuyeHwaAt5Sq4S4bMU5gmNSkntW4IhoJ2Or0ZrDJ5UXUV1UikKZCEyTAhhEA1whRX5+PMdsxJaIDTp08zODh4AaElgJGRkagl45IskV2YNenrnBxIQtDty8QdSu0MY6jhGWROH3OWmDA0dK8b3T2U0u10gImQjXOefMJ68tZBeaW5ZBdmRU0PNzQ0MDJyoROTFAqFaGtri6pisljNlK0sQUmisq4/YKHH51g096C4oKmTMfP4pUXmKRgaunccfXwAtNRZNKiGTLsngy5v8jaCFLNC2coSLNa5J7zBwUHa2touMNuXAoEAzc3NUbUbZruZslUXJ7EXgk5vNn2BjKSec14wDHTP6KUTZsyFyfBD94ymdCE7HLTR7ctBj2PvIF6UrSrFbJ+b0Jqm0dzcfEGqWfJ6vZw6dSrqiU0WU1I3UzyqhV5fFoEUNrWMZAwGL20yT8HQU55mDOsKrW4rg4HkhR2FFfkx9zxOnTp1QTJjeoaeC0IS5JZk44pR9zUfjAQz6PensGusYaANdqdnai5RpMFn6g1kMRxIngWcK9dJbkkOQpo7aXDRDO12u6OayEiSxLLq4qQNUjMkBgMZDAVTF27oY/3ogeSJatIFemACfWzpOl9NQQAOJcQ1Bf2syHQn9dwVl5VGbc7Z0dGB2/3xNaVYjukRi6+SpA0QwKEEybZ4kGbpzLroUMOT2oxPJ7SJUVjCrIfAINPsZUtBF1flDWBNYusPgOLKwphCuKampuk1oBLLlUaSBEWVyev2KQud6owBFEni/eFKenyupDvYR4PmHiKZ6o/tK4rIsZnpcftoHpxgyLd4jdnjg4HmHkLOSd5TdS4IDAqtbtbltLMhZxib4sSX5N9SUWUhUpSQAyLuXro+2fc8lmWpYlHILkpwe3sOmCSVla5Bsi2Cv/aX0DaRi7oEpDZCAQyfJ2lx5sp8Fz+7YQ0FDgutw17e7hji0Ee9nOkdwxtOURrNMCIyV2dgUfXUACX2Ea7Ob6bMMYwsFke+kF2UiWJRCPrndmNqaGj4eIbu6emJesK8khwUU/K3pg0Mlju8KEVtuEwT8+qemih0z+iCRfkzcVVFLiUuGwArCzKoyLazuSyH11v6ebm+h/ZhD1oKFmmGHhFYLeYsvSqzm4257YvWVXcKikkhryQH79jcEouenp5pDX/MGbqkdllSB/hJFFg9XJnnJscywV+S1HhyNhhBX6TSJIlpOtsnfug2k8xlRZmUZ9m5usTFHz7q59mTXYSXOjVo6BgBH0bQl/RyLkXS2JBzjg3Z58hMYk1hNJTULqPj7NxlgRfM0DNXiLPBlbv42Qi7EmR1Vjc5Zi8He9YnrQHlTBjh4JLtprmsJi6vKKCmKIcdK0t44M9n+bB/fg3lFwxNxQgHk0poixzmirwW1mR14VCWbq0Qi4Nut3t6ho75jC+uTt6CMBoUoVPqGOHrZccpcwwl/fxG0J/UcCMWJEkiy2ZmS0Uuz333Gn5x40Zq85YuVWnoKkZw4Z1Zp2BXglxXeJbLc9qXlMwQHwenIo2YwXFebiFW+eJNFVnISELGJjui5gyUOczMpcn3m4UVk/TxjmGGCbKtbRzqCdPsLkJLghLPCHgj1dkpgBACp0Xhm2tLubI8h0feauKNln6GfCH0RY6vjVAAI+BdsEVCttnL9uJuLsv2IzH7j1ISkVDRqtgxG/EtEGXJNOkHfiEyzRe+vzAv9p7BlKloTEIXlORjli8e4JQY2zTL3+JDxKxcQsb4RK1cnkXla2U9HB0Ic3KkEL9qWViizVjCesAoKMuy839/dTXvrSzkieMdnOgexRNSF4/YSfjcZkllXc4g63KmnppzPdTF9P/G6t4wBf0TgjCJSBWTbujMTK3mxPC9A6a3v4TQOCcAACAASURBVGMSWnaBJ3xx/GdXMlAkE96wO6EKBVkoWGU7qhEmpAUuOocEXJ47il/TODNatqAiAENTU6pGmwmTycQ11cVUFWTx3w29vNLQw0f9bnzqIqj9NBVDUxdsIKzqQSZCczfMBDBLNuymDAKql5CeQKgjJOyyEyEEPtWDMYPsUhy76VN6pKgskU0yujE7EaYIqBkqiWxUiMlfum5oc57DIqmTvQUXdksMNbSk8XM8KM6wcecVVVxVkcvLpzs40jHCuRFvUolt6DPcnBJEWJfxpIF7q2yS0eYox5qJqITOKYw91S82PKrlU226uLowk+qttWyrmeDPzf28fPY8Q770sVczEIQ0GVWXpn1RUoGcwiwGu4djHheV0M6cpfFbW0wYahgWOEstNqxWK1uWW/lCvovLirI4+NF5/to2iD8Zs7UawlDDCyqoDekmApoZp5S6H5ozxxGV0FN9gFJfnRoFXtVCQF1gZbOuzmmcmE4QQJ7DwtdWLWNTaQ5/Ku/jxTNdNA1OENITnxkNdcpuLPHvUTfEkkgTFoIpQqf1KMO6vKTCpXSASZYoz7bzNxsq+PmNG9iyPA8ljUwx0xXhcEQV9dliyyUEm0mmrsDFHZsryXWkflF2qeBzQqcxhIA8uxVTmnYYm4lIU83UFxqndQz9WUZY0xkLhPjNiXMMeVKtsb50kNaEViQdaR4O858GGIbBqC/Ise5RXjzTw5H2AQJRKvI/RwQmU2TRm9aEtsshLPICMxSSglAUEjLzWWIEVI1TPSP8pbmXlxv7Oe9euLhIKArMoaeJFxHD+fSeWJYtW8a5ju7ohPaMzO11txSQhL7gukOhmKZ7mqQzzo36+MPZbv7Y1EvLkCc5OWgAxbxgU0ezFMYqpzaXH4uLy5ZFdPtRCT3Sv7jVCPHAJodRhJZah6VFhDsQ5vdnunmztZ9jncOLo+lYIGTJSOkuIcTPxaiEjmfvfLFhlUPIko6qJU5ooZgRkpJWeo5gMMi73aP858lO3u8aZcSf/JhISApigU+nqS5ZAc2EVU6dh168XIwZXLmHPWTlXWwKM6VjlYUpIbWdNCkxlIUc9RySEIgFVmkLebLbVJoQunXYw38eb+PPrQOcH/cvXt2hrEQ++wKgGxKtE4XY5BBX5nXjMs1OLEVSkISEIplIREwmRIQLBmAWFmbK4IeGBmK+f926dfz++ZdiEzo4pJOx7GKR0hShnebEK8IFAhkFk3xxdbJmCE6NZHFqpJSAtsAYWIik9ydJBOOBMC+d7eE/32/n3LAHdbE12kn43AbgUy28P1zFcDCDG8t6KLDOFk9HrmOWrZjlRD9X5ByfLAoJDcYOdxyOiO4oJqEnxtwE1IsDcrNsQxYyQdWXoB5aRpEsqHoI3VAvOINumDk7vow/nS9NSt9BYXUgzFaMUPJKkuKFYRgEVZ3jPSP89I8f0jS0dI5NwmxNWkNPbXKmfqFD5kuF9RTZ/RfsyslCwarYCGkBwvr8QxOBwCxbkIVCQPNfsEnTP3Q+5vuzsiKTbkxCt33UStWVFzuPCgSSYp908E/M8FwWJjRDvcA03ataODOWx3tD5Ult3yssNoRvYknjaG9QpX1gmN982MefPupbUhMaISkIiy3p5+3y5vFfXZv4ctGHVGQMTqfzpp7YuqGjGQlkRISEGQs6GqoRukDg39sa296sri7SVllxuVxEq/x2Dy/djDIesnNydDknR5ajJlkDLUyWpMfR+hz2BP6wRteYj1c/6uXZkx30ztFEclEhK5HPvAgYD9v5Q8/lfKnoQ1Zk9C960WwsDrpcrumuxkpdXR3vvvvunAf3NMWe7pOBXn8WJ4YrqR9Prg/1FITFjrDaIxUcSfLJOD9+oT5Y1XW6x/y80TbAgfrznDo/uiDpZ8IQEsJqX9QWy2Fd5s+9axgJZnBZVifFtsXLU8fiYF1d3XTjIKWkJLoR41DPCGpYXRT3JICwDuc8ebw9WEO3L3ktL2aD5MyO2GRpyfnyT/SM0jjgpiY/g/6JAMe7hvlTUz9H2gcZC6RuI0JISqT12yJDMyQ+GFnOWMjOloIeVpiSn9ZTwypDPdHrGUtKSi6coaOeMKgy2jdOflnyyaYZgrNjyzg+tIz+JPoKzwVhtiLsTowkud33uH38X386Q2mmgxF/iJahCXrH/amZlacgBMLuXHRfuymohkS7p4Cgbieo91PuSK6b0mjfOGoweph4wQxdVVUV9WBdN+hr7086oX2a4NhIHieGyxgLWjEWXJscH2RXHrpnjGQ5kL7dMQzErnVbOohIf/AlhGZI9Pgy+PN5hWvyPVS7/NMbMgtFX3s/uh79XlVVVU17SEu1tbVRD9Y1nd725Jpo+1Qzx4aW8/ZABWNB25KRGQDFhJyRwu4Biww5I3tRmt3Hgm4IhoN2JhZaMvcJdNb3oGvRfxy1tbXTM7TkcrmoqKiYe6C6TseHcxvlJYIeXw4fjpXhW6iBTIKQsgqRrClsWLRIkKwZkSb3KUKWxUOO2ZO02RngfGvvtPfzbKioqMDl+jhclaxWKzU1NXO+wdANhntGcA97kjbIPKubYlsKXfSFQM4vTYvdw6QhDT5TuSNAoT15i2H3sIfhnlGMKCFHTU0NVuvH6wXJ4XCwbt26qCcOB8P0d8zdx3C+yDb7KLGPYJJSqK0QAjkzH+K0rUprCGnys6SOzFY5RLnDTZYpeYTu7xgkHIyeOVm3bt30tjfMmKFnNgD/JEK+EF31yQ07im3j5FqSN+vPG0IgObORHK5Lm9RCQnK4Imm6FBK6wOqjxJFcy+Cu+m5Cvrl/ILIsXzxDm81mqqqqyM+fuw9hMBCiq7EHNZS8GbXA6mWZ3Y0iUihRlRWkzAIkRyaIS1BvLWQkRyZSZkFkFzRFMEka5c6JpG6uqCGVrsYeglHy+fn5+VRVVWE2fyxekwBycnKIlo/WNZ3R/jGG4rBiihdW2aAmY5wMc2orIYRiQnLlTc7UlxCphRyZmV15C65IWSgyTH7K7YNIJG9yGuoeZrR/LGqGo66ujpycnAv+TYII09euXRv1Ap5RLz0tyU3fLXf6KLD4U9PebQaEyTyD1JdA+DEVZrjyEKbUlpdJwiDb7KHYvrBFvjzZUlkgIaNwvqUfz2j0squ1a9deFFkoEBF3rFy5Ervdjs83+06PZ9RDb2M/5q/akWSBSbYgEJOG57EJKUsXziICgSwZrM8dptufgTec2llGmMxImfmAkd79v6fInJmf8pkZIh3NqjLGyTRZEELCotgwxWl4PhMSEkJICCEwYaG3cQDP6NxrLIfDwcqVKy9I2cEkoWVZprKykpqamjn7fqthjYGOQcZ7JyhaXjQtFzQr8UkUZ3NqB6jOmMClBFNOaIiEH3JWIUIxp7x39qwQAjkzL7IATGHMPBNORWV9zkSEjJP/SYlslIlIFZNh6Az1DNPfMYAapexqxYoVVFZWXpTMmP5WSktLqa6ujtrIvq+7n6bGRmzFCjbZgVmx4Q4NTzdsmQ8UYcamOJDwsMJ1noHAivTwsZOVSPiRkYs22J02LZQla8bHeeY0yZ9LQqc64zwYffhVMzbFSUD1J2R4LoSEXXaAkGhraqWvO3p4W11dTWnpxcrMaQaVl5ezYcOGC1Ign8RI7yhdDT2Eg6HpMCNC5vm/ZoYpa7I6UZLcUndBEAIkCbmgDNmVG4mrU0EiISI5ZlcuckEZSIszjkTPKAudla4ewJjxMEucDwYQCgbpqO9kpHfumNxqtbJhwwbKy8sv+tsFz61Vq1ZRWVlJtN6FXY3d9HcMklGXPDN0hxKgLrOHD0aWJ/R+SRgYxkJLaWeBEEjZRZHZ2j0UkZ7q6uLH10KKVJzYnRGh0SLFypEFnRe7HCKoReLekAH6JMVVXZrU2Qg0Q2BMPkGn/r3QOk6hLbm55/5zg3Q1Rt/zqKysZNWqVbP+7QJC19XVUV1dTWNj45xhxPnWfvraBqj6wooEhzw7NmSf48OxsosqVRShIU9aglmkSL8Qs6QihIFZArMEihRgIOBkNOhYHKGTYkLOKcZwBiLdaAO+SP+SJJdzCSlSnS6sdiRn9qJKQAUGeeYJthY2UO0axq44MQyDHp+Bqkec+8eCDlRDRjcEHs067dU9GnKg6hIbcs4ldUy6ptHb1sf5KCVXQgiqq6vnTDNfQOjS0lLWrFnDG2+8gccz+wrTP+Gn7fQ51l21Flth8hz+86wT1Lp68YUtyJKOWVJRJA2bHHHtUSQNlxJJ8blMfmRJJcuskGU24Qt7ODOaxxsDdXjCya+jm4IwWyPEDvowwsFI78NQILJ4TIDgUwRGiIhW22JDmCyLWmkyBbsSZE1OBxXOIWYGHdkW7/QTqMAavSlrsuEemaDpgyb8UUrWHA4Ha9asmTV+hlmKZLdu3cqLL75IY2PjnCdteq+VoV2j5BUkV9l1Tf5H6IZAkXQssopFir6Pb5ZsTDnT12b2Mq7aeHewhtACOmbFA2GZLG9yZmMEvJGG8dqMBj1qaM6uAUJRpq3JhGKO+GYIkbTq7HggC5212Z2syuyZVMalwYaSrnO+8zxn34neqru0tJStW7fO+feL7vzGjRtZsWIFzc3N0/2TP4mxgXE+OtbE8i8sT6rdY9YCekfLQmdDdge6IfHWwBeSN6gYmCLizEDHUMNzF+NKSsrzx5dldbExpz2lTkifRMAXoOHYR4wNzB2Ty7LMihUr2Lhx45zHXJQns9vtXH/99WRmRjeQef8vJ/GMp9bM8ZOwyGE25rSzMac9peMQiglhts3+SjGZN+a0s6WgCbuSXo2UvG4/Hx6OPjtnZmZy/fXXY7fPHZLNmvi98cYbKSsrmy48nA39nQOceesMepp5F1vlMFflN6ec1OmIjTntXJXfjFNJn7ZxAJqq0/h2E4Ndc/d4F0JQVlbGjTfeGPVcsxI6Pz+f7du3oyhzxxO6pvPq//dHwklU4CULDiX4Oak/gSkyL3Xj+XighlXe+O1bUYVIiqKwffv2qKpQmIPQQgj27t0bdWoHGDk/ynsHTsQx5KWHQwlydX4TV+a1YE5lIUGKIQudddkdXJnfkpZkBnjvwAlGe6Pb5drtdvbu3Rs1aoAoTYOKiorYtWtXzMG8/pvD+D3p9Qibgl0JcWVeC1fmN+M0BRbsYnopQWDgUAJckdfCtQWNaRdmTMHvCfD6bw7HPG7Xrl0UFRXFPC6qeOKHP/zhtAneXJgY9nD4d2/HrMxNFSxymM25bWzNb6TQ6k5qAWe6QgCZZh9X5TezKbct7RaAU9A1ncO/e5uJGPWqWVlZ/PCHP4zrnFEJvWrVKnbv3h3zJG+98C69rX1xXTAVkIXOZdldXFd0lmxzemVmFgNCGORb3azL7kyr1Nwn0dvax1svzG1DN4Xdu3fPudX9ScTMIu/Zs4c//OEP9Pb2znlMwBPg8O/e5ps//jpWW3y7XIpQECIiNlSEKaFgQBIyAoEiyRh6bKH7cucENjmMIFk2M+kJ3RBouhmrHJ/4XyAhIYEksOhW9ASeYoqkTN4LBYPYW/bhQJgjv3uXQIxwddmyZezZsyf+ccQ6oKqqim9/+9v8+7//+5zH6JrOR++18NE7rVz9lavjurAQAiEkzLIFk5RY1cXH57BhkuKjaFBPjRfIUkPHBGRhU+JbEEcmF4FVsSf0/QhERJwvWVGk2AL/D985xkfHWmKGqrt37yaWu9dMxCS0yWTi1ltv5cUXX6Sjo2PO43xuP++8coyyL5RRUBrbikoQIbNuaIT1xGI8WSgokiCsh+LuYpqIdvtSRFAzGAkFyDZi774KIWORrYBBUAtgJKAmlCUFq2wnqAVQY9zPofMjHHn5LbwxNuYqKiq49dZbp3sQxoOYhBZCUFtby913381PfvKTOY/TNZ2O+k7ePfQuX/7ONuQYbqWKMGGSzIT1EEE9kFB1iFmyoUgmwnoo5pcIMBJyEDLSQxy/2NANCKg6ahwLQoGMGTOGYRA2ErQb1gWGbKAbEcPyuaCGVd47dIyO+s6Ys/Pdd99NbW1tzFTdTMRVImKz2di2bRubNm2KepzfE+DDww20fnCO2ILuGUiwSGA6EjaI61hNF0vro5dChHQF9yIqDxNF2wcdfHi4IWaqd9OmTWzbtg2bbX6fIe6ap7q6Ou64446Ymy3nW/o49uoHjA4srfQwHnxWyAyRn7CeZk+j0QE3x179gPMt0TNidrudO+64I6q1xlyIm9CKorB161Z27NgR1WUJoP6tRk6/fobgEvYUiQdjwYgw/bOAoK7gVtNnhg76gpx+/Qz1b80tS4aIom7Hjh1s3bo1qvRiLszr7lZVVfHNb34zqlspRAZ/9L+O0Xa6A01Nn40M1ZDTapaWhb5o/n66ISW9T02i0FSdttMdHP2vYzEnuamF4HwyGzMx75/AF7/4RW666SaeeuopJibmroge7hnh6IvvkVOUTUFF3rwC+8VC2JAwFuExbJVDLHcMoUgqIV2JSSRF0jBLKlZZxSyp1I+XMBZKrsBf06WF93dMAgzDYKh7mKMvvsdwjNYSGRkZ3HTTTVx33XUJX2/ehHa5XNx2220cO3aMd955Z84iAICm460cfek9du75Mlbn0rRIiAavak26VYIsDDbl9rMprwkZPwHNFLNiJkLm8LRjVJFd59WeyqT0ZJyCasj4k9gWL1EEvUGOvvQeTcdbox4nyzJr167ltttuu8g8Zj5IqN6ktraWu+66i+bmZgYG5m5bq4U1Thw6RWaei+3fnbtsZqkQ0hQSL9qfHTWuPq4uGMAkDMK6gV0JYWd+efV12eNoRjev9iS3N6OqywR1U8xStsXE0ZeOceLQqZi9unNzc7nrrruI1VEiFhKarhRFYefOndx+++0xk95+b4A397/FB38+k9AAkwnVkJNqhlTmGOJLRc1kLtATWZYM1mT1c0VeS1L9SUK6QlBLncPSB38+w5v738LvjZ6iM5lM3H777ezcuTOhheBMJPz8tdls3HfffaxevTrmsd4xH688/kea30+t4N4dsqEZyVkoZZp8fKmwnixTcmSZiqSyJqsrqdYAmi6lLKvT/H47rzz+R7xjsXcqV69ezX333TfvnPNsWNCnzc7O5qmnniIjI3a/krH+cV76jwMMR3HEWWxoSTKjMUkaXy76kPwkl/k7lCAbss+xKnPh5vKKpGE3Befl7CpPir0WiuHeUV76jwOM9cc2ocnIyOCpp54iOzs5jZwW/POtqanh0UcfvcB0ei4MdA6y/19fmvSZXnpNxYacc5TahzFJKlKCumhZ6Hxpss/1YtgAZ5p9bMxtp9Q+PO+CBFnoWOQw63PO8X9UHmFXycn5VdIvMBNlGAaDPcPs/9eXGOiM3cLEbDbz6KOPRu3xM1/IP/nJT/7PhZ6kuroaXdd5//33UefwowDAgPFBN8O9Y5R/oYys7Cw0Q0UzEsvFysI0reXQ4zDbzrF4WZPdRaVzELOs4VPNGAgMpLjy04rQ2JDTwZrsLqxyZMySUDDLFsJ6GD3Bz2FVHEhCJqhFyJdhCpBhCjAcdOFVLURbyErCwCKHybP6WZ/TwY7iU9Rlnp+XqF8ICZNkRgiJkB4kkclGEjJDXSO89P/8gabjzVEb/UDEn+4f/uEf+Nu//duYG3Xx4rF9jyfHVcNsNrNnzx6ampo4ePAggcDccaWu6TQfb+Wt379L1h052HIjX2Q8HtMXI3KjIznu+B82hfYJCm2NbMo9R/NEGec8uQwFLXjCNsJz5JBloVPpHGJNdjcOU3j6elP5dQELN0uf8f5yxwjrc87xztAKxkOOi74dRWhkmP3kmr1UZwyyPjeAzFhEXDTPB69AYvq7RGDM93PoOqOD47zxu7/S8F5jTNGR1Wpl586d7NmzJ64n+3yQtCVwfn4+999/P+Pj47z55ptR89PhYJj3Dh1DNilcf/t1uPIT6xkoT4rKTZIZ2Zj/R7EpgmL7EJfnjtLpsdLpy6XT42QgYL9gU0ISBsvsHq4pPE+pXQM+1rPIUsT5SJFMSAtccFqlGToZCTbkDKPh5OhAGV41Mh6TpJJr8VPpnGC5c5BSxzh22cAkW1B1C3ICu4OSEMiT7Tgssm1eElvDMBgZHuH1Z9/g+KsnY3atkmWZLVu2cP/998es4E4ESSO0JEnU1tZy7733MjExwbFjx6Ie7/cGePuVt9HCKl/+9nYKy/Pj3k2c0j5LQkYICUUyxa2HngmBQBIyDkXnC5luVrg89PpN9HhddPrs9PuyGQpmkGX2sim3gwqHF0l88iuLLKNkSUFK0JV0aiGmSBeeW5Hg8pwBJsISp0ZLKLMPU+n0UWRzU+bwY5K0yLuFPOkRKi46x3xGIQkJRSgYca4NDAMGu4d4ff9hjr96MmZ6DiLOXPfeey+1tbXT7YyTiaQmKS0WC9deey179+5ldHSUlpaWqMf7vQGOHniH0cExbvr7neSVxNNP3ECffACbJTMW2UZQ8xPW5795ICFhNznRDY2A6kPHIMcMOeYRljtlhoNOBgMZOJQgy52DBGb5zShCQRYOwlqAUAJjAMgwR3L5PnV2wfuGHC8FlhEKbGPkW1R0DMI6hCd/P2bJhCTbCWkB1ATieGmyUgVk/KoPnfh+mEPdw7zy2CEa3muMOTNDxHV/7969XHvttVgsydsVnYmkZ90tFgs33HADwWCQBx54gM7OzqjHh4NhPjx6Fq/Hw+7/dTO5xfGnb3RDwcBA0zV0Y/5kMoQ8bbWtoWHMmOUdShiHEqDEHtEfyEJntnWOPhmvaoaR0BguONcc73cqYb6QGXHkVGcZgzYZbumGnoTvQb3ge5gLw72j7P/5S7Sf7oir4r+8vJwf//jH7NixY9HIDElI280Gp9PJLbfcwg9+8IO48ou6ptN26hz/+3/+JuWbL5+ELPTPhPXBfND8fjv/+3/+hrZT5+Iic25uLvfddx+33HJLXHsWC8GibSPZbDbuuusuvve978VVE2boBv3nBvjtv76QFtvkn2N2fPDnM/z2X1+g/9xAzNQcRLa1v/vd7/K9730vKTuBsbCoG/0mk4mf/exnqKrKr371K8Lh2I/Dsf5xXvyPA4z0jrHl5s1YHJa0kJ5+lmEYxqRq7hhv7n8rru1siNz/v/u7v+NnP/vZIo/wYyyJcuWBBx5AURSeeeYZRkdjb317x3z85TdHGB9ys+XmK8grzUVWPhuVJukGTdUjeuaX3uPEoVNxZTIgIov43ve+t6RkhiUiNMC//Mu/UFxczGOPPRZzoQiRDMg7fzjOSO8oW75xBVVrK7DYF28x8TkuRtAXjFSavBjRM8eSgE6hvLycH/zgB9x1112LPMKLsWSENplMfP/73yczM5MHH3wwZkoPInrqhrebGOgcYsvXN7N2+xqyCxIXf3+O+DE64Ob062c4+l/HYlaazMSKFSv48Y9/zC233DIvP41kYUnFsjabja9//etYLBb27dvHiRMnou4oTmG4Z4Q//r9v0N3cx+Yb1lO1vgIlhu/H50gMWlil5WQbx179gPq3GuMudJZlmY0bN7J371527NixJAvA2bDkrHA6nXzta18jOzubRx55hKNHj0bVfkwh6Aty8k+n6G/v57JtdVz+lXUUl5UswYg//TAMPaKUOz/EX//7CKffPBvTamAmrFYrW7Zs4d57713UTZN4kJJpbmpHsaCggF/84hcxBU0zcb6lj9G+MTo+7OKar21hw9b1adHE6VJG0B/kzDsNHPvvE7Sf7cDvib+18ZTQ6P7776e2tjalZIYUERoipF69ejU///nPqa2t5Ze//CWhUHySR78nQPP7bZxv6afh7Y+45ptXUFCZiyRfmpkQTQ8jS0sfb+qaTm9rH4f3v81Hx1rwuf3z8vk2m8386Ec/Ys+ePeTn5y+KNmO+EG63O+XuhaFQiAMHDnDPPfdEtUaYDZIsYXNa2XLLlWz71tXY5lFdLoSM05SJbmj4VE9cW76fhCIsOEwZ+FQv4QSatgM4TJkokpnxYGxR/GwwSTbsigNveALViC/m9U9aIL/1QsTSdr6G9RkZGTz66KPs2rUr6RLQRHHZmvXpQegpNDc3c+edd3L27Nm4NmE+iYxcJ9u/s40rdm1EMSkxc9dCyDgVFzr6Z4LQmqpHzBIPnOD13xyO6Zw/67VMJlavXs1TTz2V1EqTZCDtCA0wOjrKQw89xLPPPsvw8HBcWZBPIrs4i+u+fQ0rr67F6XJgddhmLfqQkCZVZoKA6o1bZTYTijBjVxwENN9ktcf84VAykCUTE6HE6i1NkhmrbMev+i5y/jQMg6AvwMS4l8a3P+KN374Vs0HPbJBlmdzcXG6//Xbuu+++pNUAJhNpSWgAv9/PwYMHeeKJJzh9+vS8wxCIhCL5ZXlsuG4dq69cRUFpHq5sF5Ly8QpSECmhMgw9ITJPQRYR1V8imuyp9ycDM32ddU3HPeqhv6ufxmONvP+Xk/R3DiTUCycjI4O1a9dy1113sXPnzpSl5GIhbQkNoKoqTU1NPPfcc7z88st0dHQkNFsDZBVksvqqOmrX11JcVUTh8nwU81QLhchiTNXDCZWBSUJGkUxoehgtQUKbJDOSkAhqiVkiyEJGlkyEND/BYIiBc4P0tvXTcqqFs+80RG03HPW8skxFRQU33XQTt912G7W1tQv2zVhMpDWhp+B2u3nzzTf5/e9/z6FDh/D5Eu8Hbsuwsay6kLKVpZTVLaOkahlly5cjKeKSjqHRBN7+IG1NbXTUd9LV2M351n78E4mNByKWtjt27ODWW2/luuuuW5A911LhkiD0FNra2jhy5AhPP/00x48fX/D5coqzySvJpaSylLK6Ygqr88gtyUYxz28GShWh1ZDKUPcwPS39dDV0Mdw5Rn/3ACNJ8D3ZtGkTd9xxB1u3bk3YBTQVuKQIDZEwpKGhgcOHD/P4449H7fkSLxSTjDPbiTPbQXZhFmUrSyhbVUphRT6uXGfs9y8hod3DHvo7Bumq76arsYfRXVovUgAAAvlJREFU/jE8o148ox7UOIVD0VBRUcHdd9/Ntm3bqKurS+vwYjZccoSegt/vp6mpieeff57f/va3UVvOzQeSLGGxmjHbzZgsJnJLsllWXUz5qhKKKgvJLsq8SEOyWIRWwyqjfeP0tffTWd/D+dZehntGCQfDhHwhgoFQ0pqdLlu2jN27d3PrrbdSW1ubtou+WLhkCQ2RdFQ4HKatrY0nn3yS/fv3MzY2/3RUNAhJIEkSkiwhSQLFopBXkkNJ7TJcuRkUVxfiyHSyvKISU6aSEKHdwx78gyG84z7aPmrFPTxBT9N5hnpGUIMqum6gazq6rsdVITIfZGVlsXv3bvbs2UNVVRUmk+mSLqa4pAn9SdTX1/Pwww9z4MABfD4fqqoueQs32SSTU5iFMye6eblnxMtI/1jc+uJkQQiBoijY7XZ27drFD3/4w7g7tF4K+FQRegp9fX3s27eP119/na6uLsbHxxNO931aIMsymZmZlJWVsX37dvbu3RtXI/hLDZ9KQsOkaeDgIK+88gqvvfYaLS0tdHd34/V6PzONN4UQOBwOSktLWbFiBddffz033ngj+fnxG/pcavjUEnomfD4fJ06c4MiRI5w5c4bW1lba29vjlqtearBarVRWVlJdXc2aNWvYunUrGzdujNmO79OAzwShZ6K7u5uGhgbq6+s5efIkra2tNDc3L2izJh3gcDhYsWIF1dXVbNiwgVWrVlFXV0dpaWmqh7ak+MwReiY6Ozvp7u6mvb2dxsZGTp8+TUNDA4ODg2kfc8uyTH5+PnV1daxdu5aVK1dSWVlJaWkp5eXlqR5eyvCZJvQUNE3D7XYzODjIyMgIbW1tNDc3c+rUKc6fP099fX2qhwhENj1qampYt24dNTU1VFVVkZOTQ35+Pi6XK2key5cyPif0LAiFQgQCAbxeL6FQiLGxMZqammhra6OhoYGenh4aGhpwuxen9bPL5aKuro6SkhLq6uqoqqqitrYWl8uF1WrF4XBgtVrTRlSfTrhszXr+f30xXetg7O2zAAAAAElFTkSuQmCC;" vertex="1" parent="SI2dGwVQrveodY6pXAPa-18">
          <mxGeometry x="97.28" y="40" width="40.45" height="40" as="geometry" />
        </mxCell>
        <mxCell id="mlNtqiJOjDmDWpQiY5dI-5" value="Objects Salesforce" style="shape=image;verticalLabelPosition=bottom;labelBackgroundColor=default;verticalAlign=top;aspect=fixed;imageAspect=0;image=data:image/png,iVBORw0KGgoAAAANSUhEUgAAAOEAAACoCAYAAAAW5IneAAAgAElEQVR4nO29e3Qd1Z3n+6ldVeclyUeyJdmWLMn4IRDCxlix2xhMGpPQ5EUYOiudNGRoVnpI6NybZm5myOqBdK9Oh87tdLOS25NOCNO5CfcOHZpFGJoQ0gQwIYDtGGz8wPhtLMmyrbeOpfOsql3zR6mko/c50pHOkVSftVj4Icl1atdv71/t/ft9v0pt3Rr7vSMH8fDwyA8i3xfg4bHY8YLQwyPPeEHo4ZFnvCD08MgzXhB6eOQZLwg9PPKMF4QeHnlGy/cFABgSehMSaUPKsGnulzRflrT1S1qjNgMJm7Mxybm4TZ/M/ueXCqjwKdQEFJYWCdYWKVQUCVaXCq4KO/NQwKdQrCuEdCXHn85jImKGzYBhk0jZAByPSM71STqjkjNRm56opDVh05ma/rivDiqsCQmKAwo1RQrVJYK6JYK6EoFPVxAKlAUEeh6XIyUfh/VRw6ZlwKa526QjKrkYt3kvIrnYb3MhMfJu+4VCIIc3KCEhKZ1BH5BQLKDc7wxUbYmgrkShqlhQW6ZSEVKoDHnJQq7oiEk6YzYtvRYXBiTN/TYt/ZKzMUlX0h4aD5jdcXepCghWlihcExasDCpUFgnqlmnUFisUzeFkPGdBGDVsDnZa/OacQctlSXvCpjVhEzedG5Prmz4d3IHyC4VlPoVVQYWqkMKHVmlsr9JYUeQFZLZcikp2XzB557zJhZjN+bhNd8oeus+FMuYAQc3JlpYHFGqXCH5/tc6mCnXWA3LWgjBm2FxO2Ry8aPLkGYPX261Zm+VmC3dRTkqb8yZsLRb8SYPOTdUa4aAg7PdS19FEkjaRuOS3bSY/PWawb0BSKmCZ5tyr+TLu6dnSzmUqn7tSZ9NKjSW+3L+y5DwIo4bNgUsmv201ee2CxcmYZJk2P4IuEyKmTVBTuL5C5ZN1GptWeiskOCvewYsmLzSb7Om0iJs2YW1hTFIJCd2mTX1IcHOVyk01GptXaDlbIXMahL9uNnj+tMHhHouu5MIZhPFISBACNpQItq/SuO9af74vKW88fijJ7vMmR/olUs6P1W66REybcr/CxqUqt6/TubVOn/HPnHEQGhIOXjJ5ZF+CA5cX1qqXCW7qEtQUHmryc0utvijS1EjS5tUWg0f2J4mbhfF+N5e4q+PmJYKHtgbYtEKb9g7rjIIwatj8+GCCJ86YC34GzISIabNzpcaDTX5qS9V8X86s0dJn8Z39SXZdNBd0tpMJbkZ0z1qNL24KTCtFnXbYdMQkj7wZ57ETBj68AAQIawq7Lpp89Tdx9ndY+b6cWWF/h8VXfxP3AnCQgAAf8NgJg0fejNMRy/5Ac1qh09Jn8eBrcZ5r8wZiNGFNoTlmc9+uGG+0Gvm+nJzyRqvBfbtiNMcW9vv+dAhrCs+1mTz4WpyWvuwm4GkF4Xf2J9nXa3kDMQHu7PjQ3gSRpD3l188HIkmbh/YmvKxnEsKawr5eJ1XPhqxv5/4Oi+e9FTAjupI2/3o8le/LyAn/ejxF1wKZUGaTsKbwfJuZ1etI1kH486PJoUN3j8nxC4Xd500uRadR+FhAXIpKdp838Qtv4s2EYuHESaZkFU6GhO6k7Q1GhgQE9Bk23fH5vYJ0x236DNtLQzPELxS6kzZGhnNvVrc1Zc3vhykfDJjD5W/zlYR0PodHdmQaL1kFYZHuFLaOrkb3GJ+EhFVBhXXh+b2ErAsLVgWVeT+ZzBVJaVO7RGR8Zpj103HbOh8D3mBkRFLabK6c/4XeYb/C5kpv8s2UAenESaZkHYRNlSq3V2tETG9AJiMhnXeDL24K5PtScsIXNwXwC281nIqIaXN7tUZTZeYVU9PKkx65McjOlZo3IBOQkLDMp/A/bw3NaXPobFKkO59nmc8LxIlISNi5UuORG4NZfd+YIMykyiPsV3h4W4BbqjXaUt6KmE7EtKkLKXx7e4DG8qlnw5Y+i6Nd+S1xO9plZVTl0Viu8u3tAepCipcJjaItZXNLtcbD2wIZvX6kx9mYIHx0fzKjrdUVRYJvbg/wlXqdiGkv+kFJSDiasNlapvL4rSG2VGUm3/Oz4ylO9OY3CE/0Wvwsw6KCLVUaj98aYmuZytGEvehXRffZ/0q9zje3BzLqLTWkE2cuY75jV7fk5yczG5CQrvD1bUF+/oli7qjWSA1e1GIiIZ3/ti4VPHNzkJ9+oihjXZr9HRZPnzMp9uU3ZS32KTx9LvMqj8qQ4KefKOKZm4NsXSqG7sFiImLapIA7qjV+/olivr4tmHHH/c9PptjVPXzDxp2unzqeYkO5mlE6BdBQJvjrD4e46WyK37aa/OqiRVIu7CJft49wa5nKR1Zr3HqFnpUoVCRp85MjSToLJJ3vTDnXs+7GYMa7ubfWORosv/7A4JVzJvt6rQXfVxgZ7J28o1rjphqNW9b4suojPNpl8dSorGNsEKrQHLN56M04T36iKOONBV0427I76nTuikh+cjTFi4N570IZGDfwXN2RL270sbFSm9YRxN/sTfBWmu5OvikW8Fa7xd/sTfAPH858Y6EyJLi70c+n1vk43GHy48MpdnU7n2uhjTvAx2t07m30sTqc+TmgS9Rw4qo5ZkPa+jbuShgQcHJActcvo3z7wyEayjK/k0W6QmO5yj98OMg3jQBvXjD5zVmD9yOSHsOmKzl/urDTu+ZdFa6bV+vsrNWmLYUYSdr8zd4ETzcbVPsUugukEmVAQliDp5sNeB2+keEGg0vYr7CjRmdHjU5HTLKrxeS1c8YIVb35Nu7lfoWlusLVYcHvr9G5sUqbtsjTsV7JX7we4+SAHJMhTrh74PbF/d3uOH98jW9aWhohXeHWOkeHo6XPorlfcrLL4t0eyfl+yYHLsqBmzPSVbnVQoWGZypUlCteWq9SUqtQvVWckEnusV/L/H0zw6kWL6jy/B05EtU/h1TYT3+44X9gUyGoCdqkMCT53lY8/rPdxsseitc/iUJfFiX6b030W5+J2wY775iWCVSWC65YK6stV6krEjFUSft1s8C/vpSbsw5x0Cy8g4FBEcnZfgo4Byd2N0xczqi1VqS1V2VGjE0k6M2N33ObddpODXZKDnY4yW5+EVaOuanTBeDYDN96GQXrlx4CEPgnrAwo3LFfZWK7SsFSwfqmaU3Xmty6Y/P2+BM2xwi+EDgj41UWL9yMx/uvWADdkuNM7Gl04xxqN5Sq3rBlWWT/VY3GsR3K4y2JPp8WphE2pYERqPl6TwEzGfXS1z3nTUeiuDwluqFDZVC64brnGsqBCUFNyVuX0P48mefz9FP3GxNc/5d0NCDAs+Nt3kzxzyuBrTX6aVkx/WQYndQn7FVYUOYN0d9rfXYpKzkQk7VFJV8ymMyqJxG2SFiSk839wuhPScQuMi0d9otLB6/SrENYVArpCeRCWhgSVxY4M/solM1vhJuNol8UPDw3rsRR6ALoEBLQnbP7Trhg7V2rcf60/44268dAFQyn8iiLBjprhvzMkXLxscTwi6RiQ9MQkXXFIGDYRY2ZjHhCKM/ZBx/qgPKSwvEiwNixmTaoyZtjsv2Ty6P7kUPo52bhnPMW56emXXo9z1xqdW1frM1KYmogVRePfHEM6Hy5pOd4FUVtBplWpuzOf+2GFqlCk2Ph0Z2bTBXPqM3GsV/J2S4r/55gxrzU4Xd2cPZ0Wf96gs6XWN60UdTJ0MZwpjSZmOC1BcdMmZYwc99FjDsPjHvAp+FVHqHeufCZc5cFfnzN48qyBXygZjXtWeUZAODPLM+dMXmoz2bhU5d4N/qzq5KaLLhhMERQIzfo/N20uRSU/PpTk7Q5rKPX0zdMAdHEfpO8eNaj7wGRLpcoXr/XPieixO3EWehH8/g6LnxxJcrjHot8gq0l3Wsm+m6K+1W7xfFuU+pDgs+t1bl+nz4pMeCHjOkoduGDy1AljaHt+PqWemeKmqE+eNfjRaWNIHn5zlZZ3Z6O5xrV5eP60wdOnjBFK89mO+4ys0QLC2U2LmjbfOpTk6VMG2yudl9yGlXrO05ZCwpV9P9lrcaBDsqvbYpmmFOyuZy4JawphnE27XbsT7FymsrlSUF+mLnhbgGO9kmMXDQ52SXZ3OJuJ1b6ZjXvO/AndYHymxeAX5xXqThrUlwjWlavsqF0YAXkpKnnlnMH7HRYXYjZH+uXQ+95iCL7RuJPwiX7Jvl6LoGayocSgKqRwdaXKR1brCyIgj/VK3mgxON1lcbJf0hyzhyrCcjHuOTcJdXPh9oRNc8zihYsm3zrkiENtLVPZvkrjugqV5SGlII050zcCuuM2R7os3mwzh7bSV2nD2+cL4X0vV7jjfigiORSB59pM/uztJOsDjnnOjdUaG8rVoSOAud4om4p0w9L2mM27nRa7zzuleANypKuUuzeSK2bVqde92PDg7w9FJPt6nerxcr9C3RLBFcFhY87igELIL6jwQTgoZnVnK2rY9KecQOtL2fTH5JBh6Yl+m5aIHDIsdQ+VGwO5u/FuoXtfgegD9xlQLJxrmslOrvs+FBAK4cGn6612i10XnfOEqoCgNiy4skQZMuYsCQlKfQrLggolvtkz6HR32CNxSWcKYknJQMIeMiz9IO44RLvSju7uZniKnztT5tQuO30GMSx4r1vyHnLIMLJEB5/imHO6ZzxFunPGE1Sdsz1NVVgaVAgODnbIPzZKE4MPeNSwGUjZxFI2MRMSKef8KZKwh84c+wybARN6zbGGpbk4Vkj3OHRlQTYvEXyyUmPtUpW1SwSNFfn1rbixSuPVj4U4c1lypsfi7Q6LA5edi3UrW2D6or/p4x41nVVmb/uwMWeZplCsOed77riHA855bsAnCGkQ8ikUpwVoYJyxiSWda45L6InbmJZNT0wStyASt4kaw2fN5+M2Kdum3xg2hnWvda6Pk/LqWZ8+a4ITmAbOSpRe8TC62iHdVnk8vZv0vxtdID1R9Y2P3KWW6bWHV5YIqkIKq5eq3FCtzejAe7YI6QpbqjS2VI3886NdFm+1mZzrcd6BXVvrmZabjU7noqZN1HQaB9KZrXFPv/Zcp5bTYUwQbipSMArAy2TkjRp5k8IT/Ho0s51GjKYtZVPhU/jYSpWrK1XqlgiuXKbOW9/7xrR2to6Y5ES3RfNlyfsdFi+1W3Sm7JxuSI0O7Pky7tNhU9HwZxsThH9QrfHkWWPeVnjMJe6Kd96EnaWCP9/kZ/sKdUFaaVeGBJUhwQ4gss7my3HJ7ktOb9yuPjm0YbXQzkZng4hpc1ftcEPEmCD8wtU+nm0pkP6aAsVNla8NCzZXCj66zr8gjmAyxan9dcrMPneVj2O9kpdPJznQITkUcW6OF4wTE9QUvnD1sCTimCBcuUTlnrUaPzllejdyHCKmzbblGp+sVrlxdXbd9AuVhjJBw5YgHTHJm+cMXmiz2NvumQaNR0LCves1Vi4Z3hsYE4S6gM9e7WdXmzUv2m7mgvSNlh/dEJx2N/1CpzIkuPNqP7estTncYfLQ3sS8auKebRIS6kIKn73aP+LobUK77EtRyd2/itGdWtyBGDEdHZnb63XuXJ+5qvJ0cAsFkpaNtCFl2PSb0BOXdCZsumI2iZSz5W5K6B3njLFMB01AUHW298tDChUBhaVBQYkGPl1BKOBX5+bA/NlTKZ4/aXAoIhf1czSkRfux0Jgqokk96/d3WPz3txOL1hA0BXx2tcY9G3LfMeD20LXHbLqiks6YUyjQGrUZSAwfB4y33e4yXuPrRFL17s8p9yusCTmFETVFzoF5RUhQXiRYHlJmpbfyUlTyxJEkT58zmd1prDBxJ/L/c0tg3I6jSYMQHHHaR/YmeKNr8QRiQoIQ8MiH/FmraU3Gpahk9wWTU90WZ/sk7QmnUKA7ZQ8Fz1ylbuniRX6hsMznHJgvDyisKRWsX6ayvSp3xdiGhFfPpnjonSRSLp6Nm4hps6Nc5aFtgQllMqYMQpd/fDvO883Wgk9PE9LZ9fzOzcEZbbq4LU7NfZJdLQYvn7fYNyCHZBwK9T0pXW+lT8LWYsFHV6nsrNWpKxUzblnqiEkefC2+4NNTN/28vU7lq1smV6/LOAjBqaB47mRqwZ4jJiR8bKXKV7dmpqQ8HoaEvW0G714yOdDhdBfA3JdC5RK3znVrmdOydN0KjW3V+rSD8VJU8o/7EvzqorUgAzFi2ty1RueOel9GFVJjgvDXzcakymoxw+bNCyY/eDfJgcvDjYzzHTdt+Jubpr8CPnsqxa4Wk8M91oLcFUzfJd64VGVnrTbtzaqOmOQbv40vmNechIRu02bzEsGfXeefUh4xPc7GBOFHnhng558qymgL3m3pP97rdBzM14fOTR3+7dOZix27uJPSX+xJzCttzZmSrsn67esD09LkjBo2n/636Lx9xXHvQVVAcFWZyFjqJZK0+cNfRHnlM8XAOOeE+wYkv/rA4HNXTT3DNVWqbLw5xOEui6MXDXadt+Zl+iUE/NXv+bMOwLcvmPyvEymea3MOphdTb2F64fMDb8T5eI3OH63XMzbCAUco+q9+z88DbyVm6zJnhfT0fOcqlcaVOhvLM99V/tUHBvvSKtDHvWP//F6Ka5drGZVi6cIJxqZKldvWOxsRrtqUuy1eyKtDQsJnVjvvONnw7KkU3zuYpCs5f5XUckVYU3ix1WBfh8kDm/xZpajbqnXurDV55lzhVmilb1YVC4bUButKRdavLsd6Jf/83lReFDhb5ne/FOVXt2fuMATDRb5bqjQe2h4ckgU42m7RHBuWwYfCCcxlPoU76jM/hjAk/HB/nMdOOJtTiz0AXcKa033z8O8SnO+zuL8pmNE91QXcUe/jtQsW0QJw9Eo/unFl8OtCgsblM5dp6YhJ7n4pihzVhjWhF0VCwoOvxfmvv5eZ2eV4NJQJGsoc1W5XBv+DHovWqM3xfsn7vXKokRbmPjATEnaUiaw+30+OJPnJKa8uciLCmuLUHfuS3HdtZortjeUqm8sEL7fP7W5pesCBU1h9zTLBVSWCmiKFK5bmRgYfnJOFv/9dYtwz0gkTeFcC/6E343ytyc+Omuy9KNJJl8F3y7MicUl7zKY1KjnWaXG835EXOBh1ZNEhu2qR8RivMRScMzAsuD+LALwUlXzvSNILwCkICPjekSS3r8tc6Glducpj50xQmXDspzvmLuljv6lIYV2ZE3ANFSo1gxVD4aDIeTnfG60Gj+5PTliLPaUXRXvC5hOvxvlWo8k9G7Nz6pmIYUFXldpS2AKwfuTXRJI2F2I2XQMWnYlhiYreuCSaAnNQhdl05SMGG5H9gzGlCdBUhSLfyDrKYp/CsqCgukjJ+izwB2nuqh5T84P9Sb55U2Y2a/dd6+e+a/1cikraojbdcclAamS9rDvuk405DI97WXBYGqMioFBerFIVyp3PxFREkjZPHE7w8FGDxsDEWV5GW1mNAYXHThgc7ZbcsVbnI2tzV8o1Ea5fBQXSpxdJ2rT0y4xn48WOXyi09EsiSTurh96xQYARBn7zDEPCK2dSPHfG4I0ua0qBsKy8KPb1SN7pS/LGeZM/bJwb+ftCIRKX9Bnz8zwrHwSEI6IViUvC/sXznOzvsPj50SQvtVtImdlRXdZeFODYZn2/OcrOUsHXmvzzWkclU8JBQamueD2WGZKQjnpaOLjwb5arv/Po/iS7+iRrfYOpZ4YffdpeFI2BYZempgqVj65QaarWZ2ykWaiE/QrrywT7eq28q3PNB5LSZn3ZwtPacTEknOyx2N9m8PIli/2dFn6hTEubdsZeFAGh8F63ZH+nRf0HJqtKBBvLVe5Yv/CkH75wtY+/O2YMidp6TMz5JCN0VBYKHTHJc6cMDndZnO+XnByQGVugTUROHic3GF3p+12D0vf1IacN5pPrfDl3QM0HtaUqP9jm57tHUouyOTVTUsAPtvlzcr6WT9IdpV84neLl844BTHoVWC6Oq3I+p6dL30dNmydOGzxx2qC+2PEC31ouqCwSVCxRp3VMMFsYEgzLnvJ86I8a/MRM+NExLxDHIyHh/kYff9Qw9UF9zLDR1bkz8ZwK93ik87JFR1Syr0sOrXbArBn/zHpiNdogZtdFc0j6fFVQIawrVBYr1IUd++qaJSrrwnPvdXc6Itl/weDuxskfHl3AvRv8lIcU/uStxPBL+CInIeFMyubxbQH+MMMywGdPpmiqmnvHLkM649162aJjQNIckXQMONbc5+P2kCVCLle7ycibF0XUtDkUcQ7ckx3DFQ5uR/cqbdg0ZnlAUOEfefha7HP8KALq2BuUsGziEgZSNh+qGN+GeTTSsnn8/VRGdl66gDvX+2go1/inAwn2dFqLSrIhHVcK5IblKv+yOZBxQF2KSh5/P8UPl2f2CLb0WbzTaWU87unFHZ1JaE8Mm72cNxlSOHAZ4bTF3LptFZQXBTgS5tWDvx5tGjMZ4wkiDUj40fUTa3ukI1SFc3Gbp99PZlx83FAm+M5NQX7bbPDUCYN9vVbBFKbPNm7d5dYyx613R52ecSuYIeHp95Oci9uIcYJpPI52WjywJzHuGE9U2ugy2uyl0DbWxlzO+hzaf+WC8QJ1PMbzHwgCShYfp0/Cz86YXFU5ubpAOiFd4bZ1PjZXaRy4YPLYewtXFn607P+Xr/GzuUrLehf8tVaDJ86YTv1uhigKVPiUMe/h88F3YjzS42xMEN6zVhtq01lsuIXDf/p6nCdvJqui9cqQ4LZ1Pm5b52N/h8UrZ1Mc65acjUn6B/VB52NAupL/JTpcWSJoWCb4yBrftKul3mg1+NPX41T7lKH7vdiImDZfvnISL4pbrvDxzDmzIJyZ8kW1T+GhvQkeSNjT0lBxmpyDRJKOEvXJLot3eyR7Oq2h1q1CnuTczvGgpnDDcpXrlgrqy9UZK4+7jdCL0Vo8nXK/wi1XTOJFUb9U5TOrF+9q6GJY8Pf7kxzrtHhoe2adAKMJ+xV21OjsqNGJJJ06yuMRybsXzaEzJ5d0M06Y3VVztPdjutdffUhwx2qN61ZqXBUWOXOYemR3nBc8oyFnFVzrVJa5jOtFcc/GACcv2+y66DWvPnnW4O0Oi681+Wlakb2YkUu6k9GtdTpfH/zzY72SY10m5/ssuuLQHpMjHIRTtk3UYkTzc7YENYUi1XFBTnfEXR4SlAdhValKQ3lmcibZEDNs9l8yeXR/kpMDctE/SxHTZudKjXs2BkZs/I27TxT2KzzY5Of8b+SiL1gOa06N7ANvJfhElcbnN+TWBs1RHxhOTQwJ3XFJbwoG4pKEZRNN2tg2xA2bgcGGaFcKIp722hAcnFyLNOcAvFhXCOoKigJFfoWAqlAcFJT5YFlwds9ij/VKfnYkyS8vmBl3EyxkEhLqiwUPNvnHZBYTbtbWlqo8cmOQh96ML/pZzJ2EnmkxONxjcf0Klc9f5ZuVsixdpPXUTRDsRga7ivmqQmnps/jZ8RR7LlnDz80insTBWQHriwWP3Bgc95mZ9MSksVzliY8V8f39iQWrup0NYc2pj33itMEjxw3uu8KR+ZuO6tZMKJQyL5eOmKOy96+nDB7/wGCVhieCNYirxv1/NE2sSjHlsWXYr/DgtiB1YcFPjxlcSCzuVRGGD3xfbTN5sdVwrNOu0KgbfK+abbuxQiBm2BzrlTR3mTz/gTlUqDCdVp6FSMR0RIG/ssGpo51s4syodkAXcHejn+uWa/zwUJL/r9X0aiYZLsM7FJHsO5CkKmCwtlihaaU2Y3m8QsWVsdx/0eTMgD2kvL7YJ2YXt4b2P9Zo3H+tPyMlvzFB+NTx1ITq243lKt+/JcTnL5j827EUewc9Fxb7ALjBGDVt9vXYvNGV5FuHkhQL+HiNzvYqlQ9VqAR8CkW6krXSdz6IGjZRwyaRsnmn02L3BYsXW8cKOi/2sXeJmI5Hx44Kle83+LhhCiXy9Dgb85X//F6Kj12hT3o2dEOVxtYVGgcvmfz6nMFLbaYXjIOkt3KBk7I+3WxQLBzZ9NoSwbqwQmWRYFnIkdlbViTyGphRw6Y76shPdsckHVHJ6YgjbLWv12JAwrLBd7z5WiY2W7jBd1eto8q9aYU25Tt7JGnzz+9NEoT7BiSvnklx59VTt/RsqdLYtELjC5ctfttm8t0jKU4l7AVZNzldAoKhCpET/ZJDEUmyxR5q53KNOcO6wrIiheoSp6VrWVBQ4SNnAeoGWmfKOQLpGJC09Uu6o04Lj2tYOl4bjxd4w6TXz64PKPy36/zcVK1l5XD86pnU1F4UjxxOUVEiMqqd1IVznHF3qcrdjX6Odlm8+kGKAx2S83HnnQG8tMVldDtX1ITm2GBL12CnyMCoIwi3tSu9DxPAGhw9XSgYg9+rDhalpPfFua076bidB+kdBjD3bTzzAbeMryoguDKosLlScMsVmXkPjuaNVoNHDmfgReED/vp3Sf7faUiAN5arNJY7dZOnI87u2cEuyeEea6hDuRBXyaqQQp8cbqOaS0Z3ioxeedKvKWranOh3HorEOOeF6ffVDahCa91x6ZPOfS800uXx64sFH12qsalcUFeusS48/TK+lj6Lv/5dckwnyITD052y+cu3Enx9e3Bau3xhvzLk1vQHaS/5v21zgvJg57B9NMxt7eRE11tobVxTUWgTWbasD+RHc2ii2lnXHvyGCpVN5YKbqrWcbaYd65X83e7EuF6MU3pR3P1SlG81+Wekuj30IUI4aevgn7uyca19Fid7ndrJSMJ5RxldOynlxB4Dk2Fn8S1favB5XhNzRMS0eWBDZoYx4Ixj3LSJZ/nv+IWCEIypnQ3rCuGAQnkQ6stUakrVWZHrdNW4H96fnFB9YUovCoCv/S7Bl/ssPnu1P6fCTLpw01eV29Iu2q2djBk2saSctHYSGOrXcylJe5WtLcs8nb6tTuPpU0ZBWHQtdKoCgtvqMs+Ta8vUET14k435RLWzIb9TSDEXtbPgSHg8/X5yuCNpJl4Urt3VgQ7JbWv1jFx8p8uI2klgIk+C9PpJwxoZNHqaZEI2N3hx6v4AABIpSURBVLq2VOVPGnT+9l1vNZxNIqbNVzZkV3vbWK5Sv3S4pSxXYz5bPHU8xb+fMTgUmbrCLOOpyE1Pd+1L8NTxFF9r8s+4yXMmpN9oPYeK2Hc3+umJyUXfTzlbuF3lU6najcdsjXmucJu4H92f5MBlyTItsw3IrL0oqn3D8vc7ylX+wzqdTSu1gtEPzQX3NwVpicGLrV4g5pKIafPxGp37m6bXJF2oXIpKDl40efoDk73tJn6RnT7ptL0oAmLQpemdJBtKDBqWiVlr75lrdAHf2BYgpDjtS14gzpyIafOZWp2v/V6gINLFXOC2bR3rlhzpl9Pum5yxFwU4aeq+Xot/OmlQHxLcXqdyx3ofAZ9CWWDuhXxzQdiv8M2bgmw6pfK9g0mvLG+auGVd32oKTEuvp1AwJPQmJImUzXOnUjzfPFYSf7p9kzn1onCl7x874UjafahU0LhMcFWlRs0Sldri+VG8nM6d633UhVV+fjTJc22e3Ec2REybO6q1eetlGTVsWgZsWi9bHO8wOdoteadPEjftnEriz0othfug7uuRvNFlETxjUhNQWB5QqF3ieITPhqbJbNFUqdJQFuT3L5j8xZ7EiNpKj5EkJHSbNhU+he/tCHJj1fR1efKBq/lzrNOi5bKkPWHTmhhZT5vrsr5ZLWhKr5N0vChs3uiy4KwxVKVQHxJcVebYqa0uFVQXCUo08OkKQgH/oGHIbBuHuFqhX982/qZBSFe4tU7n1jqdZ0+leOmMMWJWXOxETKcofetSwR+s1TNKPf9ub3xGGqaZ4Br9GBKSlo20IWXY9JvQFpWc65Mc7rI43iuH1O/S62rnQhY/b14Ubn1k1LR5q90xinEDc3VQYamuUBJUWB4QlOnOYezoQ1gYqbAtdAVpOOdH7uH+h6q0jDaLQrrCy+ct7onKKXd671zv4w9W67zRbLD7gsVv2hdvK5f7zveZKqdvMlM5/EtRycvnLW6/MrN71tJn8c4Fc+jwHUaONwxXR40u6ug3oNdw/Cj64zY9hs25uPPF6e90+dJDLYjS3tE9eIYF7Zazck7mQ+GWJI2HKxH4qK5kvGO7b8CpcPjqlqm30IsG5e9vqrP506gcelnfN7AwJfBd0lt5thYL7m3wcVudRnlRdrIeT7+fHNHOMxVHOy0ePpAEnG6S8ZistHF0t0ghCRCPCcKtxaJgyrYy9aEYD5+mkCI7L4pSAY+dMKgsUTOuCgoNBvlXtwT56hZnxv73ZpOj7RbNMTnmfWK+4QZdUFOoCSjUhQSNy1Vuq8sswxiPp46neOyEkZUMvqI4wTfpqIjpPSv5YGuai82YILy9Tl3U1SJhTeGb7ySoLlKy8qJwqS1Vua9UHfLAa+42aeuXvNsjOd4rh/orCzUo09t4qgKCpjLBdUsF1SWCumXajL0j32g1+OY7CcKawkCqMCb7uSZi2nx+7XDojQnCj67z88SZxS1XHtZm5kUBzoF/urBvuvXykS6Ld9otDnY6Z01u0246uW7rGt2+k47b9Fsfctp4PrRcZUO5mnOLc9eLYrFO8C5BTeGj64bL9sYEYUOZ4M8bdL571CjImXquMCx4YE+CXS0mj9wYnPGD6MjgK6wocoqRP3fV8N9dikrORCTtUcn5Pot+AyJxp6UrOaiw3Te4ATEwOD+mJunR8g3m4MWDo1s6+K7mV3FaeIIKJbojf7+8SLA2LGa17DCStHnozTjPt5kF9S6WDxIS/nPjSCW+cTdmPn2Vn31dctF7UVT7FHZdNPnzV2L88TU+bq7RZ+WYxOkaGfuD0xXPoraCtBwHWgBXIEGmdRO4hpvu2h3yKQhVoUix86L0ZkjHi/Bf3kuxr9da9AHoelF8+qqRxesTelH85fUB9jwfJbLIz8HCmqMrenZfgudPGzzY5J+z+tj0Zuj5RkufxXf2Jznc46zsi/kZguFz1L+8fqwS94TzemVI8MtPFbFtuTaulsliIiCc9PStdovbXojyX16Pc7TLImYszo2FiYgZNke7LP7L63FueyHKW+0WhjX/ZThmSkLCtuUav/xU0bh2CZOeE64oEvzfNwT4yeEk/3TSWPTphHue+WKrwYutBnet0dlSrbGxXF1QrVzZcinqVJ283Wby5Fmn5X2xr3wubSmbr9Tr3LvRP6FfyZSH9ZUhwf+1NUh1ieC7R1IT6mQsJtwH7MmzBs+2mGwoEWyuFHx0XW5t0wqdY72Sl08nOdDhtPJ4JXzDJCQIAX/b5M+tF8WtV+j85HCSX7Yu3jKtdNzP77ZyPXzUYH1A4Z61GtdX69SEBUt8yrwqYJ6ImGFzOWXTGpHsaXO6ZEYLPXt6pcNlfHes1iZd/dLJqmytMiT4+rYg26sNfttq8myL6c1+pJXdDd7Nx04YPHbCoL5YsKVSpaFUUFEiqCsRWSk15xNDwsXLFs39ks5+ybE+ydsdw9qxYc1zYErH3Xi5a43OTTVaVoUe06od3VGj07RC4wtXS/7xUIoXW533gEKtAplr3EmpPWEPvSOV+xXWhARhXaGyWKGhQqUurHJVWX59KFyihs3xXklzxOJYp0XHgHNOeTYm6Uo6G1Ce5+BI0quLPl6j89VrfVnX0MIMCrjdmsl/+HCQbyQD/OoDg9fOGSPssryAHA5Iw3K8KBISkh32UDtXn4S1PoW6kMK6MpX6UkF5SKGmyDGLAaetC8AtovGrIwdZE2CO2sFODp4fusUxqcGd3PaYTWtU0hWzOdkn6Rpw/DHOpGxKxdg2nvTP4DEceFUBwcZihZtX61MaKE1FTroown6Fz13l4/a1Okc7HTHfXRct9nRadKbsjFWnFgOj27lcifv2hE1zm8mLrSOPPdKNY0p1Bb8KetpMG9AUQgrEbEikFd4bg9U2roiy60uRjhtoAYGXWk5CeqPyDctVdq50xIIbK9ScvO/ntJUppCtsqdLYUqVxy1qbSFzyfpfFC80mezqtoRd5KLzUNZ9eFC7pAZqOaxzTnrCzOrMdz5eikChEL4r0FNN1Xrphucon6zSuLlcJB6fvRTERs9ZP6NRKqtSWqty2zimkuhSV7L5gcqrb4sJlm+aYHDNLj+77mivCfoVNRQqGNbf/brYU0sQ1UzYV5deLwg229GyjLiSoWqKwfpnK9qq5kfKc06beFUXC6UpY7/y+pc+iPWbTa9gMRCXno5KW2MgO6K6kPeQOOxH+UatHepdANl4Ud9d7XhRzRcS0eaBh+l4Uk435aNznp9w/UrGhNgSrigTFRYIyXWF5KPMG8FyS18762lKV2tLh3xsSUpZTtOxqgYCzmZCwbDoTNl0xm0RKDnkRJE3nfWg0riSG50VRmEzXi8KVqhhNSAH/4I8r0SHgcza4KgIKAVUZscklFKcu1zfLukWZotTWrbHfO3Iw39dRMPz76RR/sS+5oNK+QiMh4dtb/UOvKYsd71EbxS1rfNy7XhtyZ/XILRHT5t71Gres8QLQxQvCUejC8aLYuVKjbZHKL8wWbSmnn+7+pmBBpIGFgncrxkEX8N2bQzx8bfbOQR4T8/C1fr57c8gLwFF4t2MCdAH3bvDz19cH0FW89HSaREwbXYW/+pCfezdM3k2wWCkI3dFCRRdwa51OdZHgh4eS7LpoFlyRQaHiHnrvXKlx/7V+GsvnnxfFXOHtjg5iSKddZ7LD47cumPyPd5NDNlheMI7F7aPbUCL4T9f5uaFq4nk+krQJ6YVxTJBPvJVwkJM9Fq9+kJpUffuGKo1rlqnsaTV4pc3ixVbDWxkHcVe+j9fofKRa5fqaqYuanzic4JYrfIt+lfSCMI3nmy0+e/XkXhRhvyN/v6PO5o86dZ44lmLXRUeHcLEFZHqd5c6VGvc0+Li6Qs3Yi+L5Zotbrpjtqyx8vCAcRKgK+wYkPz6U5D9vCUxZHV+UVqweNWz+18kUb7c50vfpja8LDXeDqr5YUBcSbKlW+Q/1vqx6Ig0JPz7keFEIdeHdo2zxgjCNUgHPnDOpC6e4uzHz44kiXeHuRj931tt8EJGc6DA52CU53GNx4PIoN9d5hrvaDUjYvETw0aUam8oFV1ZqXBHOvoEV4F+PJXm2xczKi2Ih4wXhKAICHj2UorJYcGtddl4UIV2hsVylsVzltjRNlnc7LXafN3m20xp68NzAdP/NfJPeWeCaJfVJ+PRKlR0rNK6rUHOimfPrZoNHD6UK4jMXCl4QjkNAwANvxPlaj8Xnr/FP66EL6c7DuqJIsKVK475r/fyUYSdYt50rYtj0GU7HSNRiRONtLoN0dPsOOC08RSos1RVKdYWwrgy18eTaSTlm2PzsvSSPHk0tyDR9JnhBOAFhTeH7xwya+23+rMmfs76yIZOYwXauSNLmQsymJy7pj0liKZvepNPC1ZmEnpSNTNkjOuTTffjSLf7SpSmEYERHvvApLPUpVPidlp4yv0LIp1ASEiwNCqpCs9fbdykq+cH+JL84v7htFSbCC8JJCAh4psWgpV/yx9f4sk5PM8E1imHUqhMzhi2eYaxWTCaMp02jC+ZUgvHXzcNeFF4Ajo8XhFPgelHsej3O5iVJHrkxOO0NiWwY/vnz78GNGc4G1UNvxjlwWbLMU2mbFC8IM8D1M2+O2fzHV2LcWauxpVqbNZem+YohYW/bsCatlIVlS12oeEGYBe4GyZNnDV5qM3nltMG2Wo1PrfUt6mA0JPziTIq9LSZ7e6xhdfZFfE+ywQvCaRDWHEGol9stnmozeWBPgq/U6+ys1akrFZQFZmYpXegYEnoTkuY+ya4Wg3866ehNuNKWXuqZHV4QzgA3TQV44rTBE6cd6ftP1WnULFWpWaIuKIOYY72S1ssWrT0Wv2g2aY7ZJKXtpZwzxAvCHJEuff/o0RRBTaEmoFBfIlhX7gjFXpcjsdi5ImbYvNtpcbTT4nSXxcl+SWvCHvIfmUgn1SM7vCCcBdIDsjlm8cJggfeAhPqQYFOF6pR+laksDykEfEpejg/Sj0ESKZv2mM2JXouDXZKDnRYnY3KMLH4higjPd7wgnGVGy95HTZtXB+XuByRU+BQ2lAiKAworgwo1RQrFunOQXuRXCPkFAQEl2rBcn19V0AaDw5dWAJ0aPFM0BwPLlY3sN52KmVhSEk06vvcDhk1r1OZi3GYgYXOkX9KZskfUuXpp5tzgBWEeGLJSG/z9iX5JIjJ+SZlPcapewKl8AfCr6T9rOFASad+fHFQS7xs83B8wIWWPXxrnrnBe0OUHLwgHybcnwnjvV4YFBo4PBczMi8Kl0NLJfN/3QsALwkHCfoX6kCh49e2F1H2wOpgfL4pCYwEN6cz57Hrd0xqdI9pSNp9Z7a0B4AXhCO5Yr7N5icgq5fPInsRgg/DnsmicXsh4QZhGZUjw5Wt8CyrlK0QCAr7U6KMy5N1o8IJwDLes8XHHak8Cf7ZoS9ncsVrjI2s9LwoXLykfhS7g69uCRFPwywsm3qOSO1LAn6zW+fq2iWUlFyPeSjgB37gxyJcafKTyfSELhBTwpQYf37jRC8DReCvhBLheFA1LBV963fGH9boDsseVSPzRh4Nsq/b6L8fDuyWToAvYUaPzmzuLuWuN7hnDZIFrBHPXGuf+7fAaoCfEWwkzoDIkeHBbkFsvmUOK2/NVR3S2STeCuafBx6YVmhd8U+AFYYboArZUadQvUzncYfL4+yn+7aLFKs1LU8FZ+c6bcGeFyhc3+thYqXnVMBniuTLNgKNdFs+dTPF2hzXU4LqYAjJi2viFQl1IYUulyh31nrnLdPBWwhngqG0HaelzGl/3XLT4TbtJV9JesOmqm26W+xU+U6Vz/UqnYbm21Au+6eKthDkkatj0p2x2XzDZ1WKy66LJgCw8yftMGS2NXywc96WdtRrbqzRKfEpWRjAe4+MF4Syzv8Ni/0WTcz0WF2I25+M2vaY91NNXKCtmus1ZUFMo0xRWBRWqQgqrl6o0rdRoqvRWu9nAS0dnmaZKdejhvRSVtEVtOi9bdEQlrVGblsuSMwM2F8apGs91gKYHWjpVAcHGYoXaJYKaIoXKIkHFEpXqIiVn8v8eE+MF4RyyokiwoggYDMqY4chMuDIU7TGbM5clHf0WLTFoT0gu9jsrZ2fKpm8a3R2lwpHQKNMU1pUoLA8IakNQWaKydolgeUgZks0o1mfmuOQxPbwgzCOhUQ99bSlsqcrjBXnkBS/X8PDIM14QenjkGS8IPTzyjBeEHh55xgtCD4884wWhh0ee+d/gQPINCUM3FgAAAABJRU5ErkJggg==;" vertex="1" parent="SI2dGwVQrveodY6pXAPa-18">
          <mxGeometry x="345" y="35" width="66.96" height="50" as="geometry" />
        </mxCell>
        <mxCell id="mlNtqiJOjDmDWpQiY5dI-53" value="Caso de Llamada" style="shape=image;verticalLabelPosition=bottom;labelBackgroundColor=default;verticalAlign=top;aspect=fixed;imageAspect=0;image=data:image/png,iVBORw0KGgoAAAANSUhEUgAAADMAAAAxCAYAAAB3aZEhAAACEUlEQVRoge2Zz2oTURSHv5uZdPonaqggWsGAbnRrX0Po1iew2xZfwk1fQrpxGfAJdF1wpXXRhdBUIm0o5A+ZSeYeF6nKkE6dzj2k02Q+yCY3Oef3cW8OmRnT7XaFOaFy0wE0KWWKSilTVPwrV20EnSbSO4Dx+YwiXeDXMbVNWN+CylKmr5jU0WwjpLUH4Q/NiNcnaGAev80klH7MOs2bF4FJhk4z00dTZaR3oJbHlaxZ0ndm1r+Rq8iYZYGmWQ6MfwdTvY8xJvG+iGCjU4h72i3/oitjqqw9f4fx7126bEfn9L/ugIxV2/5B9ZitNLYvRAQRm3iBUKnWWX7yRrNlAtWdMcFDAKL2R8KfHxJrwcZrlh68ohI80myZQFVmeLyPt7zBuHc4tRadfcaGv4iHJ5otE6jK2P4htj8tAiBhi1HY0mw3RW4Zb/UZXDK1rouIwOiMeHDkVAdyynh3X7L6dBdwE/mHMDjaI+5+caqSa5qtNLbREwEwKlMuh4zBeGvOjaeq+jXnGnP1d6aUKSqlTFEpZYpKKVNUFl1GEDtUDyLxwLlGrp0Jj99Pbt1qYSOik33nMrkuAUadT8T973i1F7ifVEvc+4YN2451HC7ObNhWCaDJog+A4pIu49dnGOM/ZMySKmNqm2pZXMmaJX1n1rcgaGjlyU/QmGTJQPqTM5ijx4C3kAWZZreQUqaolDJF5Td++6uKxwkF9QAAAABJRU5ErkJggg==;" vertex="1" parent="SI2dGwVQrveodY6pXAPa-18">
          <mxGeometry x="835" y="31" width="51" height="49" as="geometry" />
        </mxCell>
        <mxCell id="mlNtqiJOjDmDWpQiY5dI-18" style="edgeStyle=orthogonalEdgeStyle;rounded=0;orthogonalLoop=1;jettySize=auto;html=1;entryX=0;entryY=0.75;entryDx=0;entryDy=0;fontSize=10;" edge="1" parent="1" source="mlNtqiJOjDmDWpQiY5dI-11" target="mlNtqiJOjDmDWpQiY5dI-16">
          <mxGeometry relative="1" as="geometry" />
        </mxCell>
        <mxCell id="mlNtqiJOjDmDWpQiY5dI-19" style="edgeStyle=orthogonalEdgeStyle;rounded=0;orthogonalLoop=1;jettySize=auto;html=1;entryX=0;entryY=0.5;entryDx=0;entryDy=0;fontSize=10;" edge="1" parent="1" source="mlNtqiJOjDmDWpQiY5dI-11" target="mlNtqiJOjDmDWpQiY5dI-17">
          <mxGeometry relative="1" as="geometry" />
        </mxCell>
        <mxCell id="mlNtqiJOjDmDWpQiY5dI-11" value="S3&lt;br&gt;Habitualidades" style="sketch=0;pointerEvents=1;shadow=0;dashed=0;html=1;strokeColor=none;fillColor=#DF8C42;labelPosition=center;verticalLabelPosition=bottom;verticalAlign=top;align=center;outlineConnect=0;shape=mxgraph.veeam2.aws_s3;" vertex="1" parent="1">
          <mxGeometry x="826" y="250" width="40" height="40" as="geometry" />
        </mxCell>
        <mxCell id="mlNtqiJOjDmDWpQiY5dI-16" value="" style="shape=image;html=1;verticalAlign=top;verticalLabelPosition=bottom;labelBackgroundColor=#ffffff;imageAspect=0;aspect=fixed;image=https://cdn1.iconfinder.com/data/icons/bootstrap-vol-3/16/filetype-csv-128.png;fontSize=10;" vertex="1" parent="1">
          <mxGeometry x="980" y="180" width="40" height="40" as="geometry" />
        </mxCell>
        <mxCell id="mlNtqiJOjDmDWpQiY5dI-29" style="edgeStyle=orthogonalEdgeStyle;rounded=0;orthogonalLoop=1;jettySize=auto;html=1;fontSize=10;" edge="1" parent="1" source="mlNtqiJOjDmDWpQiY5dI-26" target="mlNtqiJOjDmDWpQiY5dI-11">
          <mxGeometry relative="1" as="geometry" />
        </mxCell>
        <mxCell id="mlNtqiJOjDmDWpQiY5dI-31" value="" style="swimlane;startSize=0;fontSize=10;" vertex="1" parent="1">
          <mxGeometry x="202" y="-190" width="845" height="220" as="geometry" />
        </mxCell>
        <mxCell id="mlNtqiJOjDmDWpQiY5dI-33" value="" style="shape=image;verticalLabelPosition=bottom;labelBackgroundColor=default;verticalAlign=top;aspect=fixed;imageAspect=0;image=data:image/png,iVBORw0KGgoAAAANSUhEUgAAAPQAAAA9CAYAAACayESCAAAgAElEQVR4nO2deXBVV3rgf/fe9+59i1aENrQB2hASYt+EzWZWY8A2q8HuTCfpJJWk3eNJd2pqpmo6qepkMqmpSXU66Z4knU672za7MTZms7ExSOwIhEAS2iWEVrQ9SW+/984fD9TYaHvvgehm3q+KEird+53v3nu+s3znO98RbDabTogQIZ4LxGetQIgQIZ4cIYMOEeI5ImTQIUI8R4QMOkSI54iQQYcI8RwRMugQIZ4jQgYdIsRzRMigQ4R4jjA8k1Lb76GVXUcY6EO3hqPnzkOKTXgmqoQI8TwhjHekmHbqIOLZX6P39CC4PeiyEaInoK/6Q8RlG8ZTlRAhnjvGt4e+ehbhwP9C72pD8PajGyMRPL3QFgnNP0KLSUDMmzuuKoUI8Twxvj3095ajN9UiGK2w/c8hcSp6XSkc+QW47JC7BOFv9oybOiFCPG+MXw/d0Qy1xQhyJNrSLYhrvwXWcJi+AOpqEIqPwe0v0Pu6EcKjx02tECGeJ8bPyz3Q5/upedDTcn3GDAiRMejJ2aB5wOFAdzrGTaUQIZ43xs2gPVFxAOiSGeHip9DR4vu9qQah+FN0yYxuigz1ziFCBMG4DbnF8Ei0hVsRr34K1cXws3fQJ6RAew1CSwM47Ggb/wjRZB4vlUKEeO4YN4OWJBF91w/Q+20IFefg2mkEgwm8TlAl9NmrETZ/Z7zUCRHiuWTc16Epu45++RNoqAH7AHp4JOKUHFiwFjJnjKsqIUI8b4y/QQN6dwdCRwu62w0mM0JCMoRFjrcaIUI8dwQ85Nb7e6GnC8Hr8fteISwC0jIRlKc/X25qaqa5pZnWllZ6+3ye9sjwcGJiJhAfH8/kyWkYDP6/hoaGhiemY1JS0pA62O0OOjraB3+PjY3DYgnunVVX12A0GkaV19nZSX9/f1BlPSQsLIyYmJgxXTvS90pOTiItLW3U+1XVVyc9Hi8ZGenBKf+Ab36L0Z6ps7OTxrt3aWtrZ6Dfjt3pwGIyExs7gfiEBFKSU4Z999XVNQAYjQZkWSY2NhaA1tZ2kpMnjain3zVZu3MT4cpJaLkDzn7wqv6KAJMFzBb0vNWw6CWEp9A7X79RwsWLl2jvuE9frw1bnw2HwwmA2WzCarUQZg1nYmwsc2bPYPHixX4Z9nvvf4Db7UFACEpPu8PB9//iHeLiYh/7W09PD//803/BYjajaTr5+Xls3fp6UOX95Cc/Izo6ErvDwZtv7iJ/Rt6Q1126dJmioksYjVJQ5Xk8KqtWLWPFihUjXldeXkFh0XmaW1qH/V6REZHEJ8SzfNlScnKmDSmnpaWZPXsOEBERRl9/P9/61m5m5ucH9QwAH398lLKyckRRwONRefvtPx3yutbWVk5/cYaG+ga6e3rp7+/D7fLg9riRjTLh4VasYWFERUaxaNG8IeudKIoUF19j2bJlfPnlGWbNmgVAcfF1du7cPqKeY67BXq8Xw6m9CEWHoLEOwdGNrqkEOl4XRAkqy6DkBNrGP0fMCv6lA/T29nL06DGu37hJY2MjqqoiSRKapqHrPm0dDgednd0IAlBRQW1tDaWl5bzyyjpSU1PHVE5Z2R2cTieCEJxB9/TYcDiGXnv3eDwUF5cQFRWBpuk03m1k8eJFJCWN3EqPxPXrpcTFT8Bm62PjKy8Pe11rays3b5aimOSAywJwOJzMyJ8+7N+9Xi8nTpyisOgCDQ0NuN3uIb9XT08vd+/eo6y8goaGuxQsXsCmTRsfk5eSkkxXVyd19fWoqpc9e/aTO316QKOwhzQ2NvLpp8cZsNvxeNwULF5EVNTjndDVq9c4ceIUdyqrGBiw+xzBuj74HHbs9Np6AdA0nbtNdykvr2THjq1ERv5GXlLSJAqLioiNjcXucFJbVwdA3xhGTGN/yk9+Dcf+BaG7BXQdBBF9Uh5iAC241tOG0HMP2hsQ2uuh7T76n/wIYerwH34sdHV18R+//DXXr9/A6XQiSRKqVyUiIpz4+ATCwy1IkpGBgX4673fT3NqCQTLQ0tJKU1Mz7e1tvPXWbtLTp45altEgocmPVHY9MMOWjSN/AtlowGg0AmCz9bN//0HeeeftgMoCUBQZo9GIosiI4vBhCKIoYnikbCCgZ/QaRx7BHT36KZ8cPU5PTw+yUXnsewH09dlpa2ulu6cXRZKoqqqiva0NTYNXX/26USckJLB7907+6Z9+htVqpaKikqKi8yxbttRv3R+yf/9BBux2jEYDFouZXbt2oijK1665UVLC++/voaGxCaPRgCAIGCQjScmJREdHIklG+vv76Orsobm1BUWWaWlppa2tHYfDwXe+8weDQ3BFUZAf1C2r1Tc6AwgPDxtV17EZ9M0rSEd+DPY+UD3oWYsRClYjxGeCwf/YFKG/B73qKnrRSXD0I1ReRX/3h/Dffw2yyW954JvjvPfeHoqKLmA0GtB1iJkwgTlzZpOeMZWYCTGYLSYkScJhd9Bn66Omro7i4mJqautRZJmbpbf55S9/zTvvfJcJEyaMqVy320NBwSJm5OXh9Xr91tvtdo+5LEWRKTp/kaVLX2Du3Dl+lxUImqYRO3Eimza/gtfj//RKVVUyMoZuIEtLb/HRkY8ZGHD4elBBZ82aVeRMnzb4vQAcdiedXZ1UVFRw5sw5DAYDff39fPTREVJSkh57F0uWFHD69Bmqa2qRZSMHDn7IjBl5Y37Pj1JScpOLl66iKDL2ATubN20kLe3ro7iuri7e+7XPmBVFxul0sWDBXGbmzyRxUjxhYWGP1buiwvO0tXcginCusIhJiYls275lUObDaUJebt6gIff1PYEe2utVkQ78GGwdIBrRpy9B2P59mD4bwRjYcEwA9BmLEVJz0X/1t4AF4caXaFfPIRasDkjml2fOcPZcEUajAY/Hw7RpWbyyYQM5OdlERw8dfTYjP4+cnGxOnz5DUeF5zBYzpaW3OPThEb7zh98eU7ler5esrAzWrHkJVQ3AnwBI0thHObqus2fPPjIy0r82THtaaJpGeFg4a1avCvj5hsLrVTl46CP6+gaQZRlN09i+bQtLliwmLi5uyHtyp+eQEJ/AwUOH0TSNvv4BPtizl+nTczCbf+NgslgsvPHGNn74V3+D2Wyi6V4zx4+fYvfunX7p6HA42LvvALquo2kakyZNYu3ax+vnZ59/QVVVNRarBYfdwZq1q1i7dg2T01KH/LYz8vOYMnkyBw8dorHxHqIocvTYMebOm8PUqVMAyMrKHPz5UMZY3v/o3WtrI0Lp52CwohsVhF3/FWYuhACN+SFCTALCyq2w7HUEVw+6MQzhk58HJKurq5sjHx9FFAV0XSc1NYVdb+ygoGDRsMYMYLVamTN7Njt3bGPmrHzcbg+KSeHz019QXVPjtx6SJAX0b6xomoYsG6mprefUqc/81i9YAn2+oZ6xqamJ0pu3kGUZl8vFSyuXs379umGNGSAuLo7169exaeMGHHYHsmykqqqG6zdKHrs2Ly+PF18owOVyocgyp05+Rt2DuehYKSy8QEVFJbJsxOlwsn37FmJivt7LOxwOTp78HMWkoKoq2dmZbN3yGulTpwz7ba1WKwUFi9i9excGg+/99Nr6+Pjop4PXPLz3URljqSujGrRUfRtUO4LqRMtaDLlPcL+yUUZYu9sn32BGuH0O3E6/xVy5coW2ljYkScLr9fLGzh3k5Q3tvR2KlJRkdu3agdnsG+K5XC5Of/6F33o8TVRVZdq0LNxuD7Js5NjxE9TV1T9rtQLm1q1SNN3X4xgMBjZv3ojJpIxyF5hMCi+/vI7UtFRUVcVgMHL69OPfSpIktm3bMthz9w30c+jQ4THr19XVzeHDRzAYDLjdHnJzc1i8eNFj17W1tdPR0Y4kSbhcbjZt2jBio/Qoc+fM5sUXlww2OhfOX8Jms41Zx6EY1aD19mYQZdDciNkLgipsKIRJU0CO8nkC7f3odv/XPr888xWyouD1epmWncW8ef7PL7OzsnjxxQJcLrfv5V64NKz3+VngcrnY+MoGYh7MA3sfOMi8gSwb/hZQWVWDwWBA0zQmT04lPj5+zPeGh4ezYvmL2AfsgM7Vq8VDfqvU1BTWrV2D0+FEURSuXCkesjcfipMnP6O5uRmDQULXdXbv3jlkg9Pc3IIo/MaMHi4xjZUNG17G7Xbj9ar0dPdSU1Pr1/3fZFSDFkQBHi5OeVxBFTYkuga6+pvlHz+XgWw2G9XVtRgMEi6Xi+XLl/o1jH2UFcuX4/G4UVWV1rYOGhoaA5LzNPB4PKSmprJ50yu+CirLXLl6jWvXrj1r1QKip6cHQRBQVZXEhES/71+wYD5z581l3rw55M3IHdZhtH79WhISE1BVFVXT2Lt3/6gNdX19AydPnEIxKbhcLpYULCI3N3fIa+12+2CdFUURq9Xq13OkJCexaPECZs/OZ9HiBbjd/gdqPcroXu6EFN9eZTkSofQsXu/bGAzBBRs8il5TjuDpQzeGI1gjESzhft3f3NyMy+XCaDQiIJCTkxOwLqmpKSxauBDJIOB0enD+Nu3N1sHr9bB8xVLOFRZSXVMLCOzbd4CcnGlEREQ8aw39Qnlkyc/ldvt9/8PlKUkUUTUNq9Uy5HUTJ8awbdvr/OQnP8VisVBZWc3Zs4VDOrcecujDw9j6+jDKRiwW64jBPJL0mz7x4XqzP0iSxBs7dqBqGgDRUVF+y3iU0Z1i2fkgR6KLMjTcgMITQRX4KPqADT76qa+xcPeizVntt7Oto+P+4P9lRQloaeIhJpOJN3ZtZ/v2bbz55k5SUlIClvW0sFqt7Ny5HUmSMBoN1NTWc+Tjo89aLb+JjYsdDPoJJIxWkiSyMjNIT59KVmbGiD3jC0sKmJGfh8fjwWg0cPjIx7S3tw95bUlJCZcuXUExKTgdTtatW/3YMtWjRERGoD3wPquad1i5I/HwGbIyM4iNnej3/Y8y+pA7dhL6kq0I7l5AQPrwx/DFh+gPM5AEiN5YCfv+Ea5/hW6wguZBffWP/JbjcrkH5zAmRR6TY2UkMtLTyUhPJyszc8zxx+PNjBl5rFyxFKfDicmkcOz4yd85B1lmRgYetwdRFGlrax+MX34amEwmtm/bOuhxb21p5ZOjxx67zuFw8MGe/WiajqqqpKQks37dmhFlJyclP5iWgiRKnDlz9qk8w1gZW2DJ63+CVluM2FyN0FINB/4Bqi6ix6SBafTolW8i2Hug5jrcuOj73d2LvuY/IebN91uWT8CDFyqJAc+ff5eQJIlNmzZy7VoJPb09uJxO9uzdx1/+4PtPdDr0NJk2bRomk29VQRQlPtizj7e/+6dEBTnkHI7c6Tm8+IIv4ERRFE6fPsPyZUu/FhVYWHieiopKLBYzLpeLLVteHbVRnzgxhilTptDS0oKiKJz67DT5+TOYNi37qTzHaIzJoIXJ2ei7/hv6gf+DUHsbvaMR4VQduhIJJv/mvAA4bODsQUAHUUZfsQ22vfM7a4xGg3H0i54wiYmJbNq8gX/713/HYrVy+bLPQbZw4ZNfiXgaxMXFUlCwiLNnCzGZTZSU3GTPnv2sXLmc9PT0J94wSZLEq69uori4hAH7AC6Xk/37D/KDH/wFBoNER0cHHx4+gizLeDweZs6ayaJFjy9TDSV3w8tr+ed//r9YrFa6urrYs3c/69etZebMGV8LeBkPxhzLLRasBYOCfu4QenUZQtsdBEcXOLr8L1WT0MMmwKQpCLMKYPVbCHFJ/sv5LUAQBAYGBrh///7oF38DRVEIDw+gQXzA8mVLKSq6QFVVNUajgX379pOdnT3kxoFgcLqcAT0fwMSJQ88JHxpYWVkF3T3dyLLM6S/O0NrWRk7ONOLjYklNTSUuLjaod/QoycnJbNiwnl/96j0sVgtXrl7jxo0bzJs3l6OfHqe5uQWLxYyuiezYvmUwLmE0CgoWU3T+IjdLSjGZTdy6dZs+Wx9lZeWkpqQwKXkSkxITCQsLe+ojKP+2oCxYDmkZCLevwN0SNPsAYgCePV2UEeLTYHIu5M5HkIOb9/pDW1s7qjq2mGtZloetkA8xGg1cuXqNpnv3/NJD9WrMmZPP8uXL/brvUcLCwti1awc/+tHfIYoiNTX1HP30OG/6GeI4EqIo0tXdxQd79vnnxdV9S55vf/fPhr1kypTJ7Nq9g737DtDe3oFJUSgtvU1lZRXR0dEkJ01iwoRokpKSiIuLIyUliejo6KB6vZdeWsFXX52jta0VUZQ4eOgwisk3BDc9cIStXr2SadljHzI//A6qqnL7VhmyInO3qYnGu03ETIgmITGBuNg4JsbGkJw0icTERBITE55K7+33njIhPhnik8H9MjgGfOvI/iIrfi9PPSmOHPkYm60PURx5vVvTdLKyMobcovcoBoOBmppa7lRW+aWH2+UmMjIsKIMGmJGXx7KlL/DZ519iMps4dvwESwoWMWXK5KDkPkQURZxOF2fOnEP3Z7OspiOI4ogGDbBi+TLQdQqLLlBWVo6u+xxSHR0dtLe3o3pVwiPCiI2NJWlSIlHR0UzLziI/fwZhYf77b6KiInn99c38409+iqLI1NTUsn//IZxOB5IkMWFCNK++uslvudlZWezatZNTJz/j+o0b2Gz9GAwSXd3ddHZ1cdPr673j4mJJiI8nLi6eKVNSycvLG3IvfKAEvklUVhBH6FlVVUXShu4JBeP49cjf5OLFS3R2diONsj9W9XoQxzinF0UReYStiEOhqdoT8xls3ryR4uIS+vr7cDgc7Nt/kO+9/edjHjKOhiiKg1lOxoqm6RjG+HwrViwnNTWV4uLr1NbW0dnZSdM9X3yBZDDgcDhpbLxLXV0DOjolJTe5des2q1evCqjhWrhwPjPO5HLr1m1kWaai4g5GoxG73cH2bVuYNCmw/ebTc6YROzGGqelTaWxopKW1laamJgYGHAiigNer0tLSyr17zahelbi4OG7evM2SJYuZP//JhFQ/0ayfmq0bofo2NN1B7+8A9zBhiRYZPW4aTM5CmDy+3kCD0YjBaBxyL7Ag/CYA3i2Mzdnl9ark5uWQke5fqhuPx0tubuBBMI+SlJTEa69v5l//9d+xWMxcuXKVK1eusXTpkqBla5pGdFQ0L7xY4Od9ul/zxfT0qaSnT+XevXs0N7fQ0NBIR8d9Ojs76bh/n+bmVoQH36S5uYXGhrt0dNxn67bXyc7K8ks3s9nM9u1bKS+rAHyjLFVVmToljZdeGjmzymjExsayaeMGenp6fI1QfQMd7R10dnXS2tpGa2sbqqpilI309Pbw1VdnaWhswG4fCGrP9kOemEHrt67CucPodWVwrwqDoxuGm6oaQE/IQUhNQ5+1EpZtRjD7P3wKhPXr1jIwYB/yb4IgUFR0ns6usTv6PB4Ps2bN5JWXh8/+MR6sXLGMwsLzVFZWIkkShz/6iNzcaUGvpfsMOoqdO0ZOffOkSEpKIikpifnz59HX10dbWzvNzc00NjbR3tFB5Z07tHfcx2Q2cfVqMW6Ph7e/+6d+P2fu9BwKChZy9lwRiqLgcrrYvn3rE1s2i4qKIioqivz8GQ8y5HTS2NhE4927dHV2UVtXR01NHSaziYaGu7z3/h6io6PJzw8u8+2TMejic+iHfoxYegGMErrmBU1i2HRbAgjtVQit5WgVNxDaatC3/5dxMerXXts84t8rKsrp8MOjq+s6kig+8/Vfs9nM7t07+eu//hGCIFBbV8+x4yd4683dT0T+s3i+8PBwwsPDBxP9tbe3c+NGCV+dK6T8dgUms4kb10s4fuIUb+5+w2/5L7ywhM9Pf+kzaJeH+fMDjIMYBbPZTHJyMsnJyRSwCJvNRkVFBefPX+bsuXMoisL9+53s2buPrKzMwfX5QAjaoPW7NfD+3yHW3QBFQQuPQ5iWB1HDz0N0bz801EL1NQR7H8JHP0OzRCNs+26w6vx/TV7udFauWM7JU59hUhSOnzjFwoULycrMeNaqPRHi4uJYs2Y1ySnJ/PzffsHdpmafI/DYSV5ev9bvsF9FMQ1uClJVbdwarYiICBYsWEBmZhYut4vLl69gMpm4fbucsvIK5sz2b8fWowRv0Pt/7DNmSUGLS4G1vwfzV0HiCMn2BmzoFSXw+X/AxZPociTCgX9An7sKYWrg80odfTA+OFAe5m8CMASQXulZs2XLq9y4eZPurm6cDif79x/g+3/xTlCt/m8b03Ny2LFjG//z7/43ZrOJPpuNW7dus3Tpi89aNb+Ijo7iW2/tpqK8ArvDl4apqPB8UAYdVI3V77cgnv0A5AhAQ33tu4ibfh9hJGMGBGsE4twX4Vt/hZAzH0HzILjtaEff9VsHRZF9SQsBt9uL0xncFs8+Wz+iKKJpOuYgc2A/C+Li4nh180ZUVUVRFK5du8758xeetVpfw2bro/BcERcuXKKo6DxOp/9JLebOncuE6Gg0TcNgNFBxp/IpaDoyqqpy4cIlLly4ROG5Itra2vyWkZiYwJw5s/F4vBiNRirKK4NK9RScQZdeAnR0rwM9bTbC8tf8ul9ITIXtfwnuXnQlCvH8x37rEBs7EfVB5gu73U53d7ffMh7idLro6LzvM2hVDWrn1rNk+bKl5OfPwO32YDT6kuTdv9/5rNUaxGbr5ZfvvscHe/bx7rvv0dPT67cMg0EiMzN9cETW1ur/Lqdg0XXYf+AA73+wl3d/9T5l5eUByZmWk43q9T4I4ukOKmlFcAZdVwWiEcHTjzZvTWBzkOlzQJIRRBHhfhO6Y8Cv2+Pj4zE8WF7Sdd3vvFGP0trait3u2wOtqippqb992yfHgtlsZueObciyjCAItLS28emnx5+1WoNYrdbBwJGWllbuNjUFJCc83Iqu6wiCgMv1FJJvjILBIOF2u2ltbaWzs4s7FYGNEkyK4l/QzggEZdDCYNpaHTE6wH2csgkMjwxtXf4lFQgPjyA1JRlVVZFlhcLCooCHLJcuXUYQfEs1VmsYkyc/mWirZ0F2dhYrVy7H5XZjNpk4ceIUNbV1yPK4HTg6LOHhEYPHu8iKwtmz5wKS09LaNpjMPjLy2SR4yM7ORtP0B9ObGwwM+NchgS97iyj6OkNZNgTlAwrOoKNjQPOCwQp1twOSoXe2gevBkMsAgsW/pSuDQWLJkgJcThdGo4Hi6yWUl1f4rUdLS8vg1jq328OsOfnjkib3abLl9c0kJ03C6/Xi9ng4ePDD3wq/gMEgMXfu7MGEh1cuX6XJz166r6+fhoa7SJIBr9fL5MljO/HkSTNv3hy8Xg8IOu0d7Vy4cMlvGaWlpYPBLXHxsUF524Nz4+bMBrcb3WBBv/wJeutdv0Xopw+CIIHqQk+fFVCi/ReWFBAREYGmaWiazr79B/yqID09PRw69BEd9+8PRpCNtrH9d4EJEyawbevraJqOLBspLr7+TLZ6DsWKFcseOB81XG4P+/YdpKtr7P6Pc+cKBw/T0zSNaUGkngqG3OnTiYuPQ9NUTCYThz/62K9kDdXVvmOYjEYDLreb2bNmBqVPcD105gz0xFwE3YPY3QyHfox+b2xzWN1hR7/8JcKJd9GVaLD3om0O7IiXpKRJrF+3ZrDFL71Vxr59hygtvT3i3EpVNapravjww484/YVvt43L5WbhgrnkDZMUbigM0rMfxg7HkiUFzJqV78vsIoogjPvpwUOSkZHOwoXzcLncmEwKZ88VcejQR9TVj5x5xeVycenSFT755BjKg0yvkyenkT519OOLngaRkZFs3vQKbrfPqdXc3MIHe/dRUlIyat0rKyvng737cHs8aJqGIsu88EJw4brB1UTFBNv+M/z8B6BEIXz+PrrXgz5nFcQkI0jDtBcDvVBbjH7mJKKtHdAhY0HAp2YAbHhlPZVVVZSU3MJsNnH2XCEd9+8zf95cJk9JIyZmAibF1/u73S66u3u4d6+F6zeKuXy5GIvFjNvlfpCje+eYDzczGAzU1zdwrvB8QHqrXg/z5s0NaOfQWDAYDOzYvpXKiircXveI51kNhSiK9PX3B/x8uq6RmprC5G8cA2swGNi5YxuNDXdpaW3FYjFz9NNjdHZ3Mnf2bBITE4mKihz8Dk6Xk87OLurrGvjiiy/puH8fSRIREHj9tc1BH7MbDC+tXMn14htcv34Tk1mhuPgGtl4bixctIiNjKpFRkV+rezZbP41373LhwgVKb5VhNplwOJysXbtqzIclDkfQXYuwchP6nYtw+SSC0YpwZj/ajfOQlAnDzAUEWw9C3VUwhoNXR0+bivDt/xHUsbKRkZF8+9vf4uc/f5eysjIURaa6uoby8gomT04lKSmJiPAwNF3HbnfQ1tZGba2vNzCZFAYGBsjMzGDHjm1+vVRZNnL+wkWuXA0sne5A/wB///dTRjfoIA65zMrKZO3aVRw4eBiL1b+KL4oinV2d/OIXvwzopE2v18OmTa88ZtAAqampvPHGdvbs3c+9phZMJoUrl69x9UoxWZkZxCfED+7y6uvvp/leC/X1DZhMii/rlA4rVy4LulcLFovFzO/93ps4nb+gvLwCRZFpaGikqqqGrKwMJsZOJPJBkob+ATtdnV1UVlUDvuynbpebGXm5bN+2ZaRixkTwY0XFDH/wQwiLgtJzcK8KobcFoasexKENWhcMCMhgiUDPnIK+4Y8RZo6e7mU00tLS+OM//gP27TtIZVUV7e0dyLKRe/eauXevBV33zbFFUUAURSRJRPWqhFmtZGVnsfX1zcycObY5jKrpeDweBEHA6/UGFBwB0NM98hqsx+PF6/XiCTKh/isbX6aw6AIdHR2Ikoiqamja8HvZNU1DU9XBA/hsNpvfvTuAy+ka8RC/JUsKAJ1jxz6nobEOr8eLKIlUVlVxp7Lya5F7kiQiy0a8Hi+JkxKYkZfHW2/tCvioWE1TUVUNr9cbUCrhR/HVvd/ngw/2U1tXR1dnF4oiU1/fQG3t16ehgiA8qDcqUVERZGZksnPn1ieSlPKJTP6E8Cj4wx+inz2GcP0odNsmm+gAAAH6SURBVHeg9/chiMOk5DUI6JZomDITlm1GTH5y85/k5CS+970/47PPT3O9uITunm76+/sZGBjA5fJ9NKPBgNliITw8jIkxE8jKymLVqpV+7bRJTU3B5XQiBFDJH8UW0//1I1sfwWg0MjVjKhHhYdj6+pGCmKtHRUWxa9d2Pjx8BKPRiNPpxmIZOpc1+EY8U6ZOHla3seLxeEZ9r0uWLCEtbTKfn/6C+roGunt66Ovrw+1y4XkQcGEwGLBaLURFRTMxJob582ezbNmyoHQzGg2kp6djMsmERwS/yyotLY3vfe/POPXZacpu36arp5fenl4cdjueB42aosgoiomwMCvRURPIy8th3bo1I34LfxBsNtsT95LoTbXone2Iw/QAeng4xKf4GoKniN1up7KqiubmFtra2h8cneIbJk+MjSUxMYFp2VkBbZm7UTK2I1VGQ1U1cqZlD/lB7XY75RV3fCOJEa4bK16vl5KbpYPy0lJTmThx6F6hvr6ezq7uryWSDwRV1YiPiyM5eWw541paWqiurqGttY3unh7cbg+iJGK2WIiLnUhaairZ2VlBHeD+kJ6eHmpq6wbfx9w5s4OW+U3ZjY13ud/RMXgihsVqISoqKqi6NxJPxaBDhAjxbPjd204UIkSIYQkZdIgQzxEhgw4R4jkiZNAhQjxH/D/atKtr1qwtygAAAABJRU5ErkJggg==;" vertex="1" parent="mlNtqiJOjDmDWpQiY5dI-31">
          <mxGeometry x="17.28" y="10" width="80" height="20" as="geometry" />
        </mxCell>
        <mxCell id="mlNtqiJOjDmDWpQiY5dI-34" value="" style="swimlane;startSize=0;fontSize=10;" vertex="1" parent="mlNtqiJOjDmDWpQiY5dI-31">
          <mxGeometry x="35" y="50" width="785" height="140" as="geometry" />
        </mxCell>
        <mxCell id="mlNtqiJOjDmDWpQiY5dI-35" value="Secure Flow" style="text;strokeColor=none;fillColor=none;html=1;fontSize=12;fontStyle=1;verticalAlign=middle;align=center;" vertex="1" parent="mlNtqiJOjDmDWpQiY5dI-34">
          <mxGeometry x="27.5" y="10" width="47.72" height="20" as="geometry" />
        </mxCell>
        <mxCell id="mlNtqiJOjDmDWpQiY5dI-41" style="edgeStyle=orthogonalEdgeStyle;rounded=0;orthogonalLoop=1;jettySize=auto;html=1;fontSize=12;" edge="1" parent="mlNtqiJOjDmDWpQiY5dI-34" source="mlNtqiJOjDmDWpQiY5dI-36" target="mlNtqiJOjDmDWpQiY5dI-40">
          <mxGeometry relative="1" as="geometry" />
        </mxCell>
        <mxCell id="mlNtqiJOjDmDWpQiY5dI-36" value="ObtieneData" style="shape=process;whiteSpace=wrap;html=1;backgroundOutline=1;fontSize=12;" vertex="1" parent="mlNtqiJOjDmDWpQiY5dI-34">
          <mxGeometry x="47.5" y="57" width="102.5" height="30" as="geometry" />
        </mxCell>
        <mxCell id="mlNtqiJOjDmDWpQiY5dI-45" style="edgeStyle=orthogonalEdgeStyle;rounded=0;orthogonalLoop=1;jettySize=auto;html=1;fontSize=12;" edge="1" parent="mlNtqiJOjDmDWpQiY5dI-34" source="mlNtqiJOjDmDWpQiY5dI-40" target="mlNtqiJOjDmDWpQiY5dI-44">
          <mxGeometry relative="1" as="geometry" />
        </mxCell>
        <mxCell id="mlNtqiJOjDmDWpQiY5dI-40" value="Realiza Tombola" style="shape=process;whiteSpace=wrap;html=1;backgroundOutline=1;fontSize=12;" vertex="1" parent="mlNtqiJOjDmDWpQiY5dI-34">
          <mxGeometry x="300" y="57" width="150" height="30" as="geometry" />
        </mxCell>
        <mxCell id="mlNtqiJOjDmDWpQiY5dI-44" value="Guarda Resultado" style="shape=process;whiteSpace=wrap;html=1;backgroundOutline=1;fontSize=12;" vertex="1" parent="mlNtqiJOjDmDWpQiY5dI-34">
          <mxGeometry x="590" y="51" width="160" height="42" as="geometry" />
        </mxCell>
        <mxCell id="mlNtqiJOjDmDWpQiY5dI-37" style="edgeStyle=orthogonalEdgeStyle;rounded=0;orthogonalLoop=1;jettySize=auto;html=1;entryX=0.5;entryY=0;entryDx=0;entryDy=0;entryPerimeter=0;fontSize=12;" edge="1" parent="1" source="mlNtqiJOjDmDWpQiY5dI-36" target="SI2dGwVQrveodY6pXAPa-9">
          <mxGeometry relative="1" as="geometry">
            <Array as="points">
              <mxPoint x="340" y="150" />
              <mxPoint x="182" y="150" />
            </Array>
          </mxGeometry>
        </mxCell>
        <mxCell id="mlNtqiJOjDmDWpQiY5dI-52" value="Aprox 4 segundos" style="edgeLabel;html=1;align=center;verticalAlign=middle;resizable=0;points=[];fontSize=12;fontColor=#FF3333;" vertex="1" connectable="0" parent="mlNtqiJOjDmDWpQiY5dI-37">
          <mxGeometry x="-0.4751" y="-2" relative="1" as="geometry">
            <mxPoint as="offset" />
          </mxGeometry>
        </mxCell>
        <mxCell id="mlNtqiJOjDmDWpQiY5dI-51" style="edgeStyle=orthogonalEdgeStyle;rounded=0;orthogonalLoop=1;jettySize=auto;html=1;entryX=0;entryY=0.25;entryDx=0;entryDy=0;fontSize=12;" edge="1" parent="1" source="mlNtqiJOjDmDWpQiY5dI-47" target="mlNtqiJOjDmDWpQiY5dI-34">
          <mxGeometry relative="1" as="geometry" />
        </mxCell>
        <mxCell id="mlNtqiJOjDmDWpQiY5dI-47" value="Cliente" style="shape=umlActor;verticalLabelPosition=bottom;verticalAlign=top;html=1;outlineConnect=0;fontSize=12;" vertex="1" parent="1">
          <mxGeometry x="110" y="-135" width="30" height="60" as="geometry" />
        </mxCell>
        <mxCell id="mlNtqiJOjDmDWpQiY5dI-54" style="edgeStyle=orthogonalEdgeStyle;rounded=0;orthogonalLoop=1;jettySize=auto;html=1;entryX=1;entryY=0.5;entryDx=0;entryDy=0;fontSize=12;fontColor=#FF3333;" edge="1" parent="1" source="mlNtqiJOjDmDWpQiY5dI-44" target="mlNtqiJOjDmDWpQiY5dI-53">
          <mxGeometry relative="1" as="geometry">
            <Array as="points">
              <mxPoint x="1120" y="-68" />
              <mxPoint x="1120" y="606" />
            </Array>
          </mxGeometry>
        </mxCell>
        <mxCell id="mlNtqiJOjDmDWpQiY5dI-55" value="Actualiza" style="edgeLabel;html=1;align=center;verticalAlign=middle;resizable=0;points=[];fontSize=12;fontColor=#000000;" vertex="1" connectable="0" parent="mlNtqiJOjDmDWpQiY5dI-54">
          <mxGeometry x="-0.1693" y="-2" relative="1" as="geometry">
            <mxPoint as="offset" />
          </mxGeometry>
        </mxCell>
        <mxCell id="mlNtqiJOjDmDWpQiY5dI-56" value="Modelo General Tombola" style="text;strokeColor=none;fillColor=none;html=1;fontSize=16;fontStyle=1;verticalAlign=middle;align=center;" vertex="1" parent="1">
          <mxGeometry x="440" y="-270" width="220" height="40" as="geometry" />
        </mxCell>
        <mxCell id="mlNtqiJOjDmDWpQiY5dI-57" value="Habitualidades con Athena" style="text;strokeColor=none;fillColor=none;html=1;fontSize=12;fontStyle=0;verticalAlign=middle;align=center;" vertex="1" parent="1">
          <mxGeometry x="440" y="-250" width="220" height="40" as="geometry" />
        </mxCell>
      </root>
    </mxGraphModel>
  </diagram>
</mxfile>
